<ttFont>
    <TTGlyph name="A" xMin="-14" yMin="0" xMax="1410" yMax="650">
      <contour>
        <pt x="1410" y="43" on="1"/>
        <pt x="1410" y="0" on="1"/>
        <pt x="659" y="0" on="1"/>
        <pt x="659" y="43" on="1"/>
        <pt x="733" y="43" on="1"/>
        <pt x="759" y="43" on="0"/>
        <pt x="792" y="66" on="0"/>
        <pt x="792" y="112" on="0"/>
        <pt x="763" y="148" on="1"/>
        <pt x="726" y="194" on="1"/>
        <pt x="283" y="194" on="1"/>
        <pt x="254" y="149" on="0"/>
        <pt x="254" y="80" on="0"/>
        <pt x="296" y="43" on="0"/>
        <pt x="329" y="43" on="1"/>
        <pt x="422" y="43" on="1"/>
        <pt x="422" y="0" on="1"/>
        <pt x="-14" y="0" on="1"/>
        <pt x="-14" y="43" on="1"/>
        <pt x="17" y="43" on="0"/>
        <pt x="85" y="74" on="0"/>
        <pt x="137" y="118" on="0"/>
        <pt x="181" y="164" on="0"/>
        <pt x="204" y="194" on="0"/>
        <pt x="204" y="195" on="1"/>
        <pt x="461" y="522" on="1"/>
        <pt x="436" y="553" on="1"/>
        <pt x="412" y="582" on="0"/>
        <pt x="359" y="607" on="0"/>
        <pt x="313" y="607" on="1"/>
        <pt x="234" y="607" on="1"/>
        <pt x="234" y="650" on="1"/>
        <pt x="806" y="650" on="1"/>
        <pt x="1296" y="43" on="1"/>
      </contour>
      <contour>
        <pt x="321" y="242" on="1"/>
        <pt x="688" y="242" on="1"/>
        <pt x="500" y="474" on="1"/>
      </contour>
      <contour>
        <pt x="928" y="43" on="1"/>
        <pt x="1005" y="43" on="1"/>
        <pt x="550" y="607" on="1"/>
        <pt x="473" y="607" on="1"/>
      </contour>
    </TTGlyph>
    <TTGlyph name="AE" xMin="-14" yMin="0" xMax="1753" yMax="650">
      <contour>
        <pt x="234" y="650" on="1"/>
        <pt x="1753" y="650" on="1"/>
        <pt x="1753" y="420" on="1"/>
        <pt x="1724" y="420" on="1"/>
        <pt x="1666" y="498" on="0"/>
        <pt x="1446" y="605" on="0"/>
        <pt x="1277" y="605" on="1"/>
        <pt x="1225" y="605" on="0"/>
        <pt x="1164" y="551" on="0"/>
        <pt x="1164" y="508" on="1"/>
        <pt x="1164" y="474" on="1"/>
        <pt x="1164" y="372" on="0"/>
        <pt x="1252" y="372" on="1"/>
        <pt x="1320" y="372" on="0"/>
        <pt x="1471" y="448" on="0"/>
        <pt x="1495" y="499" on="1"/>
        <pt x="1532" y="499" on="1"/>
        <pt x="1532" y="194" on="1"/>
        <pt x="1495" y="194" on="1"/>
        <pt x="1472" y="247" on="0"/>
        <pt x="1324" y="312" on="0"/>
        <pt x="1252" y="312" on="1"/>
        <pt x="1205" y="312" on="0"/>
        <pt x="1164" y="260" on="0"/>
        <pt x="1164" y="223" on="1"/>
        <pt x="1164" y="187" on="1"/>
        <pt x="1164" y="110" on="0"/>
        <pt x="1195" y="43" on="0"/>
        <pt x="1250" y="43" on="1"/>
        <pt x="1275" y="43" on="1"/>
        <pt x="1331" y="43" on="0"/>
        <pt x="1403" y="46" on="0"/>
        <pt x="1515" y="65" on="0"/>
        <pt x="1597" y="98" on="0"/>
        <pt x="1689" y="165" on="0"/>
        <pt x="1724" y="212" on="1"/>
        <pt x="1753" y="212" on="1"/>
        <pt x="1753" y="0" on="1"/>
        <pt x="546" y="0" on="1"/>
        <pt x="546" y="43" on="1"/>
        <pt x="666" y="43" on="1"/>
        <pt x="775" y="43" on="0"/>
        <pt x="775" y="151" on="1"/>
        <pt x="775" y="312" on="1"/>
        <pt x="375" y="312" on="1"/>
        <pt x="283" y="194" on="1"/>
        <pt x="254" y="157" on="0"/>
        <pt x="254" y="80" on="0"/>
        <pt x="296" y="43" on="0"/>
        <pt x="329" y="43" on="1"/>
        <pt x="422" y="43" on="1"/>
        <pt x="422" y="0" on="1"/>
        <pt x="-14" y="0" on="1"/>
        <pt x="-14" y="43" on="1"/>
        <pt x="17" y="43" on="0"/>
        <pt x="85" y="74" on="0"/>
        <pt x="137" y="118" on="0"/>
        <pt x="181" y="164" on="0"/>
        <pt x="204" y="194" on="0"/>
        <pt x="204" y="195" on="1"/>
        <pt x="461" y="522" on="1"/>
        <pt x="436" y="553" on="1"/>
        <pt x="412" y="582" on="0"/>
        <pt x="359" y="607" on="0"/>
        <pt x="313" y="607" on="1"/>
        <pt x="234" y="607" on="1"/>
      </contour>
      <contour>
        <pt x="666" y="607" on="1"/>
        <pt x="604" y="607" on="1"/>
        <pt x="421" y="372" on="1"/>
        <pt x="775" y="372" on="1"/>
        <pt x="775" y="507" on="1"/>
        <pt x="775" y="607" on="0"/>
      </contour>
      <contour>
        <pt x="908" y="43" on="1"/>
        <pt x="908" y="607" on="1"/>
        <pt x="842" y="607" on="1"/>
        <pt x="842" y="43" on="1"/>
      </contour>
    </TTGlyph>
    <TTGlyph name="Aacute" xMin="-14" yMin="0" xMax="1410" yMax="862">
      <contour>
        <pt x="1410" y="43" on="1"/>
        <pt x="1410" y="0" on="1"/>
        <pt x="659" y="0" on="1"/>
        <pt x="659" y="43" on="1"/>
        <pt x="733" y="43" on="1"/>
        <pt x="759" y="43" on="0"/>
        <pt x="792" y="66" on="0"/>
        <pt x="792" y="112" on="0"/>
        <pt x="763" y="148" on="1"/>
        <pt x="726" y="194" on="1"/>
        <pt x="283" y="194" on="1"/>
        <pt x="254" y="149" on="0"/>
        <pt x="254" y="80" on="0"/>
        <pt x="296" y="43" on="0"/>
        <pt x="329" y="43" on="1"/>
        <pt x="422" y="43" on="1"/>
        <pt x="422" y="0" on="1"/>
        <pt x="-14" y="0" on="1"/>
        <pt x="-14" y="43" on="1"/>
        <pt x="17" y="43" on="0"/>
        <pt x="85" y="74" on="0"/>
        <pt x="137" y="118" on="0"/>
        <pt x="181" y="164" on="0"/>
        <pt x="204" y="194" on="0"/>
        <pt x="204" y="195" on="1"/>
        <pt x="461" y="522" on="1"/>
        <pt x="436" y="553" on="1"/>
        <pt x="412" y="582" on="0"/>
        <pt x="359" y="607" on="0"/>
        <pt x="313" y="607" on="1"/>
        <pt x="234" y="607" on="1"/>
        <pt x="234" y="650" on="1"/>
        <pt x="806" y="650" on="1"/>
        <pt x="1296" y="43" on="1"/>
      </contour>
      <contour>
        <pt x="321" y="242" on="1"/>
        <pt x="688" y="242" on="1"/>
        <pt x="500" y="474" on="1"/>
      </contour>
      <contour>
        <pt x="928" y="43" on="1"/>
        <pt x="1005" y="43" on="1"/>
        <pt x="550" y="607" on="1"/>
        <pt x="473" y="607" on="1"/>
      </contour>
      <contour>
        <pt x="357" y="716" on="1"/>
        <pt x="303" y="716" on="1"/>
        <pt x="303" y="752" on="1"/>
        <pt x="412" y="752" on="0"/>
        <pt x="521" y="804" on="0"/>
        <pt x="562" y="862" on="1"/>
        <pt x="853" y="862" on="1"/>
        <pt x="850" y="849" on="0"/>
        <pt x="826" y="807" on="0"/>
        <pt x="796" y="775" on="0"/>
        <pt x="740" y="742" on="0"/>
        <pt x="705" y="734" on="1"/>
        <pt x="627" y="716" on="0"/>
      </contour>
      <contour>
        <pt x="501" y="759" on="1"/>
        <pt x="501" y="755" on="1"/>
        <pt x="616" y="761" on="0"/>
        <pt x="666" y="834" on="1"/>
        <pt x="602" y="834" on="1"/>
        <pt x="590" y="809" on="0"/>
        <pt x="529" y="768" on="0"/>
      </contour>
    </TTGlyph>
    <TTGlyph name="Acircumflex" xMin="-14" yMin="0" xMax="1410" yMax="862">
      <contour>
        <pt x="1410" y="43" on="1"/>
        <pt x="1410" y="0" on="1"/>
        <pt x="659" y="0" on="1"/>
        <pt x="659" y="43" on="1"/>
        <pt x="733" y="43" on="1"/>
        <pt x="759" y="43" on="0"/>
        <pt x="792" y="66" on="0"/>
        <pt x="792" y="112" on="0"/>
        <pt x="763" y="148" on="1"/>
        <pt x="726" y="194" on="1"/>
        <pt x="283" y="194" on="1"/>
        <pt x="254" y="149" on="0"/>
        <pt x="254" y="80" on="0"/>
        <pt x="296" y="43" on="0"/>
        <pt x="329" y="43" on="1"/>
        <pt x="422" y="43" on="1"/>
        <pt x="422" y="0" on="1"/>
        <pt x="-14" y="0" on="1"/>
        <pt x="-14" y="43" on="1"/>
        <pt x="17" y="43" on="0"/>
        <pt x="85" y="74" on="0"/>
        <pt x="137" y="118" on="0"/>
        <pt x="181" y="164" on="0"/>
        <pt x="204" y="194" on="0"/>
        <pt x="204" y="195" on="1"/>
        <pt x="461" y="522" on="1"/>
        <pt x="436" y="553" on="1"/>
        <pt x="412" y="582" on="0"/>
        <pt x="359" y="607" on="0"/>
        <pt x="313" y="607" on="1"/>
        <pt x="234" y="607" on="1"/>
        <pt x="234" y="650" on="1"/>
        <pt x="806" y="650" on="1"/>
        <pt x="1296" y="43" on="1"/>
      </contour>
      <contour>
        <pt x="321" y="242" on="1"/>
        <pt x="688" y="242" on="1"/>
        <pt x="500" y="474" on="1"/>
      </contour>
      <contour>
        <pt x="928" y="43" on="1"/>
        <pt x="1005" y="43" on="1"/>
        <pt x="550" y="607" on="1"/>
        <pt x="473" y="607" on="1"/>
      </contour>
      <contour>
        <pt x="362" y="862" on="1"/>
        <pt x="686" y="862" on="1"/>
        <pt x="819" y="716" on="1"/>
        <pt x="732" y="716" on="1"/>
        <pt x="629" y="828" on="1"/>
        <pt x="525" y="716" on="1"/>
        <pt x="228" y="716" on="1"/>
      </contour>
      <contour>
        <pt x="476" y="837" on="1"/>
        <pt x="414" y="837" on="1"/>
        <pt x="339" y="754" on="1"/>
        <pt x="401" y="754" on="1"/>
      </contour>
    </TTGlyph>
    <TTGlyph name="Adieresis" xMin="-14" yMin="0" xMax="1410" yMax="913">
      <contour>
        <pt x="1410" y="43" on="1"/>
        <pt x="1410" y="0" on="1"/>
        <pt x="659" y="0" on="1"/>
        <pt x="659" y="43" on="1"/>
        <pt x="733" y="43" on="1"/>
        <pt x="759" y="43" on="0"/>
        <pt x="792" y="66" on="0"/>
        <pt x="792" y="112" on="0"/>
        <pt x="763" y="148" on="1"/>
        <pt x="726" y="194" on="1"/>
        <pt x="283" y="194" on="1"/>
        <pt x="254" y="149" on="0"/>
        <pt x="254" y="80" on="0"/>
        <pt x="296" y="43" on="0"/>
        <pt x="329" y="43" on="1"/>
        <pt x="422" y="43" on="1"/>
        <pt x="422" y="0" on="1"/>
        <pt x="-14" y="0" on="1"/>
        <pt x="-14" y="43" on="1"/>
        <pt x="17" y="43" on="0"/>
        <pt x="85" y="74" on="0"/>
        <pt x="137" y="118" on="0"/>
        <pt x="181" y="164" on="0"/>
        <pt x="204" y="194" on="0"/>
        <pt x="204" y="195" on="1"/>
        <pt x="461" y="522" on="1"/>
        <pt x="436" y="553" on="1"/>
        <pt x="412" y="582" on="0"/>
        <pt x="359" y="607" on="0"/>
        <pt x="313" y="607" on="1"/>
        <pt x="234" y="607" on="1"/>
        <pt x="234" y="650" on="1"/>
        <pt x="806" y="650" on="1"/>
        <pt x="1296" y="43" on="1"/>
      </contour>
      <contour>
        <pt x="321" y="242" on="1"/>
        <pt x="688" y="242" on="1"/>
        <pt x="500" y="474" on="1"/>
      </contour>
      <contour>
        <pt x="928" y="43" on="1"/>
        <pt x="1005" y="43" on="1"/>
        <pt x="550" y="607" on="1"/>
        <pt x="473" y="607" on="1"/>
      </contour>
      <contour>
        <pt x="943" y="845" on="0"/>
        <pt x="943" y="751" on="0"/>
        <pt x="863" y="685" on="0"/>
        <pt x="749" y="685" on="0"/>
        <pt x="669" y="751" on="0"/>
        <pt x="669" y="845" on="0"/>
        <pt x="749" y="913" on="0"/>
        <pt x="863" y="913" on="0"/>
      </contour>
      <contour>
        <pt x="487" y="845" on="0"/>
        <pt x="487" y="751" on="0"/>
        <pt x="407" y="685" on="0"/>
        <pt x="293" y="685" on="0"/>
        <pt x="213" y="751" on="0"/>
        <pt x="213" y="845" on="0"/>
        <pt x="293" y="913" on="0"/>
        <pt x="407" y="913" on="0"/>
      </contour>
      <contour>
        <pt x="291" y="745" on="0"/>
        <pt x="291" y="851" on="0"/>
        <pt x="322" y="885" on="1"/>
        <pt x="319" y="888" on="1"/>
        <pt x="288" y="875" on="0"/>
        <pt x="250" y="826" on="0"/>
        <pt x="250" y="770" on="0"/>
        <pt x="288" y="721" on="0"/>
        <pt x="319" y="708" on="1"/>
        <pt x="322" y="711" on="1"/>
      </contour>
      <contour>
        <pt x="747" y="745" on="0"/>
        <pt x="747" y="851" on="0"/>
        <pt x="778" y="885" on="1"/>
        <pt x="775" y="888" on="1"/>
        <pt x="744" y="875" on="0"/>
        <pt x="706" y="826" on="0"/>
        <pt x="706" y="770" on="0"/>
        <pt x="744" y="721" on="0"/>
        <pt x="775" y="708" on="1"/>
        <pt x="778" y="711" on="1"/>
      </contour>
    </TTGlyph>
    <TTGlyph name="Agrave" xMin="-14" yMin="0" xMax="1410" yMax="862">
      <contour>
        <pt x="1410" y="43" on="1"/>
        <pt x="1410" y="0" on="1"/>
        <pt x="659" y="0" on="1"/>
        <pt x="659" y="43" on="1"/>
        <pt x="733" y="43" on="1"/>
        <pt x="759" y="43" on="0"/>
        <pt x="792" y="66" on="0"/>
        <pt x="792" y="112" on="0"/>
        <pt x="763" y="148" on="1"/>
        <pt x="726" y="194" on="1"/>
        <pt x="283" y="194" on="1"/>
        <pt x="254" y="149" on="0"/>
        <pt x="254" y="80" on="0"/>
        <pt x="296" y="43" on="0"/>
        <pt x="329" y="43" on="1"/>
        <pt x="422" y="43" on="1"/>
        <pt x="422" y="0" on="1"/>
        <pt x="-14" y="0" on="1"/>
        <pt x="-14" y="43" on="1"/>
        <pt x="17" y="43" on="0"/>
        <pt x="85" y="74" on="0"/>
        <pt x="137" y="118" on="0"/>
        <pt x="181" y="164" on="0"/>
        <pt x="204" y="194" on="0"/>
        <pt x="204" y="195" on="1"/>
        <pt x="461" y="522" on="1"/>
        <pt x="436" y="553" on="1"/>
        <pt x="412" y="582" on="0"/>
        <pt x="359" y="607" on="0"/>
        <pt x="313" y="607" on="1"/>
        <pt x="234" y="607" on="1"/>
        <pt x="234" y="650" on="1"/>
        <pt x="806" y="650" on="1"/>
        <pt x="1296" y="43" on="1"/>
      </contour>
      <contour>
        <pt x="321" y="242" on="1"/>
        <pt x="688" y="242" on="1"/>
        <pt x="500" y="474" on="1"/>
      </contour>
      <contour>
        <pt x="928" y="43" on="1"/>
        <pt x="1005" y="43" on="1"/>
        <pt x="550" y="607" on="1"/>
        <pt x="473" y="607" on="1"/>
      </contour>
      <contour>
        <pt x="853" y="752" on="1"/>
        <pt x="853" y="716" on="1"/>
        <pt x="799" y="716" on="1"/>
        <pt x="529" y="716" on="0"/>
        <pt x="451" y="734" on="1"/>
        <pt x="380" y="750" on="0"/>
        <pt x="345" y="792" on="1"/>
        <pt x="312" y="830" on="0"/>
        <pt x="306" y="852" on="1"/>
        <pt x="303" y="862" on="1"/>
        <pt x="594" y="862" on="1"/>
        <pt x="635" y="804" on="0"/>
        <pt x="744" y="752" on="0"/>
      </contour>
      <contour>
        <pt x="541" y="755" on="1"/>
        <pt x="541" y="759" on="1"/>
        <pt x="513" y="768" on="0"/>
        <pt x="452" y="809" on="0"/>
        <pt x="440" y="834" on="1"/>
        <pt x="376" y="834" on="1"/>
        <pt x="426" y="761" on="0"/>
      </contour>
    </TTGlyph>
    <TTGlyph name="Aring" xMin="-14" yMin="0" xMax="1410" yMax="930">
      <contour>
        <pt x="1410" y="43" on="1"/>
        <pt x="1410" y="0" on="1"/>
        <pt x="659" y="0" on="1"/>
        <pt x="659" y="43" on="1"/>
        <pt x="733" y="43" on="1"/>
        <pt x="759" y="43" on="0"/>
        <pt x="792" y="66" on="0"/>
        <pt x="792" y="112" on="0"/>
        <pt x="763" y="148" on="1"/>
        <pt x="726" y="194" on="1"/>
        <pt x="283" y="194" on="1"/>
        <pt x="254" y="149" on="0"/>
        <pt x="254" y="80" on="0"/>
        <pt x="296" y="43" on="0"/>
        <pt x="329" y="43" on="1"/>
        <pt x="422" y="43" on="1"/>
        <pt x="422" y="0" on="1"/>
        <pt x="-14" y="0" on="1"/>
        <pt x="-14" y="43" on="1"/>
        <pt x="17" y="43" on="0"/>
        <pt x="85" y="74" on="0"/>
        <pt x="137" y="118" on="0"/>
        <pt x="181" y="164" on="0"/>
        <pt x="204" y="194" on="0"/>
        <pt x="204" y="195" on="1"/>
        <pt x="461" y="522" on="1"/>
        <pt x="436" y="553" on="1"/>
        <pt x="412" y="582" on="0"/>
        <pt x="359" y="607" on="0"/>
        <pt x="313" y="607" on="1"/>
        <pt x="234" y="607" on="1"/>
        <pt x="234" y="650" on="1"/>
        <pt x="806" y="650" on="1"/>
        <pt x="1296" y="43" on="1"/>
      </contour>
      <contour>
        <pt x="321" y="242" on="1"/>
        <pt x="688" y="242" on="1"/>
        <pt x="500" y="474" on="1"/>
      </contour>
      <contour>
        <pt x="928" y="43" on="1"/>
        <pt x="1005" y="43" on="1"/>
        <pt x="550" y="607" on="1"/>
        <pt x="473" y="607" on="1"/>
      </contour>
      <contour>
        <pt x="530" y="839" on="0"/>
        <pt x="530" y="757" on="0"/>
        <pt x="558" y="699" on="0"/>
        <pt x="598" y="699" on="0"/>
        <pt x="626" y="757" on="0"/>
        <pt x="626" y="839" on="0"/>
        <pt x="598" y="897" on="0"/>
        <pt x="558" y="897" on="0"/>
      </contour>
      <contour>
        <pt x="644" y="930" on="0"/>
        <pt x="737" y="852" on="0"/>
        <pt x="737" y="743" on="0"/>
        <pt x="644" y="668" on="0"/>
        <pt x="513" y="668" on="0"/>
        <pt x="421" y="744" on="0"/>
        <pt x="421" y="852" on="0"/>
        <pt x="514" y="930" on="0"/>
      </contour>
      <contour>
        <pt x="493" y="744" on="0"/>
        <pt x="493" y="852" on="0"/>
        <pt x="524" y="888" on="1"/>
        <pt x="521" y="891" on="1"/>
        <pt x="491" y="877" on="0"/>
        <pt x="453" y="826" on="0"/>
        <pt x="453" y="770" on="0"/>
        <pt x="491" y="719" on="0"/>
        <pt x="521" y="705" on="1"/>
        <pt x="524" y="708" on="1"/>
      </contour>
    </TTGlyph>
    <TTGlyph name="Atilde" xMin="-14" yMin="0" xMax="1410" yMax="879">
      <contour>
        <pt x="1410" y="43" on="1"/>
        <pt x="1410" y="0" on="1"/>
        <pt x="659" y="0" on="1"/>
        <pt x="659" y="43" on="1"/>
        <pt x="733" y="43" on="1"/>
        <pt x="759" y="43" on="0"/>
        <pt x="792" y="66" on="0"/>
        <pt x="792" y="112" on="0"/>
        <pt x="763" y="148" on="1"/>
        <pt x="726" y="194" on="1"/>
        <pt x="283" y="194" on="1"/>
        <pt x="254" y="149" on="0"/>
        <pt x="254" y="80" on="0"/>
        <pt x="296" y="43" on="0"/>
        <pt x="329" y="43" on="1"/>
        <pt x="422" y="43" on="1"/>
        <pt x="422" y="0" on="1"/>
        <pt x="-14" y="0" on="1"/>
        <pt x="-14" y="43" on="1"/>
        <pt x="17" y="43" on="0"/>
        <pt x="85" y="74" on="0"/>
        <pt x="137" y="118" on="0"/>
        <pt x="181" y="164" on="0"/>
        <pt x="204" y="194" on="0"/>
        <pt x="204" y="195" on="1"/>
        <pt x="461" y="522" on="1"/>
        <pt x="436" y="553" on="1"/>
        <pt x="412" y="582" on="0"/>
        <pt x="359" y="607" on="0"/>
        <pt x="313" y="607" on="1"/>
        <pt x="234" y="607" on="1"/>
        <pt x="234" y="650" on="1"/>
        <pt x="806" y="650" on="1"/>
        <pt x="1296" y="43" on="1"/>
      </contour>
      <contour>
        <pt x="321" y="242" on="1"/>
        <pt x="688" y="242" on="1"/>
        <pt x="500" y="474" on="1"/>
      </contour>
      <contour>
        <pt x="928" y="43" on="1"/>
        <pt x="1005" y="43" on="1"/>
        <pt x="550" y="607" on="1"/>
        <pt x="473" y="607" on="1"/>
      </contour>
      <contour>
        <pt x="824" y="789" on="1"/>
        <pt x="777" y="774" on="0"/>
        <pt x="637" y="774" on="0"/>
        <pt x="460" y="818" on="0"/>
        <pt x="365" y="818" on="0"/>
        <pt x="331" y="788" on="1"/>
        <pt x="334" y="784" on="1"/>
        <pt x="357" y="789" on="0"/>
        <pt x="411" y="789" on="0"/>
        <pt x="616" y="739" on="0"/>
        <pt x="772" y="739" on="0"/>
        <pt x="826" y="785" on="1"/>
      </contour>
      <contour>
        <pt x="796" y="731" on="0"/>
        <pt x="726" y="705" on="0"/>
        <pt x="604" y="705" on="0"/>
        <pt x="411" y="754" on="0"/>
        <pt x="349" y="754" on="1"/>
        <pt x="302" y="754" on="0"/>
        <pt x="287" y="717" on="1"/>
        <pt x="259" y="717" on="1"/>
        <pt x="263" y="766" on="0"/>
        <pt x="386" y="879" on="0"/>
        <pt x="566" y="879" on="0"/>
        <pt x="738" y="843" on="0"/>
        <pt x="843" y="843" on="0"/>
        <pt x="864" y="878" on="1"/>
        <pt x="897" y="878" on="1"/>
        <pt x="892" y="838" on="0"/>
        <pt x="843" y="770" on="0"/>
      </contour>
    </TTGlyph>
    <TTGlyph name="B" xMin="73" yMin="0" xMax="1421" yMax="650">
      <contour>
        <pt x="1362" y="507" on="1"/>
        <pt x="1362" y="471" on="0"/>
        <pt x="1332" y="413" on="0"/>
        <pt x="1308" y="395" on="1"/>
        <pt x="1265" y="363" on="0"/>
        <pt x="1228" y="350" on="1"/>
        <pt x="1228" y="345" on="1"/>
        <pt x="1276" y="337" on="0"/>
        <pt x="1340" y="304" on="1"/>
        <pt x="1376" y="285" on="0"/>
        <pt x="1421" y="218" on="0"/>
        <pt x="1421" y="134" on="0"/>
        <pt x="1379" y="70" on="0"/>
        <pt x="1315" y="33" on="0"/>
        <pt x="1272" y="21" on="1"/>
        <pt x="1197" y="0" on="0"/>
        <pt x="1114" y="0" on="1"/>
        <pt x="73" y="0" on="1"/>
        <pt x="73" y="43" on="1"/>
        <pt x="193" y="43" on="1"/>
        <pt x="242" y="43" on="0"/>
        <pt x="301" y="95" on="0"/>
        <pt x="301" y="151" on="1"/>
        <pt x="301" y="497" on="1"/>
        <pt x="301" y="542" on="0"/>
        <pt x="238" y="607" on="0"/>
        <pt x="193" y="607" on="1"/>
        <pt x="73" y="607" on="1"/>
        <pt x="73" y="650" on="1"/>
        <pt x="1035" y="650" on="1"/>
        <pt x="1231" y="650" on="0"/>
        <pt x="1300" y="612" on="1"/>
        <pt x="1362" y="576" on="0"/>
      </contour>
      <contour>
        <pt x="776" y="43" on="1"/>
        <pt x="867" y="43" on="1"/>
        <pt x="927" y="43" on="0"/>
        <pt x="1018" y="110" on="0"/>
        <pt x="1018" y="255" on="0"/>
        <pt x="929" y="324" on="0"/>
        <pt x="856" y="324" on="1"/>
        <pt x="692" y="324" on="1"/>
        <pt x="692" y="145" on="1"/>
        <pt x="692" y="43" on="0"/>
      </contour>
      <contour>
        <pt x="692" y="508" on="1"/>
        <pt x="692" y="362" on="1"/>
        <pt x="849" y="362" on="1"/>
        <pt x="900" y="362" on="0"/>
        <pt x="980" y="425" on="0"/>
        <pt x="980" y="543" on="0"/>
        <pt x="892" y="606" on="0"/>
        <pt x="810" y="606" on="1"/>
        <pt x="755" y="606" on="0"/>
        <pt x="692" y="553" on="0"/>
      </contour>
      <contour>
        <pt x="434" y="43" on="1"/>
        <pt x="434" y="607" on="1"/>
        <pt x="369" y="607" on="1"/>
        <pt x="369" y="43" on="1"/>
      </contour>
      <contour>
        <pt x="1132" y="439" on="0"/>
        <pt x="1132" y="517" on="0"/>
        <pt x="1072" y="577" on="0"/>
        <pt x="1024" y="591" on="1"/>
        <pt x="1021" y="588" on="1"/>
        <pt x="1061" y="538" on="0"/>
        <pt x="1061" y="417" on="0"/>
        <pt x="1021" y="368" on="1"/>
        <pt x="1024" y="364" on="1"/>
        <pt x="1072" y="380" on="0"/>
      </contour>
      <contour>
        <pt x="1101" y="66" on="0"/>
        <pt x="1172" y="138" on="0"/>
        <pt x="1172" y="231" on="0"/>
        <pt x="1101" y="304" on="0"/>
        <pt x="1043" y="323" on="1"/>
        <pt x="1040" y="319" on="1"/>
        <pt x="1102" y="265" on="0"/>
        <pt x="1102" y="104" on="0"/>
        <pt x="1041" y="51" on="1"/>
        <pt x="1043" y="47" on="1"/>
      </contour>
    </TTGlyph>
    <TTGlyph name="C" xMin="22" yMin="-22" xMax="1084" yMax="674">
      <contour>
        <pt x="666" y="-22" on="1"/>
        <pt x="398" y="-22" on="0"/>
        <pt x="216" y="60" on="1"/>
        <pt x="125" y="100" on="0"/>
        <pt x="22" y="238" on="0"/>
        <pt x="22" y="418" on="0"/>
        <pt x="132" y="557" on="0"/>
        <pt x="222" y="596" on="1"/>
        <pt x="404" y="674" on="0"/>
        <pt x="630" y="674" on="1"/>
        <pt x="785" y="674" on="0"/>
        <pt x="989" y="600" on="1"/>
        <pt x="989" y="650" on="1"/>
        <pt x="1037" y="650" on="1"/>
        <pt x="1037" y="411" on="1"/>
        <pt x="989" y="411" on="1"/>
        <pt x="946" y="492" on="0"/>
        <pt x="735" y="630" on="0"/>
        <pt x="625" y="630" on="1"/>
        <pt x="543" y="630" on="0"/>
        <pt x="474" y="553" on="0"/>
        <pt x="474" y="485" on="1"/>
        <pt x="474" y="211" on="1"/>
        <pt x="474" y="109" on="0"/>
        <pt x="561" y="20" on="0"/>
        <pt x="756" y="20" on="0"/>
        <pt x="907" y="58" on="0"/>
        <pt x="987" y="105" on="0"/>
        <pt x="1051" y="143" on="0"/>
        <pt x="1060" y="143" on="1"/>
        <pt x="1084" y="143" on="0"/>
        <pt x="1084" y="123" on="1"/>
        <pt x="1084" y="95" on="0"/>
        <pt x="980" y="42" on="1"/>
        <pt x="850" y="-22" on="0"/>
      </contour>
      <contour>
        <pt x="266" y="103" on="0"/>
        <pt x="152" y="232" on="0"/>
        <pt x="152" y="416" on="0"/>
        <pt x="266" y="558" on="0"/>
        <pt x="357" y="600" on="1"/>
        <pt x="356" y="605" on="1"/>
        <pt x="234" y="571" on="0"/>
        <pt x="81" y="415" on="0"/>
        <pt x="81" y="233" on="0"/>
        <pt x="233" y="91" on="0"/>
        <pt x="356" y="59" on="1"/>
        <pt x="357" y="64" on="1"/>
      </contour>
    </TTGlyph>
    <TTGlyph name="Ccedilla" xMin="22" yMin="-223" xMax="1084" yMax="674">
      <contour>
        <pt x="315" y="-79" on="1"/>
        <pt x="354" y="-79" on="1"/>
        <pt x="370" y="-118" on="0"/>
        <pt x="453" y="-175" on="0"/>
        <pt x="527" y="-175" on="0"/>
        <pt x="571" y="-140" on="0"/>
        <pt x="571" y="-105" on="1"/>
        <pt x="571" y="-40" on="0"/>
        <pt x="494" y="-13" on="1"/>
        <pt x="285" y="11" on="0"/>
        <pt x="159" y="91" on="1"/>
        <pt x="94" y="132" on="0"/>
        <pt x="22" y="253" on="0"/>
        <pt x="22" y="418" on="0"/>
        <pt x="132" y="557" on="0"/>
        <pt x="222" y="596" on="1"/>
        <pt x="404" y="674" on="0"/>
        <pt x="630" y="674" on="1"/>
        <pt x="785" y="674" on="0"/>
        <pt x="989" y="600" on="1"/>
        <pt x="989" y="650" on="1"/>
        <pt x="1037" y="650" on="1"/>
        <pt x="1037" y="411" on="1"/>
        <pt x="989" y="411" on="1"/>
        <pt x="946" y="492" on="0"/>
        <pt x="735" y="630" on="0"/>
        <pt x="625" y="630" on="1"/>
        <pt x="543" y="630" on="0"/>
        <pt x="474" y="553" on="0"/>
        <pt x="474" y="485" on="1"/>
        <pt x="474" y="211" on="1"/>
        <pt x="474" y="109" on="0"/>
        <pt x="561" y="20" on="0"/>
        <pt x="756" y="20" on="0"/>
        <pt x="907" y="58" on="0"/>
        <pt x="987" y="105" on="0"/>
        <pt x="1051" y="143" on="0"/>
        <pt x="1060" y="143" on="1"/>
        <pt x="1084" y="143" on="0"/>
        <pt x="1084" y="123" on="1"/>
        <pt x="1084" y="95" on="0"/>
        <pt x="857" y="-20" on="0"/>
        <pt x="675" y="-22" on="1"/>
        <pt x="781" y="-63" on="0"/>
        <pt x="781" y="-133" on="1"/>
        <pt x="781" y="-223" on="0"/>
        <pt x="548" y="-223" on="1"/>
        <pt x="409" y="-223" on="0"/>
        <pt x="315" y="-188" on="1"/>
      </contour>
      <contour>
        <pt x="266" y="103" on="0"/>
        <pt x="152" y="232" on="0"/>
        <pt x="152" y="416" on="0"/>
        <pt x="266" y="558" on="0"/>
        <pt x="357" y="600" on="1"/>
        <pt x="356" y="605" on="1"/>
        <pt x="234" y="571" on="0"/>
        <pt x="81" y="415" on="0"/>
        <pt x="81" y="233" on="0"/>
        <pt x="233" y="91" on="0"/>
        <pt x="356" y="59" on="1"/>
        <pt x="357" y="64" on="1"/>
      </contour>
      <contour>
        <pt x="631" y="-107" on="1"/>
        <pt x="631" y="-130" on="0"/>
        <pt x="606" y="-172" on="0"/>
        <pt x="586" y="-182" on="1"/>
        <pt x="589" y="-188" on="1"/>
        <pt x="623" y="-179" on="0"/>
        <pt x="681" y="-134" on="0"/>
        <pt x="681" y="-107" on="1"/>
        <pt x="681" y="-54" on="0"/>
        <pt x="589" y="-24" on="1"/>
        <pt x="585" y="-30" on="1"/>
        <pt x="631" y="-58" on="0"/>
      </contour>
    </TTGlyph>
    <TTGlyph name="D" xMin="70" yMin="0" xMax="1446" yMax="650">
      <contour>
        <pt x="70" y="650" on="1"/>
        <pt x="833" y="650" on="1"/>
        <pt x="1079" y="650" on="0"/>
        <pt x="1253" y="580" on="1"/>
        <pt x="1342" y="545" on="0"/>
        <pt x="1446" y="420" on="0"/>
        <pt x="1446" y="257" on="0"/>
        <pt x="1372" y="133" on="0"/>
        <pt x="1261" y="62" on="0"/>
        <pt x="1188" y="39" on="1"/>
        <pt x="1063" y="0" on="0"/>
        <pt x="925" y="0" on="1"/>
        <pt x="70" y="0" on="1"/>
        <pt x="70" y="43" on="1"/>
        <pt x="190" y="43" on="1"/>
        <pt x="239" y="43" on="0"/>
        <pt x="299" y="95" on="0"/>
        <pt x="299" y="152" on="1"/>
        <pt x="299" y="498" on="1"/>
        <pt x="299" y="542" on="0"/>
        <pt x="235" y="607" on="0"/>
        <pt x="190" y="607" on="1"/>
        <pt x="70" y="607" on="1"/>
      </contour>
      <contour>
        <pt x="431" y="43" on="1"/>
        <pt x="431" y="607" on="1"/>
        <pt x="366" y="607" on="1"/>
        <pt x="366" y="43" on="1"/>
      </contour>
      <contour>
        <pt x="772" y="43" on="1"/>
        <pt x="863" y="43" on="1"/>
        <pt x="922" y="43" on="0"/>
        <pt x="961" y="86" on="1"/>
        <pt x="1030" y="161" on="0"/>
        <pt x="1030" y="324" on="1"/>
        <pt x="1030" y="606" on="0"/>
        <pt x="807" y="606" on="1"/>
        <pt x="752" y="606" on="0"/>
        <pt x="688" y="553" on="0"/>
        <pt x="688" y="508" on="1"/>
        <pt x="688" y="145" on="1"/>
        <pt x="688" y="43" on="0"/>
      </contour>
      <contour>
        <pt x="1200" y="144" on="0"/>
        <pt x="1200" y="504" on="0"/>
        <pt x="1034" y="598" on="1"/>
        <pt x="1032" y="595" on="1"/>
        <pt x="1119" y="477" on="0"/>
        <pt x="1119" y="171" on="0"/>
        <pt x="1032" y="53" on="1"/>
        <pt x="1034" y="50" on="1"/>
      </contour>
    </TTGlyph>
    <TTGlyph name="Delta" xMin="50" yMin="0" xMax="1130" yMax="801">
      <contour>
        <pt x="1130" y="0" on="1"/>
        <pt x="50" y="0" on="1"/>
        <pt x="50" y="43" on="1"/>
        <pt x="416" y="801" on="1"/>
        <pt x="710" y="801" on="1"/>
        <pt x="1130" y="43" on="1"/>
      </contour>
      <contour>
        <pt x="121" y="43" on="1"/>
        <pt x="726" y="43" on="1"/>
        <pt x="404" y="625" on="1"/>
      </contour>
      <contour>
        <pt x="794" y="43" on="1"/>
        <pt x="876" y="43" on="1"/>
        <pt x="553" y="626" on="1"/>
        <pt x="471" y="626" on="1"/>
      </contour>
    </TTGlyph>
    <TTGlyph name="E" xMin="73" yMin="0" xMax="1280" yMax="650">
      <contour>
        <pt x="804" y="605" on="1"/>
        <pt x="752" y="605" on="0"/>
        <pt x="691" y="551" on="0"/>
        <pt x="691" y="508" on="1"/>
        <pt x="691" y="474" on="1"/>
        <pt x="691" y="372" on="0"/>
        <pt x="779" y="372" on="1"/>
        <pt x="847" y="372" on="0"/>
        <pt x="998" y="448" on="0"/>
        <pt x="1022" y="499" on="1"/>
        <pt x="1059" y="499" on="1"/>
        <pt x="1059" y="194" on="1"/>
        <pt x="1022" y="194" on="1"/>
        <pt x="999" y="247" on="0"/>
        <pt x="851" y="312" on="0"/>
        <pt x="779" y="312" on="1"/>
        <pt x="732" y="312" on="0"/>
        <pt x="691" y="260" on="0"/>
        <pt x="691" y="223" on="1"/>
        <pt x="691" y="187" on="1"/>
        <pt x="691" y="110" on="0"/>
        <pt x="722" y="43" on="0"/>
        <pt x="777" y="43" on="1"/>
        <pt x="802" y="43" on="1"/>
        <pt x="858" y="43" on="0"/>
        <pt x="930" y="46" on="0"/>
        <pt x="1042" y="65" on="0"/>
        <pt x="1124" y="98" on="0"/>
        <pt x="1216" y="165" on="0"/>
        <pt x="1251" y="212" on="1"/>
        <pt x="1280" y="212" on="1"/>
        <pt x="1280" y="0" on="1"/>
        <pt x="73" y="0" on="1"/>
        <pt x="73" y="43" on="1"/>
        <pt x="193" y="43" on="1"/>
        <pt x="302" y="43" on="0"/>
        <pt x="302" y="151" on="1"/>
        <pt x="302" y="497" on="1"/>
        <pt x="302" y="542" on="0"/>
        <pt x="238" y="607" on="0"/>
        <pt x="193" y="607" on="1"/>
        <pt x="73" y="607" on="1"/>
        <pt x="73" y="650" on="1"/>
        <pt x="1280" y="650" on="1"/>
        <pt x="1280" y="420" on="1"/>
        <pt x="1251" y="420" on="1"/>
        <pt x="1193" y="498" on="0"/>
        <pt x="973" y="605" on="0"/>
      </contour>
      <contour>
        <pt x="435" y="43" on="1"/>
        <pt x="435" y="607" on="1"/>
        <pt x="369" y="607" on="1"/>
        <pt x="369" y="43" on="1"/>
      </contour>
    </TTGlyph>
    <TTGlyph name="Eacute" xMin="73" yMin="0" xMax="1280" yMax="862">
      <contour>
        <pt x="804" y="605" on="1"/>
        <pt x="752" y="605" on="0"/>
        <pt x="691" y="551" on="0"/>
        <pt x="691" y="508" on="1"/>
        <pt x="691" y="474" on="1"/>
        <pt x="691" y="372" on="0"/>
        <pt x="779" y="372" on="1"/>
        <pt x="847" y="372" on="0"/>
        <pt x="998" y="448" on="0"/>
        <pt x="1022" y="499" on="1"/>
        <pt x="1059" y="499" on="1"/>
        <pt x="1059" y="194" on="1"/>
        <pt x="1022" y="194" on="1"/>
        <pt x="999" y="247" on="0"/>
        <pt x="851" y="312" on="0"/>
        <pt x="779" y="312" on="1"/>
        <pt x="732" y="312" on="0"/>
        <pt x="691" y="260" on="0"/>
        <pt x="691" y="223" on="1"/>
        <pt x="691" y="187" on="1"/>
        <pt x="691" y="110" on="0"/>
        <pt x="722" y="43" on="0"/>
        <pt x="777" y="43" on="1"/>
        <pt x="802" y="43" on="1"/>
        <pt x="858" y="43" on="0"/>
        <pt x="930" y="46" on="0"/>
        <pt x="1042" y="65" on="0"/>
        <pt x="1124" y="98" on="0"/>
        <pt x="1216" y="165" on="0"/>
        <pt x="1251" y="212" on="1"/>
        <pt x="1280" y="212" on="1"/>
        <pt x="1280" y="0" on="1"/>
        <pt x="73" y="0" on="1"/>
        <pt x="73" y="43" on="1"/>
        <pt x="193" y="43" on="1"/>
        <pt x="302" y="43" on="0"/>
        <pt x="302" y="151" on="1"/>
        <pt x="302" y="497" on="1"/>
        <pt x="302" y="542" on="0"/>
        <pt x="238" y="607" on="0"/>
        <pt x="193" y="607" on="1"/>
        <pt x="73" y="607" on="1"/>
        <pt x="73" y="650" on="1"/>
        <pt x="1280" y="650" on="1"/>
        <pt x="1280" y="420" on="1"/>
        <pt x="1251" y="420" on="1"/>
        <pt x="1193" y="498" on="0"/>
        <pt x="973" y="605" on="0"/>
      </contour>
      <contour>
        <pt x="435" y="43" on="1"/>
        <pt x="435" y="607" on="1"/>
        <pt x="369" y="607" on="1"/>
        <pt x="369" y="43" on="1"/>
      </contour>
      <contour>
        <pt x="459" y="716" on="1"/>
        <pt x="405" y="716" on="1"/>
        <pt x="405" y="752" on="1"/>
        <pt x="514" y="752" on="0"/>
        <pt x="623" y="804" on="0"/>
        <pt x="664" y="862" on="1"/>
        <pt x="955" y="862" on="1"/>
        <pt x="952" y="849" on="0"/>
        <pt x="928" y="807" on="0"/>
        <pt x="898" y="775" on="0"/>
        <pt x="842" y="742" on="0"/>
        <pt x="807" y="734" on="1"/>
        <pt x="729" y="716" on="0"/>
      </contour>
      <contour>
        <pt x="603" y="759" on="1"/>
        <pt x="603" y="755" on="1"/>
        <pt x="718" y="761" on="0"/>
        <pt x="768" y="834" on="1"/>
        <pt x="704" y="834" on="1"/>
        <pt x="692" y="809" on="0"/>
        <pt x="631" y="768" on="0"/>
      </contour>
    </TTGlyph>
    <TTGlyph name="Ecircumflex" xMin="73" yMin="0" xMax="1280" yMax="862">
      <contour>
        <pt x="804" y="605" on="1"/>
        <pt x="752" y="605" on="0"/>
        <pt x="691" y="551" on="0"/>
        <pt x="691" y="508" on="1"/>
        <pt x="691" y="474" on="1"/>
        <pt x="691" y="372" on="0"/>
        <pt x="779" y="372" on="1"/>
        <pt x="847" y="372" on="0"/>
        <pt x="998" y="448" on="0"/>
        <pt x="1022" y="499" on="1"/>
        <pt x="1059" y="499" on="1"/>
        <pt x="1059" y="194" on="1"/>
        <pt x="1022" y="194" on="1"/>
        <pt x="999" y="247" on="0"/>
        <pt x="851" y="312" on="0"/>
        <pt x="779" y="312" on="1"/>
        <pt x="732" y="312" on="0"/>
        <pt x="691" y="260" on="0"/>
        <pt x="691" y="223" on="1"/>
        <pt x="691" y="187" on="1"/>
        <pt x="691" y="110" on="0"/>
        <pt x="722" y="43" on="0"/>
        <pt x="777" y="43" on="1"/>
        <pt x="802" y="43" on="1"/>
        <pt x="858" y="43" on="0"/>
        <pt x="930" y="46" on="0"/>
        <pt x="1042" y="65" on="0"/>
        <pt x="1124" y="98" on="0"/>
        <pt x="1216" y="165" on="0"/>
        <pt x="1251" y="212" on="1"/>
        <pt x="1280" y="212" on="1"/>
        <pt x="1280" y="0" on="1"/>
        <pt x="73" y="0" on="1"/>
        <pt x="73" y="43" on="1"/>
        <pt x="193" y="43" on="1"/>
        <pt x="302" y="43" on="0"/>
        <pt x="302" y="151" on="1"/>
        <pt x="302" y="497" on="1"/>
        <pt x="302" y="542" on="0"/>
        <pt x="238" y="607" on="0"/>
        <pt x="193" y="607" on="1"/>
        <pt x="73" y="607" on="1"/>
        <pt x="73" y="650" on="1"/>
        <pt x="1280" y="650" on="1"/>
        <pt x="1280" y="420" on="1"/>
        <pt x="1251" y="420" on="1"/>
        <pt x="1193" y="498" on="0"/>
        <pt x="973" y="605" on="0"/>
      </contour>
      <contour>
        <pt x="435" y="43" on="1"/>
        <pt x="435" y="607" on="1"/>
        <pt x="369" y="607" on="1"/>
        <pt x="369" y="43" on="1"/>
      </contour>
      <contour>
        <pt x="604" y="862" on="1"/>
        <pt x="928" y="862" on="1"/>
        <pt x="1061" y="716" on="1"/>
        <pt x="974" y="716" on="1"/>
        <pt x="871" y="828" on="1"/>
        <pt x="767" y="716" on="1"/>
        <pt x="470" y="716" on="1"/>
      </contour>
      <contour>
        <pt x="718" y="837" on="1"/>
        <pt x="656" y="837" on="1"/>
        <pt x="581" y="754" on="1"/>
        <pt x="643" y="754" on="1"/>
      </contour>
    </TTGlyph>
    <TTGlyph name="Edieresis" xMin="73" yMin="0" xMax="1280" yMax="913">
      <contour>
        <pt x="804" y="605" on="1"/>
        <pt x="752" y="605" on="0"/>
        <pt x="691" y="551" on="0"/>
        <pt x="691" y="508" on="1"/>
        <pt x="691" y="474" on="1"/>
        <pt x="691" y="372" on="0"/>
        <pt x="779" y="372" on="1"/>
        <pt x="847" y="372" on="0"/>
        <pt x="998" y="448" on="0"/>
        <pt x="1022" y="499" on="1"/>
        <pt x="1059" y="499" on="1"/>
        <pt x="1059" y="194" on="1"/>
        <pt x="1022" y="194" on="1"/>
        <pt x="999" y="247" on="0"/>
        <pt x="851" y="312" on="0"/>
        <pt x="779" y="312" on="1"/>
        <pt x="732" y="312" on="0"/>
        <pt x="691" y="260" on="0"/>
        <pt x="691" y="223" on="1"/>
        <pt x="691" y="187" on="1"/>
        <pt x="691" y="110" on="0"/>
        <pt x="722" y="43" on="0"/>
        <pt x="777" y="43" on="1"/>
        <pt x="802" y="43" on="1"/>
        <pt x="858" y="43" on="0"/>
        <pt x="930" y="46" on="0"/>
        <pt x="1042" y="65" on="0"/>
        <pt x="1124" y="98" on="0"/>
        <pt x="1216" y="165" on="0"/>
        <pt x="1251" y="212" on="1"/>
        <pt x="1280" y="212" on="1"/>
        <pt x="1280" y="0" on="1"/>
        <pt x="73" y="0" on="1"/>
        <pt x="73" y="43" on="1"/>
        <pt x="193" y="43" on="1"/>
        <pt x="302" y="43" on="0"/>
        <pt x="302" y="151" on="1"/>
        <pt x="302" y="497" on="1"/>
        <pt x="302" y="542" on="0"/>
        <pt x="238" y="607" on="0"/>
        <pt x="193" y="607" on="1"/>
        <pt x="73" y="607" on="1"/>
        <pt x="73" y="650" on="1"/>
        <pt x="1280" y="650" on="1"/>
        <pt x="1280" y="420" on="1"/>
        <pt x="1251" y="420" on="1"/>
        <pt x="1193" y="498" on="0"/>
        <pt x="973" y="605" on="0"/>
      </contour>
      <contour>
        <pt x="435" y="43" on="1"/>
        <pt x="435" y="607" on="1"/>
        <pt x="369" y="607" on="1"/>
        <pt x="369" y="43" on="1"/>
      </contour>
      <contour>
        <pt x="1115" y="845" on="0"/>
        <pt x="1115" y="751" on="0"/>
        <pt x="1035" y="685" on="0"/>
        <pt x="921" y="685" on="0"/>
        <pt x="841" y="751" on="0"/>
        <pt x="841" y="845" on="0"/>
        <pt x="921" y="913" on="0"/>
        <pt x="1035" y="913" on="0"/>
      </contour>
      <contour>
        <pt x="659" y="845" on="0"/>
        <pt x="659" y="751" on="0"/>
        <pt x="579" y="685" on="0"/>
        <pt x="465" y="685" on="0"/>
        <pt x="385" y="751" on="0"/>
        <pt x="385" y="845" on="0"/>
        <pt x="465" y="913" on="0"/>
        <pt x="579" y="913" on="0"/>
      </contour>
      <contour>
        <pt x="463" y="745" on="0"/>
        <pt x="463" y="851" on="0"/>
        <pt x="494" y="885" on="1"/>
        <pt x="491" y="888" on="1"/>
        <pt x="460" y="875" on="0"/>
        <pt x="422" y="826" on="0"/>
        <pt x="422" y="770" on="0"/>
        <pt x="460" y="721" on="0"/>
        <pt x="491" y="708" on="1"/>
        <pt x="494" y="711" on="1"/>
      </contour>
      <contour>
        <pt x="919" y="745" on="0"/>
        <pt x="919" y="851" on="0"/>
        <pt x="950" y="885" on="1"/>
        <pt x="947" y="888" on="1"/>
        <pt x="916" y="875" on="0"/>
        <pt x="878" y="826" on="0"/>
        <pt x="878" y="770" on="0"/>
        <pt x="916" y="721" on="0"/>
        <pt x="947" y="708" on="1"/>
        <pt x="950" y="711" on="1"/>
      </contour>
    </TTGlyph>
    <TTGlyph name="Egrave" xMin="73" yMin="0" xMax="1280" yMax="862">
      <contour>
        <pt x="804" y="605" on="1"/>
        <pt x="752" y="605" on="0"/>
        <pt x="691" y="551" on="0"/>
        <pt x="691" y="508" on="1"/>
        <pt x="691" y="474" on="1"/>
        <pt x="691" y="372" on="0"/>
        <pt x="779" y="372" on="1"/>
        <pt x="847" y="372" on="0"/>
        <pt x="998" y="448" on="0"/>
        <pt x="1022" y="499" on="1"/>
        <pt x="1059" y="499" on="1"/>
        <pt x="1059" y="194" on="1"/>
        <pt x="1022" y="194" on="1"/>
        <pt x="999" y="247" on="0"/>
        <pt x="851" y="312" on="0"/>
        <pt x="779" y="312" on="1"/>
        <pt x="732" y="312" on="0"/>
        <pt x="691" y="260" on="0"/>
        <pt x="691" y="223" on="1"/>
        <pt x="691" y="187" on="1"/>
        <pt x="691" y="110" on="0"/>
        <pt x="722" y="43" on="0"/>
        <pt x="777" y="43" on="1"/>
        <pt x="802" y="43" on="1"/>
        <pt x="858" y="43" on="0"/>
        <pt x="930" y="46" on="0"/>
        <pt x="1042" y="65" on="0"/>
        <pt x="1124" y="98" on="0"/>
        <pt x="1216" y="165" on="0"/>
        <pt x="1251" y="212" on="1"/>
        <pt x="1280" y="212" on="1"/>
        <pt x="1280" y="0" on="1"/>
        <pt x="73" y="0" on="1"/>
        <pt x="73" y="43" on="1"/>
        <pt x="193" y="43" on="1"/>
        <pt x="302" y="43" on="0"/>
        <pt x="302" y="151" on="1"/>
        <pt x="302" y="497" on="1"/>
        <pt x="302" y="542" on="0"/>
        <pt x="238" y="607" on="0"/>
        <pt x="193" y="607" on="1"/>
        <pt x="73" y="607" on="1"/>
        <pt x="73" y="650" on="1"/>
        <pt x="1280" y="650" on="1"/>
        <pt x="1280" y="420" on="1"/>
        <pt x="1251" y="420" on="1"/>
        <pt x="1193" y="498" on="0"/>
        <pt x="973" y="605" on="0"/>
      </contour>
      <contour>
        <pt x="435" y="43" on="1"/>
        <pt x="435" y="607" on="1"/>
        <pt x="369" y="607" on="1"/>
        <pt x="369" y="43" on="1"/>
      </contour>
      <contour>
        <pt x="955" y="752" on="1"/>
        <pt x="955" y="716" on="1"/>
        <pt x="901" y="716" on="1"/>
        <pt x="631" y="716" on="0"/>
        <pt x="553" y="734" on="1"/>
        <pt x="482" y="750" on="0"/>
        <pt x="447" y="792" on="1"/>
        <pt x="414" y="830" on="0"/>
        <pt x="408" y="852" on="1"/>
        <pt x="405" y="862" on="1"/>
        <pt x="696" y="862" on="1"/>
        <pt x="737" y="804" on="0"/>
        <pt x="846" y="752" on="0"/>
      </contour>
      <contour>
        <pt x="643" y="755" on="1"/>
        <pt x="643" y="759" on="1"/>
        <pt x="615" y="768" on="0"/>
        <pt x="554" y="809" on="0"/>
        <pt x="542" y="834" on="1"/>
        <pt x="478" y="834" on="1"/>
        <pt x="528" y="761" on="0"/>
      </contour>
    </TTGlyph>
    <TTGlyph name="Eth" xMin="70" yMin="0" xMax="1446" yMax="650">
      <contour>
        <pt x="70" y="650" on="1"/>
        <pt x="833" y="650" on="1"/>
        <pt x="1079" y="650" on="0"/>
        <pt x="1253" y="580" on="1"/>
        <pt x="1342" y="545" on="0"/>
        <pt x="1446" y="420" on="0"/>
        <pt x="1446" y="257" on="0"/>
        <pt x="1372" y="133" on="0"/>
        <pt x="1261" y="62" on="0"/>
        <pt x="1188" y="39" on="1"/>
        <pt x="1063" y="0" on="0"/>
        <pt x="925" y="0" on="1"/>
        <pt x="70" y="0" on="1"/>
        <pt x="70" y="43" on="1"/>
        <pt x="190" y="43" on="1"/>
        <pt x="239" y="43" on="0"/>
        <pt x="299" y="95" on="0"/>
        <pt x="299" y="152" on="1"/>
        <pt x="299" y="285" on="1"/>
        <pt x="148" y="285" on="1"/>
        <pt x="148" y="365" on="1"/>
        <pt x="299" y="365" on="1"/>
        <pt x="299" y="498" on="1"/>
        <pt x="299" y="542" on="0"/>
        <pt x="235" y="607" on="0"/>
        <pt x="190" y="607" on="1"/>
        <pt x="70" y="607" on="1"/>
      </contour>
      <contour>
        <pt x="772" y="43" on="1"/>
        <pt x="863" y="43" on="1"/>
        <pt x="922" y="43" on="0"/>
        <pt x="961" y="86" on="1"/>
        <pt x="1030" y="161" on="0"/>
        <pt x="1030" y="324" on="1"/>
        <pt x="1030" y="606" on="0"/>
        <pt x="807" y="606" on="1"/>
        <pt x="752" y="606" on="0"/>
        <pt x="688" y="553" on="0"/>
        <pt x="688" y="508" on="1"/>
        <pt x="688" y="365" on="1"/>
        <pt x="876" y="365" on="1"/>
        <pt x="876" y="285" on="1"/>
        <pt x="688" y="285" on="1"/>
        <pt x="688" y="145" on="1"/>
        <pt x="688" y="43" on="0"/>
      </contour>
      <contour>
        <pt x="431" y="43" on="1"/>
        <pt x="431" y="607" on="1"/>
        <pt x="366" y="607" on="1"/>
        <pt x="366" y="43" on="1"/>
      </contour>
      <contour>
        <pt x="1200" y="144" on="0"/>
        <pt x="1200" y="504" on="0"/>
        <pt x="1034" y="598" on="1"/>
        <pt x="1032" y="595" on="1"/>
        <pt x="1119" y="477" on="0"/>
        <pt x="1119" y="171" on="0"/>
        <pt x="1032" y="53" on="1"/>
        <pt x="1034" y="50" on="1"/>
      </contour>
    </TTGlyph>
    <TTGlyph name="Euro" xMin="0" yMin="-22" xMax="1160" yMax="670">
      <contour>
        <pt x="874" y="240" on="1"/>
        <pt x="550" y="240" on="1"/>
        <pt x="550" y="211" on="1"/>
        <pt x="550" y="109" on="0"/>
        <pt x="637" y="20" on="0"/>
        <pt x="832" y="20" on="0"/>
        <pt x="983" y="58" on="0"/>
        <pt x="1063" y="105" on="0"/>
        <pt x="1127" y="143" on="0"/>
        <pt x="1136" y="143" on="1"/>
        <pt x="1160" y="143" on="0"/>
        <pt x="1160" y="123" on="1"/>
        <pt x="1160" y="95" on="0"/>
        <pt x="1056" y="42" on="1"/>
        <pt x="926" y="-22" on="0"/>
        <pt x="586" y="-22" on="0"/>
        <pt x="332" y="30" on="0"/>
        <pt x="142" y="151" on="0"/>
        <pt x="112" y="240" on="1"/>
        <pt x="0" y="240" on="1"/>
        <pt x="0" y="290" on="1"/>
        <pt x="100" y="290" on="1"/>
        <pt x="98" y="314" on="0"/>
        <pt x="98" y="348" on="0"/>
        <pt x="101" y="368" on="1"/>
        <pt x="0" y="368" on="1"/>
        <pt x="0" y="418" on="1"/>
        <pt x="114" y="418" on="1"/>
        <pt x="139" y="484" on="0"/>
        <pt x="262" y="584" on="0"/>
        <pt x="346" y="613" on="1"/>
        <pt x="510" y="670" on="0"/>
        <pt x="706" y="670" on="1"/>
        <pt x="861" y="670" on="0"/>
        <pt x="1065" y="596" on="1"/>
        <pt x="1065" y="646" on="1"/>
        <pt x="1113" y="646" on="1"/>
        <pt x="1113" y="407" on="1"/>
        <pt x="1065" y="407" on="1"/>
        <pt x="1022" y="488" on="0"/>
        <pt x="811" y="626" on="0"/>
        <pt x="701" y="626" on="1"/>
        <pt x="619" y="626" on="0"/>
        <pt x="550" y="549" on="0"/>
        <pt x="550" y="481" on="1"/>
        <pt x="550" y="418" on="1"/>
        <pt x="874" y="418" on="1"/>
        <pt x="874" y="368" on="1"/>
        <pt x="550" y="368" on="1"/>
        <pt x="550" y="290" on="1"/>
        <pt x="874" y="290" on="1"/>
      </contour>
      <contour>
        <pt x="342" y="103" on="0"/>
        <pt x="228" y="232" on="0"/>
        <pt x="228" y="416" on="0"/>
        <pt x="342" y="558" on="0"/>
        <pt x="433" y="600" on="1"/>
        <pt x="432" y="605" on="1"/>
        <pt x="310" y="571" on="0"/>
        <pt x="157" y="415" on="0"/>
        <pt x="157" y="233" on="0"/>
        <pt x="309" y="91" on="0"/>
        <pt x="432" y="59" on="1"/>
        <pt x="433" y="64" on="1"/>
      </contour>
    </TTGlyph>
    <TTGlyph name="F" xMin="73" yMin="0" xMax="1208" yMax="650">
      <contour>
        <pt x="910" y="43" on="1"/>
        <pt x="910" y="0" on="1"/>
        <pt x="73" y="0" on="1"/>
        <pt x="73" y="43" on="1"/>
        <pt x="193" y="43" on="1"/>
        <pt x="242" y="43" on="0"/>
        <pt x="301" y="95" on="0"/>
        <pt x="301" y="152" on="1"/>
        <pt x="301" y="497" on="1"/>
        <pt x="301" y="542" on="0"/>
        <pt x="238" y="607" on="0"/>
        <pt x="193" y="607" on="1"/>
        <pt x="73" y="607" on="1"/>
        <pt x="73" y="650" on="1"/>
        <pt x="1208" y="650" on="1"/>
        <pt x="1208" y="463" on="1"/>
        <pt x="1180" y="463" on="1"/>
        <pt x="1153" y="492" on="0"/>
        <pt x="1127" y="516" on="0"/>
        <pt x="1058" y="564" on="0"/>
        <pt x="1024" y="576" on="1"/>
        <pt x="934" y="606" on="0"/>
        <pt x="804" y="606" on="1"/>
        <pt x="752" y="606" on="0"/>
        <pt x="692" y="552" on="0"/>
        <pt x="692" y="508" on="1"/>
        <pt x="692" y="474" on="1"/>
        <pt x="692" y="372" on="0"/>
        <pt x="779" y="372" on="1"/>
        <pt x="840" y="372" on="0"/>
        <pt x="934" y="423" on="0"/>
        <pt x="961" y="463" on="1"/>
        <pt x="998" y="463" on="1"/>
        <pt x="998" y="213" on="1"/>
        <pt x="961" y="213" on="1"/>
        <pt x="937" y="268" on="0"/>
        <pt x="848" y="313" on="0"/>
        <pt x="779" y="313" on="1"/>
        <pt x="732" y="313" on="0"/>
        <pt x="692" y="261" on="0"/>
        <pt x="692" y="223" on="1"/>
        <pt x="692" y="147" on="1"/>
        <pt x="692" y="81" on="0"/>
        <pt x="742" y="43" on="0"/>
        <pt x="810" y="43" on="1"/>
      </contour>
      <contour>
        <pt x="434" y="43" on="1"/>
        <pt x="434" y="607" on="1"/>
        <pt x="369" y="607" on="1"/>
        <pt x="369" y="43" on="1"/>
      </contour>
    </TTGlyph>
    <TTGlyph name="G" xMin="22" yMin="-23" xMax="1403" yMax="674">
      <contour>
        <pt x="603" y="391" on="1"/>
        <pt x="1403" y="391" on="1"/>
        <pt x="1403" y="348" on="1"/>
        <pt x="1213" y="348" on="1"/>
        <pt x="1213" y="0" on="1"/>
        <pt x="1165" y="0" on="1"/>
        <pt x="1165" y="28" on="0"/>
        <pt x="1128" y="63" on="0"/>
        <pt x="1071" y="63" on="0"/>
        <pt x="989" y="36" on="0"/>
        <pt x="902" y="4" on="0"/>
        <pt x="750" y="-23" on="0"/>
        <pt x="555" y="-23" on="0"/>
        <pt x="365" y="1" on="0"/>
        <pt x="202" y="54" on="0"/>
        <pt x="87" y="135" on="0"/>
        <pt x="22" y="254" on="0"/>
        <pt x="22" y="328" on="1"/>
        <pt x="22" y="674" on="0"/>
        <pt x="630" y="674" on="1"/>
        <pt x="855" y="674" on="0"/>
        <pt x="1079" y="607" on="1"/>
        <pt x="1079" y="650" on="1"/>
        <pt x="1127" y="650" on="1"/>
        <pt x="1127" y="439" on="1"/>
        <pt x="1079" y="439" on="1"/>
        <pt x="1031" y="513" on="0"/>
        <pt x="808" y="629" on="0"/>
        <pt x="684" y="629" on="1"/>
        <pt x="590" y="629" on="0"/>
        <pt x="474" y="557" on="0"/>
        <pt x="474" y="482" on="1"/>
        <pt x="474" y="203" on="1"/>
        <pt x="474" y="21" on="0"/>
        <pt x="669" y="21" on="1"/>
        <pt x="725" y="21" on="0"/>
        <pt x="773" y="48" on="1"/>
        <pt x="800" y="64" on="0"/>
        <pt x="832" y="129" on="0"/>
        <pt x="832" y="175" on="1"/>
        <pt x="832" y="247" on="1"/>
        <pt x="832" y="289" on="0"/>
        <pt x="762" y="348" on="0"/>
        <pt x="718" y="348" on="1"/>
        <pt x="603" y="348" on="1"/>
      </contour>
      <contour>
        <pt x="237" y="109" on="0"/>
        <pt x="159" y="250" on="0"/>
        <pt x="159" y="419" on="0"/>
        <pt x="237" y="559" on="0"/>
        <pt x="301" y="596" on="1"/>
        <pt x="299" y="601" on="1"/>
        <pt x="204" y="570" on="0"/>
        <pt x="85" y="425" on="0"/>
        <pt x="85" y="245" on="0"/>
        <pt x="205" y="98" on="0"/>
        <pt x="300" y="67" on="1"/>
        <pt x="301" y="71" on="1"/>
      </contour>
      <contour>
        <pt x="964" y="215" on="1"/>
        <pt x="964" y="346" on="1"/>
        <pt x="899" y="346" on="1"/>
        <pt x="899" y="149" on="1"/>
        <pt x="899" y="71" on="0"/>
        <pt x="914" y="71" on="1"/>
        <pt x="932" y="71" on="0"/>
        <pt x="964" y="158" on="0"/>
      </contour>
    </TTGlyph>
    <TTGlyph name="H" xMin="73" yMin="0" xMax="1632" yMax="650">
      <contour>
        <pt x="1402" y="497" on="1"/>
        <pt x="1402" y="151" on="1"/>
        <pt x="1402" y="95" on="0"/>
        <pt x="1462" y="43" on="0"/>
        <pt x="1511" y="43" on="1"/>
        <pt x="1632" y="43" on="1"/>
        <pt x="1632" y="0" on="1"/>
        <pt x="877" y="0" on="1"/>
        <pt x="877" y="43" on="1"/>
        <pt x="972" y="43" on="0"/>
        <pt x="994" y="71" on="1"/>
        <pt x="1006" y="86" on="0"/>
        <pt x="1012" y="113" on="0"/>
        <pt x="1012" y="139" on="1"/>
        <pt x="1012" y="274" on="1"/>
        <pt x="1012" y="318" on="0"/>
        <pt x="970" y="318" on="1"/>
        <pt x="734" y="318" on="1"/>
        <pt x="692" y="318" on="0"/>
        <pt x="692" y="274" on="1"/>
        <pt x="692" y="136" on="1"/>
        <pt x="692" y="110" on="0"/>
        <pt x="698" y="84" on="0"/>
        <pt x="710" y="70" on="1"/>
        <pt x="732" y="43" on="0"/>
        <pt x="827" y="43" on="1"/>
        <pt x="827" y="0" on="1"/>
        <pt x="73" y="0" on="1"/>
        <pt x="73" y="43" on="1"/>
        <pt x="193" y="43" on="1"/>
        <pt x="242" y="43" on="0"/>
        <pt x="301" y="94" on="0"/>
        <pt x="301" y="151" on="1"/>
        <pt x="301" y="497" on="1"/>
        <pt x="301" y="542" on="0"/>
        <pt x="238" y="607" on="0"/>
        <pt x="193" y="607" on="1"/>
        <pt x="73" y="607" on="1"/>
        <pt x="73" y="650" on="1"/>
        <pt x="827" y="650" on="1"/>
        <pt x="827" y="607" on="1"/>
        <pt x="750" y="607" on="0"/>
        <pt x="692" y="556" on="0"/>
        <pt x="692" y="508" on="1"/>
        <pt x="692" y="371" on="1"/>
        <pt x="1012" y="371" on="1"/>
        <pt x="1012" y="508" on="1"/>
        <pt x="1012" y="556" on="0"/>
        <pt x="954" y="607" on="0"/>
        <pt x="877" y="607" on="1"/>
        <pt x="877" y="650" on="1"/>
        <pt x="1632" y="650" on="1"/>
        <pt x="1632" y="607" on="1"/>
        <pt x="1511" y="607" on="1"/>
        <pt x="1467" y="607" on="0"/>
        <pt x="1402" y="541" on="0"/>
      </contour>
      <contour>
        <pt x="434" y="43" on="1"/>
        <pt x="434" y="607" on="1"/>
        <pt x="369" y="607" on="1"/>
        <pt x="369" y="43" on="1"/>
      </contour>
      <contour>
        <pt x="1146" y="43" on="1"/>
        <pt x="1146" y="607" on="1"/>
        <pt x="1081" y="607" on="1"/>
        <pt x="1081" y="43" on="1"/>
      </contour>
    </TTGlyph>
    <TTGlyph name="I" xMin="73" yMin="0" xMax="924" yMax="650">
      <contour>
        <pt x="694" y="497" on="1"/>
        <pt x="694" y="151" on="1"/>
        <pt x="694" y="95" on="0"/>
        <pt x="754" y="43" on="0"/>
        <pt x="803" y="43" on="1"/>
        <pt x="924" y="43" on="1"/>
        <pt x="924" y="0" on="1"/>
        <pt x="73" y="0" on="1"/>
        <pt x="73" y="43" on="1"/>
        <pt x="195" y="43" on="1"/>
        <pt x="244" y="43" on="0"/>
        <pt x="304" y="95" on="0"/>
        <pt x="304" y="151" on="1"/>
        <pt x="304" y="497" on="1"/>
        <pt x="304" y="542" on="0"/>
        <pt x="240" y="607" on="0"/>
        <pt x="195" y="607" on="1"/>
        <pt x="73" y="607" on="1"/>
        <pt x="73" y="650" on="1"/>
        <pt x="924" y="650" on="1"/>
        <pt x="924" y="607" on="1"/>
        <pt x="803" y="607" on="1"/>
        <pt x="758" y="607" on="0"/>
        <pt x="694" y="542" on="0"/>
      </contour>
      <contour>
        <pt x="436" y="43" on="1"/>
        <pt x="436" y="607" on="1"/>
        <pt x="371" y="607" on="1"/>
        <pt x="371" y="43" on="1"/>
      </contour>
    </TTGlyph>
    <TTGlyph name="Iacute" xMin="73" yMin="0" xMax="924" yMax="862">
      <contour>
        <pt x="694" y="497" on="1"/>
        <pt x="694" y="151" on="1"/>
        <pt x="694" y="95" on="0"/>
        <pt x="754" y="43" on="0"/>
        <pt x="803" y="43" on="1"/>
        <pt x="924" y="43" on="1"/>
        <pt x="924" y="0" on="1"/>
        <pt x="73" y="0" on="1"/>
        <pt x="73" y="43" on="1"/>
        <pt x="195" y="43" on="1"/>
        <pt x="244" y="43" on="0"/>
        <pt x="304" y="95" on="0"/>
        <pt x="304" y="151" on="1"/>
        <pt x="304" y="497" on="1"/>
        <pt x="304" y="542" on="0"/>
        <pt x="240" y="607" on="0"/>
        <pt x="195" y="607" on="1"/>
        <pt x="73" y="607" on="1"/>
        <pt x="73" y="650" on="1"/>
        <pt x="924" y="650" on="1"/>
        <pt x="924" y="607" on="1"/>
        <pt x="803" y="607" on="1"/>
        <pt x="758" y="607" on="0"/>
        <pt x="694" y="542" on="0"/>
      </contour>
      <contour>
        <pt x="436" y="43" on="1"/>
        <pt x="436" y="607" on="1"/>
        <pt x="371" y="607" on="1"/>
        <pt x="371" y="43" on="1"/>
      </contour>
      <contour>
        <pt x="280" y="716" on="1"/>
        <pt x="226" y="716" on="1"/>
        <pt x="226" y="752" on="1"/>
        <pt x="335" y="752" on="0"/>
        <pt x="444" y="804" on="0"/>
        <pt x="485" y="862" on="1"/>
        <pt x="776" y="862" on="1"/>
        <pt x="773" y="849" on="0"/>
        <pt x="749" y="807" on="0"/>
        <pt x="719" y="775" on="0"/>
        <pt x="663" y="742" on="0"/>
        <pt x="628" y="734" on="1"/>
        <pt x="550" y="716" on="0"/>
      </contour>
      <contour>
        <pt x="424" y="759" on="1"/>
        <pt x="424" y="755" on="1"/>
        <pt x="539" y="761" on="0"/>
        <pt x="589" y="834" on="1"/>
        <pt x="525" y="834" on="1"/>
        <pt x="513" y="809" on="0"/>
        <pt x="452" y="768" on="0"/>
      </contour>
    </TTGlyph>
    <TTGlyph name="Icircumflex" xMin="73" yMin="0" xMax="924" yMax="862">
      <contour>
        <pt x="694" y="497" on="1"/>
        <pt x="694" y="151" on="1"/>
        <pt x="694" y="95" on="0"/>
        <pt x="754" y="43" on="0"/>
        <pt x="803" y="43" on="1"/>
        <pt x="924" y="43" on="1"/>
        <pt x="924" y="0" on="1"/>
        <pt x="73" y="0" on="1"/>
        <pt x="73" y="43" on="1"/>
        <pt x="195" y="43" on="1"/>
        <pt x="244" y="43" on="0"/>
        <pt x="304" y="95" on="0"/>
        <pt x="304" y="151" on="1"/>
        <pt x="304" y="497" on="1"/>
        <pt x="304" y="542" on="0"/>
        <pt x="240" y="607" on="0"/>
        <pt x="195" y="607" on="1"/>
        <pt x="73" y="607" on="1"/>
        <pt x="73" y="650" on="1"/>
        <pt x="924" y="650" on="1"/>
        <pt x="924" y="607" on="1"/>
        <pt x="803" y="607" on="1"/>
        <pt x="758" y="607" on="0"/>
        <pt x="694" y="542" on="0"/>
      </contour>
      <contour>
        <pt x="436" y="43" on="1"/>
        <pt x="436" y="607" on="1"/>
        <pt x="371" y="607" on="1"/>
        <pt x="371" y="43" on="1"/>
      </contour>
      <contour>
        <pt x="340" y="862" on="1"/>
        <pt x="664" y="862" on="1"/>
        <pt x="797" y="716" on="1"/>
        <pt x="710" y="716" on="1"/>
        <pt x="607" y="828" on="1"/>
        <pt x="503" y="716" on="1"/>
        <pt x="206" y="716" on="1"/>
      </contour>
      <contour>
        <pt x="454" y="837" on="1"/>
        <pt x="392" y="837" on="1"/>
        <pt x="317" y="754" on="1"/>
        <pt x="379" y="754" on="1"/>
      </contour>
    </TTGlyph>
    <TTGlyph name="Idieresis" xMin="73" yMin="0" xMax="924" yMax="913">
      <contour>
        <pt x="694" y="497" on="1"/>
        <pt x="694" y="151" on="1"/>
        <pt x="694" y="95" on="0"/>
        <pt x="754" y="43" on="0"/>
        <pt x="803" y="43" on="1"/>
        <pt x="924" y="43" on="1"/>
        <pt x="924" y="0" on="1"/>
        <pt x="73" y="0" on="1"/>
        <pt x="73" y="43" on="1"/>
        <pt x="195" y="43" on="1"/>
        <pt x="244" y="43" on="0"/>
        <pt x="304" y="95" on="0"/>
        <pt x="304" y="151" on="1"/>
        <pt x="304" y="497" on="1"/>
        <pt x="304" y="542" on="0"/>
        <pt x="240" y="607" on="0"/>
        <pt x="195" y="607" on="1"/>
        <pt x="73" y="607" on="1"/>
        <pt x="73" y="650" on="1"/>
        <pt x="924" y="650" on="1"/>
        <pt x="924" y="607" on="1"/>
        <pt x="803" y="607" on="1"/>
        <pt x="758" y="607" on="0"/>
        <pt x="694" y="542" on="0"/>
      </contour>
      <contour>
        <pt x="436" y="43" on="1"/>
        <pt x="436" y="607" on="1"/>
        <pt x="371" y="607" on="1"/>
        <pt x="371" y="43" on="1"/>
      </contour>
      <contour>
        <pt x="866" y="845" on="0"/>
        <pt x="866" y="751" on="0"/>
        <pt x="786" y="685" on="0"/>
        <pt x="672" y="685" on="0"/>
        <pt x="592" y="751" on="0"/>
        <pt x="592" y="845" on="0"/>
        <pt x="672" y="913" on="0"/>
        <pt x="786" y="913" on="0"/>
      </contour>
      <contour>
        <pt x="410" y="845" on="0"/>
        <pt x="410" y="751" on="0"/>
        <pt x="330" y="685" on="0"/>
        <pt x="216" y="685" on="0"/>
        <pt x="136" y="751" on="0"/>
        <pt x="136" y="845" on="0"/>
        <pt x="216" y="913" on="0"/>
        <pt x="330" y="913" on="0"/>
      </contour>
      <contour>
        <pt x="214" y="745" on="0"/>
        <pt x="214" y="851" on="0"/>
        <pt x="245" y="885" on="1"/>
        <pt x="242" y="888" on="1"/>
        <pt x="211" y="875" on="0"/>
        <pt x="173" y="826" on="0"/>
        <pt x="173" y="770" on="0"/>
        <pt x="211" y="721" on="0"/>
        <pt x="242" y="708" on="1"/>
        <pt x="245" y="711" on="1"/>
      </contour>
      <contour>
        <pt x="670" y="745" on="0"/>
        <pt x="670" y="851" on="0"/>
        <pt x="701" y="885" on="1"/>
        <pt x="698" y="888" on="1"/>
        <pt x="667" y="875" on="0"/>
        <pt x="629" y="826" on="0"/>
        <pt x="629" y="770" on="0"/>
        <pt x="667" y="721" on="0"/>
        <pt x="698" y="708" on="1"/>
        <pt x="701" y="711" on="1"/>
      </contour>
    </TTGlyph>
    <TTGlyph name="Igrave" xMin="73" yMin="0" xMax="924" yMax="862">
      <contour>
        <pt x="694" y="497" on="1"/>
        <pt x="694" y="151" on="1"/>
        <pt x="694" y="95" on="0"/>
        <pt x="754" y="43" on="0"/>
        <pt x="803" y="43" on="1"/>
        <pt x="924" y="43" on="1"/>
        <pt x="924" y="0" on="1"/>
        <pt x="73" y="0" on="1"/>
        <pt x="73" y="43" on="1"/>
        <pt x="195" y="43" on="1"/>
        <pt x="244" y="43" on="0"/>
        <pt x="304" y="95" on="0"/>
        <pt x="304" y="151" on="1"/>
        <pt x="304" y="497" on="1"/>
        <pt x="304" y="542" on="0"/>
        <pt x="240" y="607" on="0"/>
        <pt x="195" y="607" on="1"/>
        <pt x="73" y="607" on="1"/>
        <pt x="73" y="650" on="1"/>
        <pt x="924" y="650" on="1"/>
        <pt x="924" y="607" on="1"/>
        <pt x="803" y="607" on="1"/>
        <pt x="758" y="607" on="0"/>
        <pt x="694" y="542" on="0"/>
      </contour>
      <contour>
        <pt x="436" y="43" on="1"/>
        <pt x="436" y="607" on="1"/>
        <pt x="371" y="607" on="1"/>
        <pt x="371" y="43" on="1"/>
      </contour>
      <contour>
        <pt x="776" y="752" on="1"/>
        <pt x="776" y="716" on="1"/>
        <pt x="722" y="716" on="1"/>
        <pt x="452" y="716" on="0"/>
        <pt x="374" y="734" on="1"/>
        <pt x="303" y="750" on="0"/>
        <pt x="268" y="792" on="1"/>
        <pt x="235" y="830" on="0"/>
        <pt x="229" y="852" on="1"/>
        <pt x="226" y="862" on="1"/>
        <pt x="517" y="862" on="1"/>
        <pt x="558" y="804" on="0"/>
        <pt x="667" y="752" on="0"/>
      </contour>
      <contour>
        <pt x="464" y="755" on="1"/>
        <pt x="464" y="759" on="1"/>
        <pt x="436" y="768" on="0"/>
        <pt x="375" y="809" on="0"/>
        <pt x="363" y="834" on="1"/>
        <pt x="299" y="834" on="1"/>
        <pt x="349" y="761" on="0"/>
      </contour>
    </TTGlyph>
    <TTGlyph name="J" xMin="-14" yMin="-22" xMax="1075" yMax="650">
      <contour>
        <pt x="608" y="208" on="1"/>
        <pt x="608" y="607" on="1"/>
        <pt x="544" y="607" on="1"/>
        <pt x="544" y="64" on="1"/>
        <pt x="608" y="90" on="0"/>
      </contour>
      <contour>
        <pt x="247" y="650" on="1"/>
        <pt x="1075" y="650" on="1"/>
        <pt x="1075" y="607" on="1"/>
        <pt x="976" y="607" on="1"/>
        <pt x="925" y="607" on="0"/>
        <pt x="867" y="543" on="0"/>
        <pt x="867" y="497" on="1"/>
        <pt x="867" y="196" on="1"/>
        <pt x="867" y="143" on="0"/>
        <pt x="826" y="66" on="0"/>
        <pt x="778" y="36" on="1"/>
        <pt x="683" y="-22" on="0"/>
        <pt x="222" y="-22" on="0"/>
        <pt x="35" y="51" on="1"/>
        <pt x="35" y="0" on="1"/>
        <pt x="-14" y="0" on="1"/>
        <pt x="-14" y="262" on="1"/>
        <pt x="35" y="262" on="1"/>
        <pt x="47" y="233" on="0"/>
        <pt x="117" y="137" on="0"/>
        <pt x="188" y="73" on="0"/>
        <pt x="304" y="21" on="0"/>
        <pt x="360" y="21" on="1"/>
        <pt x="477" y="21" on="0"/>
        <pt x="477" y="129" on="1"/>
        <pt x="477" y="497" on="1"/>
        <pt x="477" y="543" on="0"/>
        <pt x="418" y="607" on="0"/>
        <pt x="368" y="607" on="1"/>
        <pt x="247" y="607" on="1"/>
      </contour>
    </TTGlyph>
    <TTGlyph name="K" xMin="73" yMin="0" xMax="1633" yMax="650">
      <contour>
        <pt x="873" y="0" on="1"/>
        <pt x="73" y="0" on="1"/>
        <pt x="73" y="43" on="1"/>
        <pt x="193" y="43" on="1"/>
        <pt x="242" y="43" on="0"/>
        <pt x="301" y="95" on="0"/>
        <pt x="301" y="151" on="1"/>
        <pt x="301" y="498" on="1"/>
        <pt x="301" y="543" on="0"/>
        <pt x="238" y="607" on="0"/>
        <pt x="193" y="607" on="1"/>
        <pt x="73" y="607" on="1"/>
        <pt x="73" y="650" on="1"/>
        <pt x="915" y="650" on="1"/>
        <pt x="915" y="607" on="1"/>
        <pt x="804" y="607" on="1"/>
        <pt x="752" y="607" on="0"/>
        <pt x="692" y="553" on="0"/>
        <pt x="692" y="509" on="1"/>
        <pt x="692" y="403" on="1"/>
        <pt x="692" y="345" on="0"/>
        <pt x="750" y="345" on="1"/>
        <pt x="770" y="345" on="1"/>
        <pt x="807" y="345" on="0"/>
        <pt x="864" y="371" on="1"/>
        <pt x="1061" y="460" on="1"/>
        <pt x="1125" y="489" on="0"/>
        <pt x="1181" y="536" on="0"/>
        <pt x="1181" y="589" on="0"/>
        <pt x="1120" y="607" on="0"/>
        <pt x="1041" y="607" on="1"/>
        <pt x="1041" y="650" on="1"/>
        <pt x="1633" y="650" on="1"/>
        <pt x="1633" y="607" on="1"/>
        <pt x="1526" y="607" on="1"/>
        <pt x="1489" y="607" on="0"/>
        <pt x="1412" y="575" on="1"/>
        <pt x="1319" y="536" on="0"/>
        <pt x="1216" y="478" on="1"/>
        <pt x="1186" y="460" on="0"/>
        <pt x="1186" y="415" on="0"/>
        <pt x="1201" y="397" on="1"/>
        <pt x="1499" y="43" on="1"/>
        <pt x="1633" y="43" on="1"/>
        <pt x="1633" y="0" on="1"/>
        <pt x="1077" y="0" on="1"/>
        <pt x="813" y="296" on="1"/>
        <pt x="734" y="296" on="1"/>
        <pt x="692" y="296" on="0"/>
        <pt x="692" y="252" on="1"/>
        <pt x="692" y="151" on="1"/>
        <pt x="692" y="95" on="0"/>
        <pt x="752" y="43" on="0"/>
        <pt x="801" y="43" on="1"/>
        <pt x="873" y="43" on="1"/>
      </contour>
      <contour>
        <pt x="434" y="43" on="1"/>
        <pt x="434" y="607" on="1"/>
        <pt x="369" y="607" on="1"/>
        <pt x="369" y="43" on="1"/>
      </contour>
      <contour>
        <pt x="1213" y="43" on="1"/>
        <pt x="962" y="324" on="1"/>
        <pt x="875" y="324" on="1"/>
        <pt x="1126" y="43" on="1"/>
      </contour>
    </TTGlyph>
    <TTGlyph name="L" xMin="73" yMin="0" xMax="1236" yMax="650">
      <contour>
        <pt x="692" y="497" on="1"/>
        <pt x="692" y="151" on="1"/>
        <pt x="692" y="43" on="0"/>
        <pt x="801" y="43" on="1"/>
        <pt x="885" y="43" on="0"/>
        <pt x="984" y="89" on="1"/>
        <pt x="1037" y="114" on="0"/>
        <pt x="1151" y="216" on="0"/>
        <pt x="1202" y="288" on="1"/>
        <pt x="1236" y="288" on="1"/>
        <pt x="1236" y="0" on="1"/>
        <pt x="73" y="0" on="1"/>
        <pt x="73" y="43" on="1"/>
        <pt x="193" y="43" on="1"/>
        <pt x="242" y="43" on="0"/>
        <pt x="301" y="94" on="0"/>
        <pt x="301" y="151" on="1"/>
        <pt x="301" y="497" on="1"/>
        <pt x="301" y="542" on="0"/>
        <pt x="238" y="607" on="0"/>
        <pt x="193" y="607" on="1"/>
        <pt x="73" y="607" on="1"/>
        <pt x="73" y="650" on="1"/>
        <pt x="968" y="650" on="1"/>
        <pt x="968" y="607" on="1"/>
        <pt x="801" y="607" on="1"/>
        <pt x="756" y="607" on="0"/>
        <pt x="692" y="542" on="0"/>
      </contour>
      <contour>
        <pt x="434" y="43" on="1"/>
        <pt x="434" y="607" on="1"/>
        <pt x="369" y="607" on="1"/>
        <pt x="369" y="43" on="1"/>
      </contour>
    </TTGlyph>
    <TTGlyph name="Lslash" xMin="73" yMin="0" xMax="1236" yMax="650">
      <contour>
        <pt x="692" y="497" on="1"/>
        <pt x="692" y="423" on="1"/>
        <pt x="876" y="483" on="1"/>
        <pt x="876" y="403" on="1"/>
        <pt x="692" y="343" on="1"/>
        <pt x="692" y="151" on="1"/>
        <pt x="692" y="43" on="0"/>
        <pt x="801" y="43" on="1"/>
        <pt x="885" y="43" on="0"/>
        <pt x="984" y="89" on="1"/>
        <pt x="1037" y="114" on="0"/>
        <pt x="1151" y="216" on="0"/>
        <pt x="1202" y="288" on="1"/>
        <pt x="1236" y="288" on="1"/>
        <pt x="1236" y="0" on="1"/>
        <pt x="73" y="0" on="1"/>
        <pt x="73" y="43" on="1"/>
        <pt x="193" y="43" on="1"/>
        <pt x="242" y="43" on="0"/>
        <pt x="301" y="94" on="0"/>
        <pt x="301" y="151" on="1"/>
        <pt x="301" y="217" on="1"/>
        <pt x="151" y="169" on="1"/>
        <pt x="151" y="249" on="1"/>
        <pt x="301" y="297" on="1"/>
        <pt x="301" y="497" on="1"/>
        <pt x="301" y="542" on="0"/>
        <pt x="238" y="607" on="0"/>
        <pt x="193" y="607" on="1"/>
        <pt x="73" y="607" on="1"/>
        <pt x="73" y="650" on="1"/>
        <pt x="968" y="650" on="1"/>
        <pt x="968" y="607" on="1"/>
        <pt x="801" y="607" on="1"/>
        <pt x="756" y="607" on="0"/>
        <pt x="692" y="542" on="0"/>
      </contour>
      <contour>
        <pt x="434" y="43" on="1"/>
        <pt x="434" y="607" on="1"/>
        <pt x="369" y="607" on="1"/>
        <pt x="369" y="43" on="1"/>
      </contour>
    </TTGlyph>
    <TTGlyph name="M" xMin="22" yMin="0" xMax="1825" yMax="650">
      <contour>
        <pt x="1226" y="607" on="1"/>
        <pt x="1226" y="43" on="1"/>
        <pt x="1291" y="43" on="1"/>
        <pt x="1291" y="607" on="1"/>
      </contour>
      <contour>
        <pt x="1825" y="607" on="1"/>
        <pt x="1658" y="607" on="1"/>
        <pt x="1609" y="607" on="0"/>
        <pt x="1549" y="568" on="0"/>
        <pt x="1549" y="526" on="1"/>
        <pt x="1549" y="151" on="1"/>
        <pt x="1549" y="95" on="0"/>
        <pt x="1609" y="43" on="0"/>
        <pt x="1658" y="43" on="1"/>
        <pt x="1825" y="43" on="1"/>
        <pt x="1825" y="0" on="1"/>
        <pt x="930" y="0" on="1"/>
        <pt x="930" y="43" on="1"/>
        <pt x="1050" y="43" on="1"/>
        <pt x="1099" y="43" on="0"/>
        <pt x="1159" y="95" on="0"/>
        <pt x="1159" y="151" on="1"/>
        <pt x="1159" y="559" on="1"/>
        <pt x="853" y="85" on="1"/>
        <pt x="801" y="85" on="1"/>
        <pt x="415" y="411" on="1"/>
        <pt x="415" y="277" on="1"/>
        <pt x="415" y="216" on="0"/>
        <pt x="475" y="121" on="0"/>
        <pt x="523" y="95" on="1"/>
        <pt x="619" y="43" on="0"/>
        <pt x="730" y="43" on="1"/>
        <pt x="730" y="0" on="1"/>
        <pt x="35" y="0" on="1"/>
        <pt x="35" y="43" on="1"/>
        <pt x="146" y="43" on="0"/>
        <pt x="242" y="95" on="1"/>
        <pt x="290" y="121" on="0"/>
        <pt x="350" y="216" on="0"/>
        <pt x="350" y="277" on="1"/>
        <pt x="350" y="382" on="1"/>
        <pt x="350" y="448" on="0"/>
        <pt x="254" y="553" on="0"/>
        <pt x="106" y="607" on="0"/>
        <pt x="22" y="607" on="1"/>
        <pt x="22" y="650" on="1"/>
        <pt x="669" y="650" on="1"/>
        <pt x="976" y="389" on="1"/>
        <pt x="1144" y="650" on="1"/>
        <pt x="1825" y="650" on="1"/>
      </contour>
      <contour>
        <pt x="836" y="169" on="1"/>
        <pt x="836" y="232" on="1"/>
        <pt x="396" y="605" on="1"/>
        <pt x="296" y="605" on="1"/>
        <pt x="811" y="169" on="1"/>
      </contour>
    </TTGlyph>
    <TTGlyph name="N" xMin="23" yMin="-42" xMax="1529" yMax="650">
      <contour>
        <pt x="1009" y="650" on="1"/>
        <pt x="1529" y="650" on="1"/>
        <pt x="1529" y="607" on="1"/>
        <pt x="1301" y="607" on="0"/>
        <pt x="1301" y="410" on="1"/>
        <pt x="1301" y="-42" on="1"/>
        <pt x="1211" y="-42" on="1"/>
        <pt x="515" y="379" on="1"/>
        <pt x="490" y="393" on="0"/>
        <pt x="465" y="393" on="1"/>
        <pt x="415" y="393" on="0"/>
        <pt x="415" y="323" on="1"/>
        <pt x="415" y="277" on="1"/>
        <pt x="415" y="215" on="0"/>
        <pt x="475" y="121" on="0"/>
        <pt x="524" y="95" on="1"/>
        <pt x="620" y="43" on="0"/>
        <pt x="730" y="43" on="1"/>
        <pt x="730" y="0" on="1"/>
        <pt x="35" y="0" on="1"/>
        <pt x="35" y="43" on="1"/>
        <pt x="144" y="43" on="0"/>
        <pt x="242" y="95" on="1"/>
        <pt x="290" y="121" on="0"/>
        <pt x="350" y="215" on="0"/>
        <pt x="350" y="277" on="1"/>
        <pt x="350" y="382" on="1"/>
        <pt x="350" y="448" on="0"/>
        <pt x="254" y="553" on="0"/>
        <pt x="106" y="607" on="0"/>
        <pt x="23" y="607" on="1"/>
        <pt x="23" y="650" on="1"/>
        <pt x="772" y="650" on="1"/>
        <pt x="1120" y="431" on="1"/>
        <pt x="1196" y="383" on="0"/>
        <pt x="1214" y="383" on="1"/>
        <pt x="1237" y="383" on="0"/>
        <pt x="1237" y="410" on="1"/>
        <pt x="1237" y="607" on="0"/>
        <pt x="1009" y="607" on="1"/>
      </contour>
      <contour>
        <pt x="356" y="607" on="1"/>
        <pt x="356" y="552" on="1"/>
        <pt x="1211" y="35" on="1"/>
        <pt x="1211" y="107" on="1"/>
        <pt x="383" y="607" on="1"/>
      </contour>
    </TTGlyph>
    <TTGlyph name="Ntilde" xMin="23" yMin="-42" xMax="1529" yMax="879">
      <contour>
        <pt x="1009" y="650" on="1"/>
        <pt x="1529" y="650" on="1"/>
        <pt x="1529" y="607" on="1"/>
        <pt x="1301" y="607" on="0"/>
        <pt x="1301" y="410" on="1"/>
        <pt x="1301" y="-42" on="1"/>
        <pt x="1211" y="-42" on="1"/>
        <pt x="515" y="379" on="1"/>
        <pt x="490" y="393" on="0"/>
        <pt x="465" y="393" on="1"/>
        <pt x="415" y="393" on="0"/>
        <pt x="415" y="323" on="1"/>
        <pt x="415" y="277" on="1"/>
        <pt x="415" y="215" on="0"/>
        <pt x="475" y="121" on="0"/>
        <pt x="524" y="95" on="1"/>
        <pt x="620" y="43" on="0"/>
        <pt x="730" y="43" on="1"/>
        <pt x="730" y="0" on="1"/>
        <pt x="35" y="0" on="1"/>
        <pt x="35" y="43" on="1"/>
        <pt x="144" y="43" on="0"/>
        <pt x="242" y="95" on="1"/>
        <pt x="290" y="121" on="0"/>
        <pt x="350" y="215" on="0"/>
        <pt x="350" y="277" on="1"/>
        <pt x="350" y="382" on="1"/>
        <pt x="350" y="448" on="0"/>
        <pt x="254" y="553" on="0"/>
        <pt x="106" y="607" on="0"/>
        <pt x="23" y="607" on="1"/>
        <pt x="23" y="650" on="1"/>
        <pt x="772" y="650" on="1"/>
        <pt x="1120" y="431" on="1"/>
        <pt x="1196" y="383" on="0"/>
        <pt x="1214" y="383" on="1"/>
        <pt x="1237" y="383" on="0"/>
        <pt x="1237" y="410" on="1"/>
        <pt x="1237" y="607" on="0"/>
        <pt x="1009" y="607" on="1"/>
      </contour>
      <contour>
        <pt x="356" y="607" on="1"/>
        <pt x="356" y="552" on="1"/>
        <pt x="1211" y="35" on="1"/>
        <pt x="1211" y="107" on="1"/>
        <pt x="383" y="607" on="1"/>
      </contour>
      <contour>
        <pt x="1026" y="789" on="1"/>
        <pt x="979" y="774" on="0"/>
        <pt x="839" y="774" on="0"/>
        <pt x="662" y="818" on="0"/>
        <pt x="567" y="818" on="0"/>
        <pt x="533" y="788" on="1"/>
        <pt x="536" y="784" on="1"/>
        <pt x="559" y="789" on="0"/>
        <pt x="613" y="789" on="0"/>
        <pt x="818" y="739" on="0"/>
        <pt x="974" y="739" on="0"/>
        <pt x="1028" y="785" on="1"/>
      </contour>
      <contour>
        <pt x="998" y="731" on="0"/>
        <pt x="928" y="705" on="0"/>
        <pt x="806" y="705" on="0"/>
        <pt x="613" y="754" on="0"/>
        <pt x="551" y="754" on="1"/>
        <pt x="504" y="754" on="0"/>
        <pt x="489" y="717" on="1"/>
        <pt x="461" y="717" on="1"/>
        <pt x="465" y="766" on="0"/>
        <pt x="588" y="879" on="0"/>
        <pt x="768" y="879" on="0"/>
        <pt x="940" y="843" on="0"/>
        <pt x="1045" y="843" on="0"/>
        <pt x="1066" y="878" on="1"/>
        <pt x="1099" y="878" on="1"/>
        <pt x="1094" y="838" on="0"/>
        <pt x="1045" y="770" on="0"/>
      </contour>
    </TTGlyph>
    <TTGlyph name="O" xMin="22" yMin="-22" xMax="1322" yMax="670">
      <contour>
        <pt x="1322" y="325" on="1"/>
        <pt x="1322" y="231" on="0"/>
        <pt x="1148" y="71" on="0"/>
        <pt x="849" y="-22" on="0"/>
        <pt x="495" y="-22" on="0"/>
        <pt x="196" y="71" on="0"/>
        <pt x="22" y="231" on="0"/>
        <pt x="22" y="325" on="1"/>
        <pt x="22" y="472" on="0"/>
        <pt x="380" y="670" on="0"/>
        <pt x="964" y="670" on="0"/>
        <pt x="1322" y="472" on="0"/>
      </contour>
      <contour>
        <pt x="879" y="483" on="0"/>
        <pt x="790" y="629" on="0"/>
        <pt x="555" y="629" on="0"/>
        <pt x="465" y="482" on="0"/>
        <pt x="465" y="175" on="0"/>
        <pt x="573" y="19" on="0"/>
        <pt x="771" y="19" on="0"/>
        <pt x="879" y="175" on="0"/>
      </contour>
      <contour>
        <pt x="149" y="236" on="0"/>
        <pt x="149" y="414" on="0"/>
        <pt x="280" y="564" on="0"/>
        <pt x="389" y="607" on="1"/>
        <pt x="388" y="611" on="1"/>
        <pt x="246" y="569" on="0"/>
        <pt x="76" y="416" on="0"/>
        <pt x="76" y="234" on="0"/>
        <pt x="243" y="83" on="0"/>
        <pt x="384" y="40" on="1"/>
        <pt x="385" y="44" on="1"/>
        <pt x="277" y="87" on="0"/>
      </contour>
      <contour>
        <pt x="1035" y="247" on="0"/>
        <pt x="1035" y="403" on="0"/>
        <pt x="967" y="550" on="0"/>
        <pt x="909" y="603" on="1"/>
        <pt x="903" y="601" on="1"/>
        <pt x="960" y="460" on="0"/>
        <pt x="960" y="190" on="0"/>
        <pt x="903" y="49" on="1"/>
        <pt x="909" y="47" on="1"/>
        <pt x="967" y="100" on="0"/>
      </contour>
    </TTGlyph>
    <TTGlyph name="OE" xMin="22" yMin="0" xMax="1858" yMax="650">
      <contour>
        <pt x="672" y="43" on="1"/>
        <pt x="771" y="43" on="1"/>
        <pt x="880" y="43" on="0"/>
        <pt x="880" y="151" on="1"/>
        <pt x="880" y="497" on="1"/>
        <pt x="880" y="542" on="0"/>
        <pt x="816" y="607" on="0"/>
        <pt x="771" y="607" on="1"/>
        <pt x="672" y="607" on="1"/>
        <pt x="555" y="607" on="0"/>
        <pt x="465" y="471" on="0"/>
        <pt x="465" y="187" on="0"/>
        <pt x="573" y="43" on="0"/>
      </contour>
      <contour>
        <pt x="1858" y="0" on="1"/>
        <pt x="672" y="0" on="1"/>
        <pt x="495" y="0" on="0"/>
        <pt x="196" y="87" on="0"/>
        <pt x="22" y="237" on="0"/>
        <pt x="22" y="326" on="1"/>
        <pt x="22" y="464" on="0"/>
        <pt x="380" y="650" on="0"/>
        <pt x="672" y="650" on="1"/>
        <pt x="1858" y="650" on="1"/>
        <pt x="1858" y="420" on="1"/>
        <pt x="1829" y="420" on="1"/>
        <pt x="1771" y="498" on="0"/>
        <pt x="1551" y="605" on="0"/>
        <pt x="1382" y="605" on="1"/>
        <pt x="1330" y="605" on="0"/>
        <pt x="1269" y="551" on="0"/>
        <pt x="1269" y="508" on="1"/>
        <pt x="1269" y="474" on="1"/>
        <pt x="1269" y="372" on="0"/>
        <pt x="1357" y="372" on="1"/>
        <pt x="1425" y="372" on="0"/>
        <pt x="1576" y="448" on="0"/>
        <pt x="1600" y="499" on="1"/>
        <pt x="1637" y="499" on="1"/>
        <pt x="1637" y="194" on="1"/>
        <pt x="1600" y="194" on="1"/>
        <pt x="1577" y="247" on="0"/>
        <pt x="1429" y="312" on="0"/>
        <pt x="1357" y="312" on="1"/>
        <pt x="1310" y="312" on="0"/>
        <pt x="1269" y="260" on="0"/>
        <pt x="1269" y="223" on="1"/>
        <pt x="1269" y="187" on="1"/>
        <pt x="1269" y="110" on="0"/>
        <pt x="1300" y="43" on="0"/>
        <pt x="1355" y="43" on="1"/>
        <pt x="1380" y="43" on="1"/>
        <pt x="1436" y="43" on="0"/>
        <pt x="1508" y="46" on="0"/>
        <pt x="1620" y="65" on="0"/>
        <pt x="1702" y="98" on="0"/>
        <pt x="1794" y="165" on="0"/>
        <pt x="1829" y="212" on="1"/>
        <pt x="1858" y="212" on="1"/>
      </contour>
      <contour>
        <pt x="385" y="64" on="1"/>
        <pt x="149" y="158" on="0"/>
        <pt x="149" y="493" on="0"/>
        <pt x="389" y="587" on="1"/>
        <pt x="388" y="591" on="1"/>
        <pt x="241" y="548" on="0"/>
        <pt x="76" y="414" on="0"/>
        <pt x="76" y="325" on="1"/>
        <pt x="76" y="154" on="0"/>
        <pt x="384" y="60" on="1"/>
      </contour>
      <contour>
        <pt x="1013" y="43" on="1"/>
        <pt x="1013" y="607" on="1"/>
        <pt x="947" y="607" on="1"/>
        <pt x="947" y="43" on="1"/>
      </contour>
    </TTGlyph>
    <TTGlyph name="Oacute" xMin="22" yMin="-22" xMax="1322" yMax="862">
      <contour>
        <pt x="1322" y="325" on="1"/>
        <pt x="1322" y="231" on="0"/>
        <pt x="1148" y="71" on="0"/>
        <pt x="849" y="-22" on="0"/>
        <pt x="495" y="-22" on="0"/>
        <pt x="196" y="71" on="0"/>
        <pt x="22" y="231" on="0"/>
        <pt x="22" y="325" on="1"/>
        <pt x="22" y="472" on="0"/>
        <pt x="380" y="670" on="0"/>
        <pt x="964" y="670" on="0"/>
        <pt x="1322" y="472" on="0"/>
      </contour>
      <contour>
        <pt x="879" y="483" on="0"/>
        <pt x="790" y="629" on="0"/>
        <pt x="555" y="629" on="0"/>
        <pt x="465" y="482" on="0"/>
        <pt x="465" y="175" on="0"/>
        <pt x="573" y="19" on="0"/>
        <pt x="771" y="19" on="0"/>
        <pt x="879" y="175" on="0"/>
      </contour>
      <contour>
        <pt x="149" y="236" on="0"/>
        <pt x="149" y="414" on="0"/>
        <pt x="280" y="564" on="0"/>
        <pt x="389" y="607" on="1"/>
        <pt x="388" y="611" on="1"/>
        <pt x="246" y="569" on="0"/>
        <pt x="76" y="416" on="0"/>
        <pt x="76" y="234" on="0"/>
        <pt x="243" y="83" on="0"/>
        <pt x="384" y="40" on="1"/>
        <pt x="385" y="44" on="1"/>
        <pt x="277" y="87" on="0"/>
      </contour>
      <contour>
        <pt x="1035" y="247" on="0"/>
        <pt x="1035" y="403" on="0"/>
        <pt x="967" y="550" on="0"/>
        <pt x="909" y="603" on="1"/>
        <pt x="903" y="601" on="1"/>
        <pt x="960" y="460" on="0"/>
        <pt x="960" y="190" on="0"/>
        <pt x="903" y="49" on="1"/>
        <pt x="909" y="47" on="1"/>
        <pt x="967" y="100" on="0"/>
      </contour>
      <contour>
        <pt x="451" y="716" on="1"/>
        <pt x="397" y="716" on="1"/>
        <pt x="397" y="752" on="1"/>
        <pt x="506" y="752" on="0"/>
        <pt x="615" y="804" on="0"/>
        <pt x="656" y="862" on="1"/>
        <pt x="947" y="862" on="1"/>
        <pt x="944" y="849" on="0"/>
        <pt x="920" y="807" on="0"/>
        <pt x="890" y="775" on="0"/>
        <pt x="834" y="742" on="0"/>
        <pt x="799" y="734" on="1"/>
        <pt x="721" y="716" on="0"/>
      </contour>
      <contour>
        <pt x="595" y="759" on="1"/>
        <pt x="595" y="755" on="1"/>
        <pt x="710" y="761" on="0"/>
        <pt x="760" y="834" on="1"/>
        <pt x="696" y="834" on="1"/>
        <pt x="684" y="809" on="0"/>
        <pt x="623" y="768" on="0"/>
      </contour>
    </TTGlyph>
    <TTGlyph name="Ocircumflex" xMin="22" yMin="-22" xMax="1322" yMax="862">
      <contour>
        <pt x="1322" y="325" on="1"/>
        <pt x="1322" y="231" on="0"/>
        <pt x="1148" y="71" on="0"/>
        <pt x="849" y="-22" on="0"/>
        <pt x="495" y="-22" on="0"/>
        <pt x="196" y="71" on="0"/>
        <pt x="22" y="231" on="0"/>
        <pt x="22" y="325" on="1"/>
        <pt x="22" y="472" on="0"/>
        <pt x="380" y="670" on="0"/>
        <pt x="964" y="670" on="0"/>
        <pt x="1322" y="472" on="0"/>
      </contour>
      <contour>
        <pt x="879" y="483" on="0"/>
        <pt x="790" y="629" on="0"/>
        <pt x="555" y="629" on="0"/>
        <pt x="465" y="482" on="0"/>
        <pt x="465" y="175" on="0"/>
        <pt x="573" y="19" on="0"/>
        <pt x="771" y="19" on="0"/>
        <pt x="879" y="175" on="0"/>
      </contour>
      <contour>
        <pt x="149" y="236" on="0"/>
        <pt x="149" y="414" on="0"/>
        <pt x="280" y="564" on="0"/>
        <pt x="389" y="607" on="1"/>
        <pt x="388" y="611" on="1"/>
        <pt x="246" y="569" on="0"/>
        <pt x="76" y="416" on="0"/>
        <pt x="76" y="234" on="0"/>
        <pt x="243" y="83" on="0"/>
        <pt x="384" y="40" on="1"/>
        <pt x="385" y="44" on="1"/>
        <pt x="277" y="87" on="0"/>
      </contour>
      <contour>
        <pt x="1035" y="247" on="0"/>
        <pt x="1035" y="403" on="0"/>
        <pt x="967" y="550" on="0"/>
        <pt x="909" y="603" on="1"/>
        <pt x="903" y="601" on="1"/>
        <pt x="960" y="460" on="0"/>
        <pt x="960" y="190" on="0"/>
        <pt x="903" y="49" on="1"/>
        <pt x="909" y="47" on="1"/>
        <pt x="967" y="100" on="0"/>
      </contour>
      <contour>
        <pt x="511" y="862" on="1"/>
        <pt x="835" y="862" on="1"/>
        <pt x="968" y="716" on="1"/>
        <pt x="881" y="716" on="1"/>
        <pt x="778" y="828" on="1"/>
        <pt x="674" y="716" on="1"/>
        <pt x="377" y="716" on="1"/>
      </contour>
      <contour>
        <pt x="625" y="837" on="1"/>
        <pt x="563" y="837" on="1"/>
        <pt x="488" y="754" on="1"/>
        <pt x="550" y="754" on="1"/>
      </contour>
    </TTGlyph>
    <TTGlyph name="Odieresis" xMin="22" yMin="-22" xMax="1322" yMax="913">
      <contour>
        <pt x="1322" y="325" on="1"/>
        <pt x="1322" y="231" on="0"/>
        <pt x="1148" y="71" on="0"/>
        <pt x="849" y="-22" on="0"/>
        <pt x="495" y="-22" on="0"/>
        <pt x="196" y="71" on="0"/>
        <pt x="22" y="231" on="0"/>
        <pt x="22" y="325" on="1"/>
        <pt x="22" y="472" on="0"/>
        <pt x="380" y="670" on="0"/>
        <pt x="964" y="670" on="0"/>
        <pt x="1322" y="472" on="0"/>
      </contour>
      <contour>
        <pt x="879" y="483" on="0"/>
        <pt x="790" y="629" on="0"/>
        <pt x="555" y="629" on="0"/>
        <pt x="465" y="482" on="0"/>
        <pt x="465" y="175" on="0"/>
        <pt x="573" y="19" on="0"/>
        <pt x="771" y="19" on="0"/>
        <pt x="879" y="175" on="0"/>
      </contour>
      <contour>
        <pt x="149" y="236" on="0"/>
        <pt x="149" y="414" on="0"/>
        <pt x="280" y="564" on="0"/>
        <pt x="389" y="607" on="1"/>
        <pt x="388" y="611" on="1"/>
        <pt x="246" y="569" on="0"/>
        <pt x="76" y="416" on="0"/>
        <pt x="76" y="234" on="0"/>
        <pt x="243" y="83" on="0"/>
        <pt x="384" y="40" on="1"/>
        <pt x="385" y="44" on="1"/>
        <pt x="277" y="87" on="0"/>
      </contour>
      <contour>
        <pt x="1035" y="247" on="0"/>
        <pt x="1035" y="403" on="0"/>
        <pt x="967" y="550" on="0"/>
        <pt x="909" y="603" on="1"/>
        <pt x="903" y="601" on="1"/>
        <pt x="960" y="460" on="0"/>
        <pt x="960" y="190" on="0"/>
        <pt x="903" y="49" on="1"/>
        <pt x="909" y="47" on="1"/>
        <pt x="967" y="100" on="0"/>
      </contour>
      <contour>
        <pt x="1037" y="845" on="0"/>
        <pt x="1037" y="751" on="0"/>
        <pt x="957" y="685" on="0"/>
        <pt x="843" y="685" on="0"/>
        <pt x="763" y="751" on="0"/>
        <pt x="763" y="845" on="0"/>
        <pt x="843" y="913" on="0"/>
        <pt x="957" y="913" on="0"/>
      </contour>
      <contour>
        <pt x="581" y="845" on="0"/>
        <pt x="581" y="751" on="0"/>
        <pt x="501" y="685" on="0"/>
        <pt x="387" y="685" on="0"/>
        <pt x="307" y="751" on="0"/>
        <pt x="307" y="845" on="0"/>
        <pt x="387" y="913" on="0"/>
        <pt x="501" y="913" on="0"/>
      </contour>
      <contour>
        <pt x="385" y="745" on="0"/>
        <pt x="385" y="851" on="0"/>
        <pt x="416" y="885" on="1"/>
        <pt x="413" y="888" on="1"/>
        <pt x="382" y="875" on="0"/>
        <pt x="344" y="826" on="0"/>
        <pt x="344" y="770" on="0"/>
        <pt x="382" y="721" on="0"/>
        <pt x="413" y="708" on="1"/>
        <pt x="416" y="711" on="1"/>
      </contour>
      <contour>
        <pt x="841" y="745" on="0"/>
        <pt x="841" y="851" on="0"/>
        <pt x="872" y="885" on="1"/>
        <pt x="869" y="888" on="1"/>
        <pt x="838" y="875" on="0"/>
        <pt x="800" y="826" on="0"/>
        <pt x="800" y="770" on="0"/>
        <pt x="838" y="721" on="0"/>
        <pt x="869" y="708" on="1"/>
        <pt x="872" y="711" on="1"/>
      </contour>
    </TTGlyph>
    <TTGlyph name="Ograve" xMin="22" yMin="-22" xMax="1322" yMax="862">
      <contour>
        <pt x="1322" y="325" on="1"/>
        <pt x="1322" y="231" on="0"/>
        <pt x="1148" y="71" on="0"/>
        <pt x="849" y="-22" on="0"/>
        <pt x="495" y="-22" on="0"/>
        <pt x="196" y="71" on="0"/>
        <pt x="22" y="231" on="0"/>
        <pt x="22" y="325" on="1"/>
        <pt x="22" y="472" on="0"/>
        <pt x="380" y="670" on="0"/>
        <pt x="964" y="670" on="0"/>
        <pt x="1322" y="472" on="0"/>
      </contour>
      <contour>
        <pt x="879" y="483" on="0"/>
        <pt x="790" y="629" on="0"/>
        <pt x="555" y="629" on="0"/>
        <pt x="465" y="482" on="0"/>
        <pt x="465" y="175" on="0"/>
        <pt x="573" y="19" on="0"/>
        <pt x="771" y="19" on="0"/>
        <pt x="879" y="175" on="0"/>
      </contour>
      <contour>
        <pt x="149" y="236" on="0"/>
        <pt x="149" y="414" on="0"/>
        <pt x="280" y="564" on="0"/>
        <pt x="389" y="607" on="1"/>
        <pt x="388" y="611" on="1"/>
        <pt x="246" y="569" on="0"/>
        <pt x="76" y="416" on="0"/>
        <pt x="76" y="234" on="0"/>
        <pt x="243" y="83" on="0"/>
        <pt x="384" y="40" on="1"/>
        <pt x="385" y="44" on="1"/>
        <pt x="277" y="87" on="0"/>
      </contour>
      <contour>
        <pt x="1035" y="247" on="0"/>
        <pt x="1035" y="403" on="0"/>
        <pt x="967" y="550" on="0"/>
        <pt x="909" y="603" on="1"/>
        <pt x="903" y="601" on="1"/>
        <pt x="960" y="460" on="0"/>
        <pt x="960" y="190" on="0"/>
        <pt x="903" y="49" on="1"/>
        <pt x="909" y="47" on="1"/>
        <pt x="967" y="100" on="0"/>
      </contour>
      <contour>
        <pt x="947" y="752" on="1"/>
        <pt x="947" y="716" on="1"/>
        <pt x="893" y="716" on="1"/>
        <pt x="623" y="716" on="0"/>
        <pt x="545" y="734" on="1"/>
        <pt x="474" y="750" on="0"/>
        <pt x="439" y="792" on="1"/>
        <pt x="406" y="830" on="0"/>
        <pt x="400" y="852" on="1"/>
        <pt x="397" y="862" on="1"/>
        <pt x="688" y="862" on="1"/>
        <pt x="729" y="804" on="0"/>
        <pt x="838" y="752" on="0"/>
      </contour>
      <contour>
        <pt x="635" y="755" on="1"/>
        <pt x="635" y="759" on="1"/>
        <pt x="607" y="768" on="0"/>
        <pt x="546" y="809" on="0"/>
        <pt x="534" y="834" on="1"/>
        <pt x="470" y="834" on="1"/>
        <pt x="520" y="761" on="0"/>
      </contour>
    </TTGlyph>
    <TTGlyph name="Omega" xMin="22" yMin="0" xMax="1322" yMax="801">
      <contour>
        <pt x="149" y="367" on="0"/>
        <pt x="149" y="545" on="0"/>
        <pt x="280" y="695" on="0"/>
        <pt x="389" y="738" on="1"/>
        <pt x="388" y="742" on="1"/>
        <pt x="246" y="700" on="0"/>
        <pt x="76" y="547" on="0"/>
        <pt x="76" y="365" on="0"/>
        <pt x="243" y="214" on="0"/>
        <pt x="384" y="171" on="1"/>
        <pt x="385" y="175" on="1"/>
        <pt x="277" y="218" on="0"/>
      </contour>
      <contour>
        <pt x="1035" y="378" on="0"/>
        <pt x="1035" y="534" on="0"/>
        <pt x="967" y="681" on="0"/>
        <pt x="909" y="734" on="1"/>
        <pt x="903" y="732" on="1"/>
        <pt x="960" y="591" on="0"/>
        <pt x="960" y="321" on="0"/>
        <pt x="903" y="180" on="1"/>
        <pt x="909" y="178" on="1"/>
        <pt x="967" y="231" on="0"/>
      </contour>
      <contour>
        <pt x="22" y="456" on="1"/>
        <pt x="22" y="603" on="0"/>
        <pt x="380" y="801" on="0"/>
        <pt x="964" y="801" on="0"/>
        <pt x="1322" y="603" on="0"/>
        <pt x="1322" y="456" on="1"/>
        <pt x="1322" y="330" on="0"/>
        <pt x="1041" y="134" on="0"/>
        <pt x="801" y="113" on="1"/>
        <pt x="801" y="76" on="0"/>
        <pt x="831" y="43" on="0"/>
        <pt x="869" y="43" on="1"/>
        <pt x="916" y="43" on="1"/>
        <pt x="1136" y="43" on="0"/>
        <pt x="1241" y="186" on="1"/>
        <pt x="1270" y="186" on="1"/>
        <pt x="1270" y="0" on="1"/>
        <pt x="739" y="0" on="1"/>
        <pt x="739" y="163" on="1"/>
        <pt x="778" y="172" on="0"/>
        <pt x="836" y="239" on="0"/>
        <pt x="850" y="284" on="1"/>
        <pt x="879" y="374" on="0"/>
        <pt x="879" y="455" on="1"/>
        <pt x="879" y="614" on="0"/>
        <pt x="790" y="760" on="0"/>
        <pt x="555" y="760" on="0"/>
        <pt x="465" y="613" on="0"/>
        <pt x="465" y="455" on="1"/>
        <pt x="465" y="374" on="0"/>
        <pt x="494" y="284" on="1"/>
        <pt x="508" y="239" on="0"/>
        <pt x="566" y="172" on="0"/>
        <pt x="605" y="163" on="1"/>
        <pt x="605" y="0" on="1"/>
        <pt x="74" y="0" on="1"/>
        <pt x="74" y="186" on="1"/>
        <pt x="103" y="186" on="1"/>
        <pt x="208" y="43" on="0"/>
        <pt x="428" y="43" on="1"/>
        <pt x="475" y="43" on="1"/>
        <pt x="513" y="43" on="0"/>
        <pt x="543" y="76" on="0"/>
        <pt x="543" y="113" on="1"/>
        <pt x="303" y="134" on="0"/>
        <pt x="22" y="330" on="0"/>
      </contour>
    </TTGlyph>
    <TTGlyph name="Oslash" xMin="22" yMin="-89" xMax="1322" yMax="741">
      <contour>
        <pt x="22" y="325" on="1"/>
        <pt x="22" y="472" on="0"/>
        <pt x="380" y="670" on="0"/>
        <pt x="672" y="670" on="1"/>
        <pt x="731" y="670" on="0"/>
        <pt x="806" y="663" on="1"/>
        <pt x="843" y="741" on="1"/>
        <pt x="895" y="741" on="1"/>
        <pt x="856" y="658" on="1"/>
        <pt x="1071" y="628" on="0"/>
        <pt x="1322" y="446" on="0"/>
        <pt x="1322" y="325" on="1"/>
        <pt x="1322" y="231" on="0"/>
        <pt x="1148" y="71" on="0"/>
        <pt x="849" y="-22" on="0"/>
        <pt x="672" y="-22" on="1"/>
        <pt x="606" y="-22" on="0"/>
        <pt x="536" y="-14" on="1"/>
        <pt x="501" y="-89" on="1"/>
        <pt x="449" y="-89" on="1"/>
        <pt x="487" y="-8" on="1"/>
        <pt x="283" y="24" on="0"/>
        <pt x="22" y="208" on="0"/>
      </contour>
      <contour>
        <pt x="672" y="629" on="1"/>
        <pt x="555" y="629" on="0"/>
        <pt x="465" y="482" on="0"/>
        <pt x="465" y="161" on="0"/>
        <pt x="530" y="82" on="1"/>
        <pt x="779" y="606" on="1"/>
        <pt x="736" y="629" on="0"/>
      </contour>
      <contour>
        <pt x="879" y="324" on="1"/>
        <pt x="879" y="511" on="0"/>
        <pt x="817" y="577" on="1"/>
        <pt x="566" y="49" on="1"/>
        <pt x="611" y="19" on="0"/>
        <pt x="672" y="19" on="1"/>
        <pt x="771" y="19" on="0"/>
        <pt x="879" y="175" on="0"/>
      </contour>
      <contour>
        <pt x="149" y="236" on="0"/>
        <pt x="149" y="414" on="0"/>
        <pt x="280" y="564" on="0"/>
        <pt x="389" y="607" on="1"/>
        <pt x="388" y="611" on="1"/>
        <pt x="246" y="569" on="0"/>
        <pt x="76" y="416" on="0"/>
        <pt x="76" y="234" on="0"/>
        <pt x="243" y="83" on="0"/>
        <pt x="384" y="40" on="1"/>
        <pt x="385" y="44" on="1"/>
        <pt x="277" y="87" on="0"/>
      </contour>
      <contour>
        <pt x="1035" y="247" on="0"/>
        <pt x="1035" y="403" on="0"/>
        <pt x="967" y="550" on="0"/>
        <pt x="909" y="603" on="1"/>
        <pt x="903" y="601" on="1"/>
        <pt x="960" y="460" on="0"/>
        <pt x="960" y="190" on="0"/>
        <pt x="903" y="49" on="1"/>
        <pt x="909" y="47" on="1"/>
        <pt x="967" y="100" on="0"/>
      </contour>
    </TTGlyph>
    <TTGlyph name="Otilde" xMin="22" yMin="-22" xMax="1322" yMax="879">
      <contour>
        <pt x="1322" y="325" on="1"/>
        <pt x="1322" y="231" on="0"/>
        <pt x="1148" y="71" on="0"/>
        <pt x="849" y="-22" on="0"/>
        <pt x="495" y="-22" on="0"/>
        <pt x="196" y="71" on="0"/>
        <pt x="22" y="231" on="0"/>
        <pt x="22" y="325" on="1"/>
        <pt x="22" y="472" on="0"/>
        <pt x="380" y="670" on="0"/>
        <pt x="964" y="670" on="0"/>
        <pt x="1322" y="472" on="0"/>
      </contour>
      <contour>
        <pt x="879" y="483" on="0"/>
        <pt x="790" y="629" on="0"/>
        <pt x="555" y="629" on="0"/>
        <pt x="465" y="482" on="0"/>
        <pt x="465" y="175" on="0"/>
        <pt x="573" y="19" on="0"/>
        <pt x="771" y="19" on="0"/>
        <pt x="879" y="175" on="0"/>
      </contour>
      <contour>
        <pt x="149" y="236" on="0"/>
        <pt x="149" y="414" on="0"/>
        <pt x="280" y="564" on="0"/>
        <pt x="389" y="607" on="1"/>
        <pt x="388" y="611" on="1"/>
        <pt x="246" y="569" on="0"/>
        <pt x="76" y="416" on="0"/>
        <pt x="76" y="234" on="0"/>
        <pt x="243" y="83" on="0"/>
        <pt x="384" y="40" on="1"/>
        <pt x="385" y="44" on="1"/>
        <pt x="277" y="87" on="0"/>
      </contour>
      <contour>
        <pt x="1035" y="247" on="0"/>
        <pt x="1035" y="403" on="0"/>
        <pt x="967" y="550" on="0"/>
        <pt x="909" y="603" on="1"/>
        <pt x="903" y="601" on="1"/>
        <pt x="960" y="460" on="0"/>
        <pt x="960" y="190" on="0"/>
        <pt x="903" y="49" on="1"/>
        <pt x="909" y="47" on="1"/>
        <pt x="967" y="100" on="0"/>
      </contour>
      <contour>
        <pt x="918" y="789" on="1"/>
        <pt x="871" y="774" on="0"/>
        <pt x="731" y="774" on="0"/>
        <pt x="554" y="818" on="0"/>
        <pt x="459" y="818" on="0"/>
        <pt x="425" y="788" on="1"/>
        <pt x="428" y="784" on="1"/>
        <pt x="451" y="789" on="0"/>
        <pt x="505" y="789" on="0"/>
        <pt x="710" y="739" on="0"/>
        <pt x="866" y="739" on="0"/>
        <pt x="920" y="785" on="1"/>
      </contour>
      <contour>
        <pt x="890" y="731" on="0"/>
        <pt x="820" y="705" on="0"/>
        <pt x="698" y="705" on="0"/>
        <pt x="505" y="754" on="0"/>
        <pt x="443" y="754" on="1"/>
        <pt x="396" y="754" on="0"/>
        <pt x="381" y="717" on="1"/>
        <pt x="353" y="717" on="1"/>
        <pt x="357" y="766" on="0"/>
        <pt x="480" y="879" on="0"/>
        <pt x="660" y="879" on="0"/>
        <pt x="832" y="843" on="0"/>
        <pt x="937" y="843" on="0"/>
        <pt x="958" y="878" on="1"/>
        <pt x="991" y="878" on="1"/>
        <pt x="986" y="838" on="0"/>
        <pt x="937" y="770" on="0"/>
      </contour>
    </TTGlyph>
    <TTGlyph name="P" xMin="73" yMin="0" xMax="1434" yMax="650">
      <contour>
        <pt x="73" y="650" on="1"/>
        <pt x="1082" y="650" on="1"/>
        <pt x="1434" y="650" on="0"/>
        <pt x="1434" y="469" on="1"/>
        <pt x="1434" y="284" on="0"/>
        <pt x="1122" y="284" on="1"/>
        <pt x="749" y="284" on="1"/>
        <pt x="721" y="284" on="0"/>
        <pt x="694" y="252" on="0"/>
        <pt x="694" y="216" on="1"/>
        <pt x="694" y="151" on="1"/>
        <pt x="694" y="95" on="0"/>
        <pt x="753" y="43" on="0"/>
        <pt x="802" y="43" on="1"/>
        <pt x="924" y="43" on="1"/>
        <pt x="924" y="0" on="1"/>
        <pt x="73" y="0" on="1"/>
        <pt x="73" y="43" on="1"/>
        <pt x="194" y="43" on="1"/>
        <pt x="243" y="43" on="0"/>
        <pt x="303" y="95" on="0"/>
        <pt x="303" y="151" on="1"/>
        <pt x="303" y="497" on="1"/>
        <pt x="303" y="542" on="0"/>
        <pt x="239" y="607" on="0"/>
        <pt x="194" y="607" on="1"/>
        <pt x="73" y="607" on="1"/>
      </contour>
      <contour>
        <pt x="436" y="43" on="1"/>
        <pt x="436" y="607" on="1"/>
        <pt x="370" y="607" on="1"/>
        <pt x="370" y="43" on="1"/>
      </contour>
      <contour>
        <pt x="745" y="329" on="1"/>
        <pt x="846" y="329" on="1"/>
        <pt x="926" y="329" on="0"/>
        <pt x="980" y="387" on="1"/>
        <pt x="1010" y="420" on="0"/>
        <pt x="1010" y="516" on="0"/>
        <pt x="980" y="549" on="1"/>
        <pt x="926" y="607" on="0"/>
        <pt x="846" y="607" on="1"/>
        <pt x="745" y="607" on="1"/>
        <pt x="724" y="607" on="0"/>
        <pt x="695" y="577" on="0"/>
        <pt x="695" y="556" on="1"/>
        <pt x="695" y="379" on="1"/>
        <pt x="695" y="359" on="0"/>
        <pt x="724" y="329" on="0"/>
      </contour>
      <contour>
        <pt x="1157" y="426" on="0"/>
        <pt x="1157" y="510" on="0"/>
        <pt x="1100" y="589" on="0"/>
        <pt x="1061" y="603" on="1"/>
        <pt x="1056" y="600" on="1"/>
        <pt x="1088" y="551" on="0"/>
        <pt x="1088" y="385" on="0"/>
        <pt x="1056" y="336" on="1"/>
        <pt x="1061" y="333" on="1"/>
        <pt x="1100" y="347" on="0"/>
      </contour>
    </TTGlyph>
    <TTGlyph name="Q" xMin="22" yMin="-207" xMax="1322" yMax="671">
      <contour>
        <pt x="1322" y="325" on="1"/>
        <pt x="1322" y="238" on="0"/>
        <pt x="1171" y="87" on="0"/>
        <pt x="910" y="-9" on="0"/>
        <pt x="751" y="-19" on="1"/>
        <pt x="721" y="-58" on="0"/>
        <pt x="721" y="-106" on="1"/>
        <pt x="721" y="-132" on="0"/>
        <pt x="741" y="-164" on="0"/>
        <pt x="759" y="-164" on="1"/>
        <pt x="916" y="-164" on="1"/>
        <pt x="916" y="-207" on="1"/>
        <pt x="427" y="-207" on="1"/>
        <pt x="427" y="-164" on="1"/>
        <pt x="463" y="-88" on="0"/>
        <pt x="638" y="-25" on="1"/>
        <pt x="638" y="-21" on="1"/>
        <pt x="469" y="-16" on="0"/>
        <pt x="186" y="78" on="0"/>
        <pt x="22" y="234" on="0"/>
        <pt x="22" y="325" on="1"/>
        <pt x="22" y="473" on="0"/>
        <pt x="380" y="671" on="0"/>
        <pt x="964" y="671" on="0"/>
        <pt x="1322" y="473" on="0"/>
      </contour>
      <contour>
        <pt x="555" y="629" on="0"/>
        <pt x="465" y="483" on="0"/>
        <pt x="465" y="176" on="0"/>
        <pt x="573" y="20" on="0"/>
        <pt x="771" y="20" on="0"/>
        <pt x="879" y="176" on="0"/>
        <pt x="879" y="483" on="0"/>
        <pt x="790" y="629" on="0"/>
      </contour>
      <contour>
        <pt x="497" y="-164" on="1"/>
        <pt x="558" y="-164" on="1"/>
        <pt x="558" y="-126" on="0"/>
        <pt x="657" y="-42" on="1"/>
        <pt x="655" y="-39" on="1"/>
        <pt x="611" y="-55" on="0"/>
        <pt x="497" y="-138" on="0"/>
      </contour>
      <contour>
        <pt x="149" y="236" on="0"/>
        <pt x="149" y="414" on="0"/>
        <pt x="280" y="564" on="0"/>
        <pt x="389" y="607" on="1"/>
        <pt x="388" y="611" on="1"/>
        <pt x="246" y="569" on="0"/>
        <pt x="76" y="416" on="0"/>
        <pt x="76" y="234" on="0"/>
        <pt x="243" y="83" on="0"/>
        <pt x="384" y="40" on="1"/>
        <pt x="385" y="44" on="1"/>
        <pt x="277" y="87" on="0"/>
      </contour>
      <contour>
        <pt x="1035" y="247" on="0"/>
        <pt x="1035" y="403" on="0"/>
        <pt x="967" y="550" on="0"/>
        <pt x="909" y="603" on="1"/>
        <pt x="903" y="601" on="1"/>
        <pt x="960" y="460" on="0"/>
        <pt x="960" y="190" on="0"/>
        <pt x="903" y="49" on="1"/>
        <pt x="909" y="47" on="1"/>
        <pt x="967" y="100" on="0"/>
      </contour>
    </TTGlyph>
    <TTGlyph name="R" xMin="73" yMin="0" xMax="1571" yMax="650">
      <contour>
        <pt x="1571" y="43" on="1"/>
        <pt x="1571" y="0" on="1"/>
        <pt x="978" y="0" on="1"/>
        <pt x="778" y="256" on="1"/>
        <pt x="746" y="298" on="0"/>
        <pt x="704" y="298" on="0"/>
        <pt x="694" y="268" on="0"/>
        <pt x="694" y="227" on="1"/>
        <pt x="694" y="152" on="1"/>
        <pt x="694" y="95" on="0"/>
        <pt x="753" y="43" on="0"/>
        <pt x="802" y="43" on="1"/>
        <pt x="877" y="43" on="1"/>
        <pt x="877" y="0" on="1"/>
        <pt x="73" y="0" on="1"/>
        <pt x="73" y="43" on="1"/>
        <pt x="194" y="43" on="1"/>
        <pt x="244" y="43" on="0"/>
        <pt x="303" y="95" on="0"/>
        <pt x="303" y="152" on="1"/>
        <pt x="303" y="497" on="1"/>
        <pt x="303" y="542" on="0"/>
        <pt x="239" y="607" on="0"/>
        <pt x="194" y="607" on="1"/>
        <pt x="73" y="607" on="1"/>
        <pt x="73" y="650" on="1"/>
        <pt x="1147" y="650" on="1"/>
        <pt x="1333" y="650" on="0"/>
        <pt x="1418" y="603" on="1"/>
        <pt x="1453" y="584" on="0"/>
        <pt x="1499" y="516" on="0"/>
        <pt x="1499" y="426" on="0"/>
        <pt x="1451" y="363" on="0"/>
        <pt x="1380" y="327" on="0"/>
        <pt x="1326" y="316" on="1"/>
        <pt x="1237" y="298" on="0"/>
        <pt x="1120" y="296" on="1"/>
        <pt x="1120" y="291" on="1"/>
        <pt x="1145" y="270" on="0"/>
        <pt x="1252" y="225" on="0"/>
        <pt x="1319" y="215" on="1"/>
        <pt x="1453" y="43" on="1"/>
      </contour>
      <contour>
        <pt x="695" y="556" on="1"/>
        <pt x="695" y="413" on="1"/>
        <pt x="695" y="387" on="0"/>
        <pt x="793" y="349" on="0"/>
        <pt x="927" y="349" on="0"/>
        <pt x="1026" y="407" on="0"/>
        <pt x="1026" y="516" on="0"/>
        <pt x="996" y="549" on="1"/>
        <pt x="942" y="607" on="0"/>
        <pt x="862" y="607" on="1"/>
        <pt x="745" y="607" on="1"/>
        <pt x="724" y="607" on="0"/>
        <pt x="695" y="577" on="0"/>
      </contour>
      <contour>
        <pt x="436" y="43" on="1"/>
        <pt x="436" y="607" on="1"/>
        <pt x="370" y="607" on="1"/>
        <pt x="370" y="43" on="1"/>
      </contour>
      <contour>
        <pt x="1024" y="43" on="1"/>
        <pt x="1107" y="43" on="1"/>
        <pt x="909" y="298" on="1"/>
        <pt x="826" y="298" on="1"/>
      </contour>
      <contour>
        <pt x="1135" y="347" on="0"/>
        <pt x="1188" y="421" on="0"/>
        <pt x="1188" y="516" on="0"/>
        <pt x="1134" y="589" on="0"/>
        <pt x="1092" y="601" on="1"/>
        <pt x="1089" y="598" on="1"/>
        <pt x="1119" y="554" on="0"/>
        <pt x="1119" y="384" on="0"/>
        <pt x="1090" y="339" on="1"/>
        <pt x="1093" y="336" on="1"/>
      </contour>
    </TTGlyph>
    <TTGlyph name="S" xMin="94" yMin="-21" xMax="1166" yMax="670">
      <contour>
        <pt x="96" y="447" on="1"/>
        <pt x="96" y="492" on="0"/>
        <pt x="130" y="564" on="0"/>
        <pt x="180" y="610" on="0"/>
        <pt x="265" y="643" on="0"/>
        <pt x="337" y="660" on="0"/>
        <pt x="392" y="664" on="1"/>
        <pt x="473" y="670" on="0"/>
        <pt x="665" y="670" on="0"/>
        <pt x="959" y="631" on="0"/>
        <pt x="1065" y="607" on="1"/>
        <pt x="1083" y="650" on="1"/>
        <pt x="1130" y="650" on="1"/>
        <pt x="1130" y="439" on="1"/>
        <pt x="1083" y="439" on="1"/>
        <pt x="1045" y="493" on="0"/>
        <pt x="684" y="629" on="0"/>
        <pt x="431" y="629" on="0"/>
        <pt x="431" y="575" on="1"/>
        <pt x="431" y="524" on="0"/>
        <pt x="577" y="497" on="1"/>
        <pt x="642" y="485" on="0"/>
        <pt x="798" y="461" on="0"/>
        <pt x="955" y="422" on="0"/>
        <pt x="1085" y="368" on="0"/>
        <pt x="1166" y="271" on="0"/>
        <pt x="1166" y="206" on="1"/>
        <pt x="1166" y="87" on="0"/>
        <pt x="904" y="-21" on="0"/>
        <pt x="644" y="-21" on="1"/>
        <pt x="513" y="-21" on="0"/>
        <pt x="304" y="17" on="0"/>
        <pt x="169" y="58" on="1"/>
        <pt x="141" y="0" on="1"/>
        <pt x="94" y="0" on="1"/>
        <pt x="94" y="281" on="1"/>
        <pt x="141" y="281" on="1"/>
        <pt x="157" y="244" on="0"/>
        <pt x="261" y="155" on="0"/>
        <pt x="407" y="74" on="0"/>
        <pt x="599" y="20" on="0"/>
        <pt x="691" y="20" on="1"/>
        <pt x="858" y="20" on="0"/>
        <pt x="858" y="70" on="1"/>
        <pt x="858" y="101" on="0"/>
        <pt x="701" y="154" on="0"/>
        <pt x="477" y="203" on="0"/>
        <pt x="253" y="265" on="0"/>
        <pt x="96" y="374" on="0"/>
      </contour>
      <contour>
        <pt x="977" y="92" on="1"/>
        <pt x="977" y="150" on="0"/>
        <pt x="933" y="183" on="1"/>
        <pt x="887" y="217" on="0"/>
        <pt x="780" y="246" on="0"/>
        <pt x="716" y="261" on="0"/>
        <pt x="611" y="283" on="0"/>
        <pt x="496" y="310" on="0"/>
        <pt x="378" y="347" on="0"/>
        <pt x="318" y="376" on="1"/>
        <pt x="195" y="434" on="0"/>
        <pt x="177" y="529" on="1"/>
        <pt x="170" y="530" on="1"/>
        <pt x="157" y="501" on="0"/>
        <pt x="157" y="460" on="1"/>
        <pt x="157" y="391" on="0"/>
        <pt x="240" y="341" on="1"/>
        <pt x="338" y="281" on="0"/>
        <pt x="619" y="216" on="1"/>
        <pt x="681" y="201" on="0"/>
        <pt x="751" y="185" on="0"/>
        <pt x="832" y="164" on="0"/>
        <pt x="879" y="146" on="0"/>
        <pt x="903" y="133" on="1"/>
        <pt x="945" y="110" on="0"/>
        <pt x="973" y="68" on="1"/>
        <pt x="977" y="69" on="1"/>
      </contour>
    </TTGlyph>
    <TTGlyph name="Scaron" xMin="94" yMin="-21" xMax="1166" yMax="862">
      <contour>
        <pt x="96" y="447" on="1"/>
        <pt x="96" y="492" on="0"/>
        <pt x="130" y="564" on="0"/>
        <pt x="180" y="610" on="0"/>
        <pt x="265" y="643" on="0"/>
        <pt x="337" y="660" on="0"/>
        <pt x="392" y="664" on="1"/>
        <pt x="473" y="670" on="0"/>
        <pt x="665" y="670" on="0"/>
        <pt x="959" y="631" on="0"/>
        <pt x="1065" y="607" on="1"/>
        <pt x="1083" y="650" on="1"/>
        <pt x="1130" y="650" on="1"/>
        <pt x="1130" y="439" on="1"/>
        <pt x="1083" y="439" on="1"/>
        <pt x="1045" y="493" on="0"/>
        <pt x="684" y="629" on="0"/>
        <pt x="431" y="629" on="0"/>
        <pt x="431" y="575" on="1"/>
        <pt x="431" y="524" on="0"/>
        <pt x="577" y="497" on="1"/>
        <pt x="642" y="485" on="0"/>
        <pt x="798" y="461" on="0"/>
        <pt x="955" y="422" on="0"/>
        <pt x="1085" y="368" on="0"/>
        <pt x="1166" y="271" on="0"/>
        <pt x="1166" y="206" on="1"/>
        <pt x="1166" y="87" on="0"/>
        <pt x="904" y="-21" on="0"/>
        <pt x="644" y="-21" on="1"/>
        <pt x="513" y="-21" on="0"/>
        <pt x="304" y="17" on="0"/>
        <pt x="169" y="58" on="1"/>
        <pt x="141" y="0" on="1"/>
        <pt x="94" y="0" on="1"/>
        <pt x="94" y="281" on="1"/>
        <pt x="141" y="281" on="1"/>
        <pt x="157" y="244" on="0"/>
        <pt x="261" y="155" on="0"/>
        <pt x="407" y="74" on="0"/>
        <pt x="599" y="20" on="0"/>
        <pt x="691" y="20" on="1"/>
        <pt x="858" y="20" on="0"/>
        <pt x="858" y="70" on="1"/>
        <pt x="858" y="101" on="0"/>
        <pt x="701" y="154" on="0"/>
        <pt x="477" y="203" on="0"/>
        <pt x="253" y="265" on="0"/>
        <pt x="96" y="374" on="0"/>
      </contour>
      <contour>
        <pt x="977" y="92" on="1"/>
        <pt x="977" y="150" on="0"/>
        <pt x="933" y="183" on="1"/>
        <pt x="887" y="217" on="0"/>
        <pt x="780" y="246" on="0"/>
        <pt x="716" y="261" on="0"/>
        <pt x="611" y="283" on="0"/>
        <pt x="496" y="310" on="0"/>
        <pt x="378" y="347" on="0"/>
        <pt x="318" y="376" on="1"/>
        <pt x="195" y="434" on="0"/>
        <pt x="177" y="529" on="1"/>
        <pt x="170" y="530" on="1"/>
        <pt x="157" y="501" on="0"/>
        <pt x="157" y="460" on="1"/>
        <pt x="157" y="391" on="0"/>
        <pt x="240" y="341" on="1"/>
        <pt x="338" y="281" on="0"/>
        <pt x="619" y="216" on="1"/>
        <pt x="681" y="201" on="0"/>
        <pt x="751" y="185" on="0"/>
        <pt x="832" y="164" on="0"/>
        <pt x="879" y="146" on="0"/>
        <pt x="903" y="133" on="1"/>
        <pt x="945" y="110" on="0"/>
        <pt x="973" y="68" on="1"/>
        <pt x="977" y="69" on="1"/>
      </contour>
      <contour>
        <pt x="778" y="716" on="1"/>
        <pt x="454" y="716" on="1"/>
        <pt x="320" y="862" on="1"/>
        <pt x="617" y="862" on="1"/>
        <pt x="721" y="750" on="1"/>
        <pt x="824" y="862" on="1"/>
        <pt x="911" y="862" on="1"/>
      </contour>
      <contour>
        <pt x="506" y="741" on="1"/>
        <pt x="568" y="741" on="1"/>
        <pt x="493" y="824" on="1"/>
        <pt x="431" y="824" on="1"/>
      </contour>
    </TTGlyph>
    <TTGlyph name="T" xMin="66" yMin="0" xMax="1055" yMax="650">
      <contour>
        <pt x="785" y="606" on="1"/>
        <pt x="747" y="606" on="0"/>
        <pt x="747" y="557" on="1"/>
        <pt x="747" y="152" on="1"/>
        <pt x="747" y="95" on="0"/>
        <pt x="807" y="43" on="0"/>
        <pt x="856" y="43" on="1"/>
        <pt x="977" y="43" on="1"/>
        <pt x="977" y="0" on="1"/>
        <pt x="127" y="0" on="1"/>
        <pt x="127" y="43" on="1"/>
        <pt x="248" y="43" on="1"/>
        <pt x="297" y="43" on="0"/>
        <pt x="356" y="95" on="0"/>
        <pt x="356" y="152" on="1"/>
        <pt x="356" y="557" on="1"/>
        <pt x="356" y="606" on="0"/>
        <pt x="319" y="606" on="1"/>
        <pt x="302" y="606" on="0"/>
        <pt x="241" y="556" on="0"/>
        <pt x="210" y="521" on="1"/>
        <pt x="148" y="451" on="0"/>
        <pt x="104" y="390" on="1"/>
        <pt x="86" y="365" on="1"/>
        <pt x="66" y="365" on="1"/>
        <pt x="66" y="650" on="1"/>
        <pt x="1055" y="650" on="1"/>
        <pt x="1055" y="365" on="1"/>
        <pt x="1017" y="365" on="1"/>
        <pt x="1001" y="388" on="0"/>
        <pt x="921" y="490" on="0"/>
        <pt x="864" y="554" on="0"/>
        <pt x="802" y="606" on="0"/>
      </contour>
      <contour>
        <pt x="489" y="43" on="1"/>
        <pt x="489" y="607" on="1"/>
        <pt x="424" y="607" on="1"/>
        <pt x="424" y="43" on="1"/>
      </contour>
    </TTGlyph>
    <TTGlyph name="Thorn" xMin="73" yMin="0" xMax="1433" yMax="650">
      <contour>
        <pt x="744" y="187" on="1"/>
        <pt x="845" y="187" on="1"/>
        <pt x="925" y="187" on="0"/>
        <pt x="978" y="245" on="1"/>
        <pt x="1009" y="278" on="0"/>
        <pt x="1009" y="373" on="0"/>
        <pt x="978" y="406" on="1"/>
        <pt x="926" y="464" on="0"/>
        <pt x="845" y="464" on="1"/>
        <pt x="744" y="464" on="1"/>
        <pt x="723" y="464" on="0"/>
        <pt x="694" y="434" on="0"/>
        <pt x="694" y="413" on="1"/>
        <pt x="694" y="237" on="1"/>
        <pt x="694" y="217" on="0"/>
        <pt x="723" y="187" on="0"/>
      </contour>
      <contour>
        <pt x="1156" y="284" on="0"/>
        <pt x="1156" y="368" on="0"/>
        <pt x="1099" y="447" on="0"/>
        <pt x="1060" y="461" on="1"/>
        <pt x="1055" y="458" on="1"/>
        <pt x="1087" y="409" on="0"/>
        <pt x="1087" y="243" on="0"/>
        <pt x="1055" y="194" on="1"/>
        <pt x="1060" y="191" on="1"/>
        <pt x="1099" y="205" on="0"/>
      </contour>
      <contour>
        <pt x="693" y="607" on="1"/>
        <pt x="693" y="577" on="1"/>
        <pt x="693" y="541" on="0"/>
        <pt x="720" y="509" on="0"/>
        <pt x="748" y="509" on="1"/>
        <pt x="1081" y="509" on="1"/>
        <pt x="1433" y="509" on="0"/>
        <pt x="1433" y="327" on="1"/>
        <pt x="1433" y="142" on="0"/>
        <pt x="1121" y="142" on="1"/>
        <pt x="748" y="142" on="1"/>
        <pt x="720" y="142" on="0"/>
        <pt x="693" y="110" on="0"/>
        <pt x="693" y="74" on="1"/>
        <pt x="693" y="43" on="1"/>
        <pt x="924" y="43" on="1"/>
        <pt x="924" y="0" on="1"/>
        <pt x="73" y="0" on="1"/>
        <pt x="73" y="43" on="1"/>
        <pt x="195" y="43" on="1"/>
        <pt x="244" y="43" on="0"/>
        <pt x="304" y="95" on="0"/>
        <pt x="304" y="151" on="1"/>
        <pt x="304" y="497" on="1"/>
        <pt x="304" y="542" on="0"/>
        <pt x="240" y="607" on="0"/>
        <pt x="195" y="607" on="1"/>
        <pt x="73" y="607" on="1"/>
        <pt x="73" y="650" on="1"/>
        <pt x="924" y="650" on="1"/>
        <pt x="924" y="607" on="1"/>
      </contour>
      <contour>
        <pt x="436" y="43" on="1"/>
        <pt x="436" y="607" on="1"/>
        <pt x="371" y="607" on="1"/>
        <pt x="371" y="43" on="1"/>
      </contour>
    </TTGlyph>
    <TTGlyph name="U" xMin="40" yMin="-22" xMax="1212" yMax="650">
      <contour>
        <pt x="757" y="650" on="1"/>
        <pt x="1212" y="650" on="1"/>
        <pt x="1212" y="607" on="1"/>
        <pt x="1169" y="607" on="0"/>
        <pt x="1107" y="593" on="0"/>
        <pt x="1076" y="574" on="1"/>
        <pt x="1012" y="535" on="0"/>
        <pt x="1012" y="411" on="1"/>
        <pt x="1012" y="220" on="1"/>
        <pt x="1012" y="113" on="0"/>
        <pt x="980" y="72" on="1"/>
        <pt x="942" y="24" on="0"/>
        <pt x="876" y="4" on="1"/>
        <pt x="787" y="-22" on="0"/>
        <pt x="528" y="-22" on="0"/>
        <pt x="348" y="5" on="0"/>
        <pt x="253" y="43" on="0"/>
        <pt x="199" y="102" on="0"/>
        <pt x="186" y="147" on="0"/>
        <pt x="186" y="177" on="1"/>
        <pt x="186" y="499" on="1"/>
        <pt x="186" y="556" on="0"/>
        <pt x="127" y="607" on="0"/>
        <pt x="78" y="607" on="1"/>
        <pt x="40" y="607" on="1"/>
        <pt x="40" y="650" on="1"/>
        <pt x="701" y="650" on="1"/>
        <pt x="701" y="607" on="1"/>
        <pt x="685" y="607" on="1"/>
        <pt x="636" y="607" on="0"/>
        <pt x="577" y="556" on="0"/>
        <pt x="577" y="499" on="1"/>
        <pt x="577" y="167" on="1"/>
        <pt x="577" y="95" on="0"/>
        <pt x="630" y="31" on="0"/>
        <pt x="769" y="31" on="0"/>
        <pt x="873" y="53" on="0"/>
        <pt x="926" y="95" on="0"/>
        <pt x="947" y="142" on="0"/>
        <pt x="947" y="174" on="1"/>
        <pt x="947" y="411" on="1"/>
        <pt x="947" y="460" on="0"/>
        <pt x="918" y="535" on="0"/>
        <pt x="878" y="575" on="0"/>
        <pt x="850" y="588" on="1"/>
        <pt x="806" y="607" on="0"/>
        <pt x="757" y="607" on="1"/>
      </contour>
      <contour>
        <pt x="254" y="607" on="1"/>
        <pt x="254" y="210" on="1"/>
        <pt x="254" y="122" on="0"/>
        <pt x="295" y="96" on="1"/>
        <pt x="308" y="88" on="0"/>
        <pt x="319" y="88" on="1"/>
        <pt x="319" y="607" on="1"/>
      </contour>
    </TTGlyph>
    <TTGlyph name="Uacute" xMin="40" yMin="-22" xMax="1212" yMax="862">
      <contour>
        <pt x="757" y="650" on="1"/>
        <pt x="1212" y="650" on="1"/>
        <pt x="1212" y="607" on="1"/>
        <pt x="1169" y="607" on="0"/>
        <pt x="1107" y="593" on="0"/>
        <pt x="1076" y="574" on="1"/>
        <pt x="1012" y="535" on="0"/>
        <pt x="1012" y="411" on="1"/>
        <pt x="1012" y="220" on="1"/>
        <pt x="1012" y="113" on="0"/>
        <pt x="980" y="72" on="1"/>
        <pt x="942" y="24" on="0"/>
        <pt x="876" y="4" on="1"/>
        <pt x="787" y="-22" on="0"/>
        <pt x="528" y="-22" on="0"/>
        <pt x="348" y="5" on="0"/>
        <pt x="253" y="43" on="0"/>
        <pt x="199" y="102" on="0"/>
        <pt x="186" y="147" on="0"/>
        <pt x="186" y="177" on="1"/>
        <pt x="186" y="499" on="1"/>
        <pt x="186" y="556" on="0"/>
        <pt x="127" y="607" on="0"/>
        <pt x="78" y="607" on="1"/>
        <pt x="40" y="607" on="1"/>
        <pt x="40" y="650" on="1"/>
        <pt x="701" y="650" on="1"/>
        <pt x="701" y="607" on="1"/>
        <pt x="685" y="607" on="1"/>
        <pt x="636" y="607" on="0"/>
        <pt x="577" y="556" on="0"/>
        <pt x="577" y="499" on="1"/>
        <pt x="577" y="167" on="1"/>
        <pt x="577" y="95" on="0"/>
        <pt x="630" y="31" on="0"/>
        <pt x="769" y="31" on="0"/>
        <pt x="873" y="53" on="0"/>
        <pt x="926" y="95" on="0"/>
        <pt x="947" y="142" on="0"/>
        <pt x="947" y="174" on="1"/>
        <pt x="947" y="411" on="1"/>
        <pt x="947" y="460" on="0"/>
        <pt x="918" y="535" on="0"/>
        <pt x="878" y="575" on="0"/>
        <pt x="850" y="588" on="1"/>
        <pt x="806" y="607" on="0"/>
        <pt x="757" y="607" on="1"/>
      </contour>
      <contour>
        <pt x="427" y="716" on="1"/>
        <pt x="373" y="716" on="1"/>
        <pt x="373" y="752" on="1"/>
        <pt x="482" y="752" on="0"/>
        <pt x="591" y="804" on="0"/>
        <pt x="632" y="862" on="1"/>
        <pt x="923" y="862" on="1"/>
        <pt x="920" y="849" on="0"/>
        <pt x="896" y="807" on="0"/>
        <pt x="866" y="775" on="0"/>
        <pt x="810" y="742" on="0"/>
        <pt x="775" y="734" on="1"/>
        <pt x="697" y="716" on="0"/>
      </contour>
      <contour>
        <pt x="254" y="607" on="1"/>
        <pt x="254" y="210" on="1"/>
        <pt x="254" y="122" on="0"/>
        <pt x="295" y="96" on="1"/>
        <pt x="308" y="88" on="0"/>
        <pt x="319" y="88" on="1"/>
        <pt x="319" y="607" on="1"/>
      </contour>
      <contour>
        <pt x="571" y="759" on="1"/>
        <pt x="571" y="755" on="1"/>
        <pt x="686" y="761" on="0"/>
        <pt x="736" y="834" on="1"/>
        <pt x="672" y="834" on="1"/>
        <pt x="660" y="809" on="0"/>
        <pt x="599" y="768" on="0"/>
      </contour>
    </TTGlyph>
    <TTGlyph name="Ucircumflex" xMin="40" yMin="-22" xMax="1212" yMax="862">
      <contour>
        <pt x="757" y="650" on="1"/>
        <pt x="1212" y="650" on="1"/>
        <pt x="1212" y="607" on="1"/>
        <pt x="1169" y="607" on="0"/>
        <pt x="1107" y="593" on="0"/>
        <pt x="1076" y="574" on="1"/>
        <pt x="1012" y="535" on="0"/>
        <pt x="1012" y="411" on="1"/>
        <pt x="1012" y="220" on="1"/>
        <pt x="1012" y="113" on="0"/>
        <pt x="980" y="72" on="1"/>
        <pt x="942" y="24" on="0"/>
        <pt x="876" y="4" on="1"/>
        <pt x="787" y="-22" on="0"/>
        <pt x="528" y="-22" on="0"/>
        <pt x="348" y="5" on="0"/>
        <pt x="253" y="43" on="0"/>
        <pt x="199" y="102" on="0"/>
        <pt x="186" y="147" on="0"/>
        <pt x="186" y="177" on="1"/>
        <pt x="186" y="499" on="1"/>
        <pt x="186" y="556" on="0"/>
        <pt x="127" y="607" on="0"/>
        <pt x="78" y="607" on="1"/>
        <pt x="40" y="607" on="1"/>
        <pt x="40" y="650" on="1"/>
        <pt x="701" y="650" on="1"/>
        <pt x="701" y="607" on="1"/>
        <pt x="685" y="607" on="1"/>
        <pt x="636" y="607" on="0"/>
        <pt x="577" y="556" on="0"/>
        <pt x="577" y="499" on="1"/>
        <pt x="577" y="167" on="1"/>
        <pt x="577" y="95" on="0"/>
        <pt x="630" y="31" on="0"/>
        <pt x="769" y="31" on="0"/>
        <pt x="873" y="53" on="0"/>
        <pt x="926" y="95" on="0"/>
        <pt x="947" y="142" on="0"/>
        <pt x="947" y="174" on="1"/>
        <pt x="947" y="411" on="1"/>
        <pt x="947" y="460" on="0"/>
        <pt x="918" y="535" on="0"/>
        <pt x="878" y="575" on="0"/>
        <pt x="850" y="588" on="1"/>
        <pt x="806" y="607" on="0"/>
        <pt x="757" y="607" on="1"/>
      </contour>
      <contour>
        <pt x="492" y="862" on="1"/>
        <pt x="816" y="862" on="1"/>
        <pt x="949" y="716" on="1"/>
        <pt x="862" y="716" on="1"/>
        <pt x="759" y="828" on="1"/>
        <pt x="655" y="716" on="1"/>
        <pt x="358" y="716" on="1"/>
      </contour>
      <contour>
        <pt x="254" y="607" on="1"/>
        <pt x="254" y="210" on="1"/>
        <pt x="254" y="122" on="0"/>
        <pt x="295" y="96" on="1"/>
        <pt x="308" y="88" on="0"/>
        <pt x="319" y="88" on="1"/>
        <pt x="319" y="607" on="1"/>
      </contour>
      <contour>
        <pt x="606" y="837" on="1"/>
        <pt x="544" y="837" on="1"/>
        <pt x="469" y="754" on="1"/>
        <pt x="531" y="754" on="1"/>
      </contour>
    </TTGlyph>
    <TTGlyph name="Udieresis" xMin="40" yMin="-22" xMax="1212" yMax="913">
      <contour>
        <pt x="757" y="650" on="1"/>
        <pt x="1212" y="650" on="1"/>
        <pt x="1212" y="607" on="1"/>
        <pt x="1169" y="607" on="0"/>
        <pt x="1107" y="593" on="0"/>
        <pt x="1076" y="574" on="1"/>
        <pt x="1012" y="535" on="0"/>
        <pt x="1012" y="411" on="1"/>
        <pt x="1012" y="220" on="1"/>
        <pt x="1012" y="113" on="0"/>
        <pt x="980" y="72" on="1"/>
        <pt x="942" y="24" on="0"/>
        <pt x="876" y="4" on="1"/>
        <pt x="787" y="-22" on="0"/>
        <pt x="528" y="-22" on="0"/>
        <pt x="348" y="5" on="0"/>
        <pt x="253" y="43" on="0"/>
        <pt x="199" y="102" on="0"/>
        <pt x="186" y="147" on="0"/>
        <pt x="186" y="177" on="1"/>
        <pt x="186" y="499" on="1"/>
        <pt x="186" y="556" on="0"/>
        <pt x="127" y="607" on="0"/>
        <pt x="78" y="607" on="1"/>
        <pt x="40" y="607" on="1"/>
        <pt x="40" y="650" on="1"/>
        <pt x="701" y="650" on="1"/>
        <pt x="701" y="607" on="1"/>
        <pt x="685" y="607" on="1"/>
        <pt x="636" y="607" on="0"/>
        <pt x="577" y="556" on="0"/>
        <pt x="577" y="499" on="1"/>
        <pt x="577" y="167" on="1"/>
        <pt x="577" y="95" on="0"/>
        <pt x="630" y="31" on="0"/>
        <pt x="769" y="31" on="0"/>
        <pt x="873" y="53" on="0"/>
        <pt x="926" y="95" on="0"/>
        <pt x="947" y="142" on="0"/>
        <pt x="947" y="174" on="1"/>
        <pt x="947" y="411" on="1"/>
        <pt x="947" y="460" on="0"/>
        <pt x="918" y="535" on="0"/>
        <pt x="878" y="575" on="0"/>
        <pt x="850" y="588" on="1"/>
        <pt x="806" y="607" on="0"/>
        <pt x="757" y="607" on="1"/>
      </contour>
      <contour>
        <pt x="573" y="845" on="0"/>
        <pt x="573" y="751" on="0"/>
        <pt x="493" y="685" on="0"/>
        <pt x="379" y="685" on="0"/>
        <pt x="299" y="751" on="0"/>
        <pt x="299" y="845" on="0"/>
        <pt x="379" y="913" on="0"/>
        <pt x="493" y="913" on="0"/>
      </contour>
      <contour>
        <pt x="1029" y="845" on="0"/>
        <pt x="1029" y="751" on="0"/>
        <pt x="949" y="685" on="0"/>
        <pt x="835" y="685" on="0"/>
        <pt x="755" y="751" on="0"/>
        <pt x="755" y="845" on="0"/>
        <pt x="835" y="913" on="0"/>
        <pt x="949" y="913" on="0"/>
      </contour>
      <contour>
        <pt x="254" y="607" on="1"/>
        <pt x="254" y="210" on="1"/>
        <pt x="254" y="122" on="0"/>
        <pt x="295" y="96" on="1"/>
        <pt x="308" y="88" on="0"/>
        <pt x="319" y="88" on="1"/>
        <pt x="319" y="607" on="1"/>
      </contour>
      <contour>
        <pt x="377" y="745" on="0"/>
        <pt x="377" y="851" on="0"/>
        <pt x="408" y="885" on="1"/>
        <pt x="405" y="888" on="1"/>
        <pt x="374" y="875" on="0"/>
        <pt x="336" y="826" on="0"/>
        <pt x="336" y="770" on="0"/>
        <pt x="374" y="721" on="0"/>
        <pt x="405" y="708" on="1"/>
        <pt x="408" y="711" on="1"/>
      </contour>
      <contour>
        <pt x="833" y="745" on="0"/>
        <pt x="833" y="851" on="0"/>
        <pt x="864" y="885" on="1"/>
        <pt x="861" y="888" on="1"/>
        <pt x="830" y="875" on="0"/>
        <pt x="792" y="826" on="0"/>
        <pt x="792" y="770" on="0"/>
        <pt x="830" y="721" on="0"/>
        <pt x="861" y="708" on="1"/>
        <pt x="864" y="711" on="1"/>
      </contour>
    </TTGlyph>
    <TTGlyph name="Ugrave" xMin="40" yMin="-22" xMax="1212" yMax="862">
      <contour>
        <pt x="757" y="650" on="1"/>
        <pt x="1212" y="650" on="1"/>
        <pt x="1212" y="607" on="1"/>
        <pt x="1169" y="607" on="0"/>
        <pt x="1107" y="593" on="0"/>
        <pt x="1076" y="574" on="1"/>
        <pt x="1012" y="535" on="0"/>
        <pt x="1012" y="411" on="1"/>
        <pt x="1012" y="220" on="1"/>
        <pt x="1012" y="113" on="0"/>
        <pt x="980" y="72" on="1"/>
        <pt x="942" y="24" on="0"/>
        <pt x="876" y="4" on="1"/>
        <pt x="787" y="-22" on="0"/>
        <pt x="528" y="-22" on="0"/>
        <pt x="348" y="5" on="0"/>
        <pt x="253" y="43" on="0"/>
        <pt x="199" y="102" on="0"/>
        <pt x="186" y="147" on="0"/>
        <pt x="186" y="177" on="1"/>
        <pt x="186" y="499" on="1"/>
        <pt x="186" y="556" on="0"/>
        <pt x="127" y="607" on="0"/>
        <pt x="78" y="607" on="1"/>
        <pt x="40" y="607" on="1"/>
        <pt x="40" y="650" on="1"/>
        <pt x="701" y="650" on="1"/>
        <pt x="701" y="607" on="1"/>
        <pt x="685" y="607" on="1"/>
        <pt x="636" y="607" on="0"/>
        <pt x="577" y="556" on="0"/>
        <pt x="577" y="499" on="1"/>
        <pt x="577" y="167" on="1"/>
        <pt x="577" y="95" on="0"/>
        <pt x="630" y="31" on="0"/>
        <pt x="769" y="31" on="0"/>
        <pt x="873" y="53" on="0"/>
        <pt x="926" y="95" on="0"/>
        <pt x="947" y="142" on="0"/>
        <pt x="947" y="174" on="1"/>
        <pt x="947" y="411" on="1"/>
        <pt x="947" y="460" on="0"/>
        <pt x="918" y="535" on="0"/>
        <pt x="878" y="575" on="0"/>
        <pt x="850" y="588" on="1"/>
        <pt x="806" y="607" on="0"/>
        <pt x="757" y="607" on="1"/>
      </contour>
      <contour>
        <pt x="893" y="752" on="1"/>
        <pt x="893" y="716" on="1"/>
        <pt x="839" y="716" on="1"/>
        <pt x="569" y="716" on="0"/>
        <pt x="491" y="734" on="1"/>
        <pt x="420" y="750" on="0"/>
        <pt x="385" y="792" on="1"/>
        <pt x="352" y="830" on="0"/>
        <pt x="346" y="852" on="1"/>
        <pt x="343" y="862" on="1"/>
        <pt x="634" y="862" on="1"/>
        <pt x="675" y="804" on="0"/>
        <pt x="784" y="752" on="0"/>
      </contour>
      <contour>
        <pt x="254" y="607" on="1"/>
        <pt x="254" y="210" on="1"/>
        <pt x="254" y="122" on="0"/>
        <pt x="295" y="96" on="1"/>
        <pt x="308" y="88" on="0"/>
        <pt x="319" y="88" on="1"/>
        <pt x="319" y="607" on="1"/>
      </contour>
      <contour>
        <pt x="581" y="755" on="1"/>
        <pt x="581" y="759" on="1"/>
        <pt x="553" y="768" on="0"/>
        <pt x="492" y="809" on="0"/>
        <pt x="480" y="834" on="1"/>
        <pt x="416" y="834" on="1"/>
        <pt x="466" y="761" on="0"/>
      </contour>
    </TTGlyph>
    <TTGlyph name="V" xMin="-14" yMin="-23" xMax="1273" yMax="650">
      <contour>
        <pt x="1273" y="650" on="1"/>
        <pt x="1273" y="607" on="1"/>
        <pt x="1222" y="607" on="1"/>
        <pt x="654" y="-23" on="1"/>
        <pt x="618" y="-23" on="1"/>
        <pt x="53" y="607" on="1"/>
        <pt x="-14" y="607" on="1"/>
        <pt x="-14" y="650" on="1"/>
        <pt x="690" y="650" on="1"/>
        <pt x="690" y="607" on="1"/>
        <pt x="662" y="607" on="1"/>
        <pt x="632" y="607" on="0"/>
        <pt x="599" y="565" on="0"/>
        <pt x="599" y="533" on="1"/>
        <pt x="599" y="485" on="0"/>
        <pt x="634" y="450" on="1"/>
        <pt x="821" y="260" on="1"/>
        <pt x="951" y="402" on="1"/>
        <pt x="981" y="433" on="0"/>
        <pt x="981" y="526" on="0"/>
        <pt x="881" y="607" on="0"/>
        <pt x="805" y="607" on="1"/>
        <pt x="755" y="607" on="1"/>
        <pt x="755" y="650" on="1"/>
      </contour>
      <contour>
        <pt x="221" y="607" on="1"/>
        <pt x="141" y="607" on="1"/>
        <pt x="651" y="38" on="1"/>
        <pt x="691" y="83" on="1"/>
      </contour>
    </TTGlyph>
    <TTGlyph name="W" xMin="-14" yMin="-23" xMax="2041" yMax="650">
      <contour>
        <pt x="1459" y="607" on="1"/>
        <pt x="1432" y="607" on="1"/>
        <pt x="1402" y="607" on="0"/>
        <pt x="1369" y="565" on="0"/>
        <pt x="1369" y="533" on="1"/>
        <pt x="1369" y="485" on="0"/>
        <pt x="1404" y="450" on="1"/>
        <pt x="1589" y="260" on="1"/>
        <pt x="1720" y="402" on="1"/>
        <pt x="1750" y="433" on="0"/>
        <pt x="1750" y="527" on="0"/>
        <pt x="1650" y="607" on="0"/>
        <pt x="1573" y="607" on="1"/>
        <pt x="1524" y="607" on="1"/>
        <pt x="1524" y="650" on="1"/>
        <pt x="2041" y="650" on="1"/>
        <pt x="2041" y="607" on="1"/>
        <pt x="1992" y="607" on="1"/>
        <pt x="1423" y="-23" on="1"/>
        <pt x="1387" y="-23" on="1"/>
        <pt x="1021" y="383" on="1"/>
        <pt x="654" y="-23" on="1"/>
        <pt x="618" y="-23" on="1"/>
        <pt x="53" y="607" on="1"/>
        <pt x="-14" y="607" on="1"/>
        <pt x="-14" y="650" on="1"/>
        <pt x="690" y="650" on="1"/>
        <pt x="690" y="607" on="1"/>
        <pt x="662" y="607" on="1"/>
        <pt x="632" y="607" on="0"/>
        <pt x="599" y="565" on="0"/>
        <pt x="599" y="533" on="1"/>
        <pt x="599" y="485" on="0"/>
        <pt x="634" y="450" on="1"/>
        <pt x="821" y="260" on="1"/>
        <pt x="978" y="433" on="1"/>
        <pt x="822" y="607" on="1"/>
        <pt x="755" y="607" on="1"/>
        <pt x="755" y="650" on="1"/>
        <pt x="1459" y="650" on="1"/>
      </contour>
      <contour>
        <pt x="990" y="607" on="1"/>
        <pt x="910" y="607" on="1"/>
        <pt x="1420" y="38" on="1"/>
        <pt x="1460" y="83" on="1"/>
      </contour>
      <contour>
        <pt x="221" y="607" on="1"/>
        <pt x="141" y="607" on="1"/>
        <pt x="651" y="38" on="1"/>
        <pt x="691" y="83" on="1"/>
      </contour>
    </TTGlyph>
    <TTGlyph name="X" xMin="13" yMin="0" xMax="1360" yMax="650">
      <contour>
        <pt x="1282" y="43" on="1"/>
        <pt x="1360" y="43" on="1"/>
        <pt x="1360" y="0" on="1"/>
        <pt x="634" y="0" on="1"/>
        <pt x="634" y="43" on="1"/>
        <pt x="674" y="43" on="1"/>
        <pt x="727" y="43" on="0"/>
        <pt x="727" y="72" on="1"/>
        <pt x="727" y="98" on="0"/>
        <pt x="677" y="151" on="1"/>
        <pt x="577" y="254" on="1"/>
        <pt x="508" y="209" on="1"/>
        <pt x="421" y="152" on="0"/>
        <pt x="421" y="102" on="1"/>
        <pt x="421" y="75" on="0"/>
        <pt x="455" y="43" on="0"/>
        <pt x="481" y="43" on="1"/>
        <pt x="576" y="43" on="1"/>
        <pt x="576" y="0" on="1"/>
        <pt x="13" y="0" on="1"/>
        <pt x="13" y="43" on="1"/>
        <pt x="47" y="43" on="1"/>
        <pt x="141" y="43" on="0"/>
        <pt x="263" y="121" on="1"/>
        <pt x="535" y="296" on="1"/>
        <pt x="340" y="497" on="1"/>
        <pt x="296" y="542" on="0"/>
        <pt x="170" y="607" on="0"/>
        <pt x="125" y="607" on="1"/>
        <pt x="64" y="607" on="1"/>
        <pt x="64" y="650" on="1"/>
        <pt x="751" y="650" on="1"/>
        <pt x="751" y="607" on="1"/>
        <pt x="733" y="607" on="1"/>
        <pt x="687" y="607" on="0"/>
        <pt x="687" y="572" on="1"/>
        <pt x="687" y="540" on="0"/>
        <pt x="730" y="497" on="1"/>
        <pt x="805" y="420" on="1"/>
        <pt x="833" y="439" on="1"/>
        <pt x="920" y="498" on="0"/>
        <pt x="920" y="546" on="1"/>
        <pt x="920" y="573" on="0"/>
        <pt x="885" y="607" on="0"/>
        <pt x="860" y="607" on="1"/>
        <pt x="841" y="607" on="1"/>
        <pt x="841" y="649" on="1"/>
        <pt x="1327" y="649" on="1"/>
        <pt x="1327" y="607" on="1"/>
        <pt x="1294" y="607" on="1"/>
        <pt x="1207" y="607" on="0"/>
        <pt x="1079" y="525" on="1"/>
        <pt x="849" y="376" on="1"/>
        <pt x="1067" y="151" on="1"/>
        <pt x="1172" y="43" on="0"/>
      </contour>
      <contour>
        <pt x="865" y="43" on="1"/>
        <pt x="942" y="43" on="1"/>
        <pt x="390" y="607" on="1"/>
        <pt x="313" y="607" on="1"/>
      </contour>
    </TTGlyph>
    <TTGlyph name="Y" xMin="-14" yMin="0" xMax="1323" yMax="650">
      <contour>
        <pt x="800" y="650" on="1"/>
        <pt x="1323" y="650" on="1"/>
        <pt x="1323" y="607" on="1"/>
        <pt x="1257" y="607" on="1"/>
        <pt x="818" y="291" on="1"/>
        <pt x="818" y="151" on="1"/>
        <pt x="818" y="95" on="0"/>
        <pt x="878" y="43" on="0"/>
        <pt x="927" y="43" on="1"/>
        <pt x="1048" y="43" on="1"/>
        <pt x="1048" y="0" on="1"/>
        <pt x="197" y="0" on="1"/>
        <pt x="197" y="43" on="1"/>
        <pt x="319" y="43" on="1"/>
        <pt x="368" y="43" on="0"/>
        <pt x="427" y="95" on="0"/>
        <pt x="427" y="151" on="1"/>
        <pt x="427" y="270" on="1"/>
        <pt x="87" y="607" on="1"/>
        <pt x="-14" y="607" on="1"/>
        <pt x="-14" y="650" on="1"/>
        <pt x="735" y="650" on="1"/>
        <pt x="735" y="607" on="1"/>
        <pt x="707" y="607" on="1"/>
        <pt x="685" y="607" on="0"/>
        <pt x="659" y="581" on="0"/>
        <pt x="659" y="561" on="1"/>
        <pt x="659" y="527" on="0"/>
        <pt x="689" y="498" on="1"/>
        <pt x="818" y="370" on="1"/>
        <pt x="877" y="418" on="1"/>
        <pt x="949" y="476" on="0"/>
        <pt x="949" y="534" on="1"/>
        <pt x="949" y="566" on="0"/>
        <pt x="897" y="607" on="0"/>
        <pt x="850" y="607" on="1"/>
        <pt x="800" y="607" on="1"/>
      </contour>
      <contour>
        <pt x="495" y="43" on="1"/>
        <pt x="560" y="43" on="1"/>
        <pt x="560" y="306" on="1"/>
        <pt x="255" y="607" on="1"/>
        <pt x="176" y="607" on="1"/>
        <pt x="495" y="292" on="1"/>
      </contour>
    </TTGlyph>
    <TTGlyph name="Yacute" xMin="-14" yMin="0" xMax="1323" yMax="862">
      <contour>
        <pt x="800" y="650" on="1"/>
        <pt x="1323" y="650" on="1"/>
        <pt x="1323" y="607" on="1"/>
        <pt x="1257" y="607" on="1"/>
        <pt x="818" y="291" on="1"/>
        <pt x="818" y="151" on="1"/>
        <pt x="818" y="95" on="0"/>
        <pt x="878" y="43" on="0"/>
        <pt x="927" y="43" on="1"/>
        <pt x="1048" y="43" on="1"/>
        <pt x="1048" y="0" on="1"/>
        <pt x="197" y="0" on="1"/>
        <pt x="197" y="43" on="1"/>
        <pt x="319" y="43" on="1"/>
        <pt x="368" y="43" on="0"/>
        <pt x="427" y="95" on="0"/>
        <pt x="427" y="151" on="1"/>
        <pt x="427" y="270" on="1"/>
        <pt x="87" y="607" on="1"/>
        <pt x="-14" y="607" on="1"/>
        <pt x="-14" y="650" on="1"/>
        <pt x="735" y="650" on="1"/>
        <pt x="735" y="607" on="1"/>
        <pt x="707" y="607" on="1"/>
        <pt x="685" y="607" on="0"/>
        <pt x="659" y="581" on="0"/>
        <pt x="659" y="561" on="1"/>
        <pt x="659" y="527" on="0"/>
        <pt x="689" y="498" on="1"/>
        <pt x="818" y="370" on="1"/>
        <pt x="877" y="418" on="1"/>
        <pt x="949" y="476" on="0"/>
        <pt x="949" y="534" on="1"/>
        <pt x="949" y="566" on="0"/>
        <pt x="897" y="607" on="0"/>
        <pt x="850" y="607" on="1"/>
        <pt x="800" y="607" on="1"/>
      </contour>
      <contour>
        <pt x="495" y="43" on="1"/>
        <pt x="560" y="43" on="1"/>
        <pt x="560" y="306" on="1"/>
        <pt x="255" y="607" on="1"/>
        <pt x="176" y="607" on="1"/>
        <pt x="495" y="292" on="1"/>
      </contour>
      <contour>
        <pt x="480" y="716" on="1"/>
        <pt x="426" y="716" on="1"/>
        <pt x="426" y="752" on="1"/>
        <pt x="535" y="752" on="0"/>
        <pt x="644" y="804" on="0"/>
        <pt x="685" y="862" on="1"/>
        <pt x="976" y="862" on="1"/>
        <pt x="973" y="849" on="0"/>
        <pt x="949" y="807" on="0"/>
        <pt x="919" y="775" on="0"/>
        <pt x="863" y="742" on="0"/>
        <pt x="828" y="734" on="1"/>
        <pt x="750" y="716" on="0"/>
      </contour>
      <contour>
        <pt x="624" y="759" on="1"/>
        <pt x="624" y="755" on="1"/>
        <pt x="739" y="761" on="0"/>
        <pt x="789" y="834" on="1"/>
        <pt x="725" y="834" on="1"/>
        <pt x="713" y="809" on="0"/>
        <pt x="652" y="768" on="0"/>
      </contour>
    </TTGlyph>
    <TTGlyph name="Ydieresis" xMin="-14" yMin="0" xMax="1323" yMax="913">
      <contour>
        <pt x="800" y="650" on="1"/>
        <pt x="1323" y="650" on="1"/>
        <pt x="1323" y="607" on="1"/>
        <pt x="1257" y="607" on="1"/>
        <pt x="818" y="291" on="1"/>
        <pt x="818" y="151" on="1"/>
        <pt x="818" y="95" on="0"/>
        <pt x="878" y="43" on="0"/>
        <pt x="927" y="43" on="1"/>
        <pt x="1048" y="43" on="1"/>
        <pt x="1048" y="0" on="1"/>
        <pt x="197" y="0" on="1"/>
        <pt x="197" y="43" on="1"/>
        <pt x="319" y="43" on="1"/>
        <pt x="368" y="43" on="0"/>
        <pt x="427" y="95" on="0"/>
        <pt x="427" y="151" on="1"/>
        <pt x="427" y="270" on="1"/>
        <pt x="87" y="607" on="1"/>
        <pt x="-14" y="607" on="1"/>
        <pt x="-14" y="650" on="1"/>
        <pt x="735" y="650" on="1"/>
        <pt x="735" y="607" on="1"/>
        <pt x="707" y="607" on="1"/>
        <pt x="685" y="607" on="0"/>
        <pt x="659" y="581" on="0"/>
        <pt x="659" y="561" on="1"/>
        <pt x="659" y="527" on="0"/>
        <pt x="689" y="498" on="1"/>
        <pt x="818" y="370" on="1"/>
        <pt x="877" y="418" on="1"/>
        <pt x="949" y="476" on="0"/>
        <pt x="949" y="534" on="1"/>
        <pt x="949" y="566" on="0"/>
        <pt x="897" y="607" on="0"/>
        <pt x="850" y="607" on="1"/>
        <pt x="800" y="607" on="1"/>
      </contour>
      <contour>
        <pt x="495" y="43" on="1"/>
        <pt x="560" y="43" on="1"/>
        <pt x="560" y="306" on="1"/>
        <pt x="255" y="607" on="1"/>
        <pt x="176" y="607" on="1"/>
        <pt x="495" y="292" on="1"/>
      </contour>
      <contour>
        <pt x="1019" y="845" on="0"/>
        <pt x="1019" y="751" on="0"/>
        <pt x="939" y="685" on="0"/>
        <pt x="825" y="685" on="0"/>
        <pt x="745" y="751" on="0"/>
        <pt x="745" y="845" on="0"/>
        <pt x="825" y="913" on="0"/>
        <pt x="939" y="913" on="0"/>
      </contour>
      <contour>
        <pt x="563" y="845" on="0"/>
        <pt x="563" y="751" on="0"/>
        <pt x="483" y="685" on="0"/>
        <pt x="369" y="685" on="0"/>
        <pt x="289" y="751" on="0"/>
        <pt x="289" y="845" on="0"/>
        <pt x="369" y="913" on="0"/>
        <pt x="483" y="913" on="0"/>
      </contour>
      <contour>
        <pt x="367" y="745" on="0"/>
        <pt x="367" y="851" on="0"/>
        <pt x="398" y="885" on="1"/>
        <pt x="395" y="888" on="1"/>
        <pt x="364" y="875" on="0"/>
        <pt x="326" y="826" on="0"/>
        <pt x="326" y="770" on="0"/>
        <pt x="364" y="721" on="0"/>
        <pt x="395" y="708" on="1"/>
        <pt x="398" y="711" on="1"/>
      </contour>
      <contour>
        <pt x="823" y="745" on="0"/>
        <pt x="823" y="851" on="0"/>
        <pt x="854" y="885" on="1"/>
        <pt x="851" y="888" on="1"/>
        <pt x="820" y="875" on="0"/>
        <pt x="782" y="826" on="0"/>
        <pt x="782" y="770" on="0"/>
        <pt x="820" y="721" on="0"/>
        <pt x="851" y="708" on="1"/>
        <pt x="854" y="711" on="1"/>
      </contour>
    </TTGlyph>
    <TTGlyph name="Z" xMin="54" yMin="0" xMax="1119" yMax="650">
      <contour>
        <pt x="1119" y="607" on="1"/>
        <pt x="1098" y="607" on="1"/>
        <pt x="548" y="43" on="1"/>
        <pt x="666" y="43" on="1"/>
        <pt x="842" y="43" on="0"/>
        <pt x="943" y="109" on="1"/>
        <pt x="992" y="141" on="0"/>
        <pt x="1045" y="190" on="0"/>
        <pt x="1075" y="226" on="1"/>
        <pt x="1104" y="226" on="1"/>
        <pt x="1104" y="0" on="1"/>
        <pt x="54" y="0" on="1"/>
        <pt x="54" y="43" on="1"/>
        <pt x="77" y="43" on="1"/>
        <pt x="626" y="607" on="1"/>
        <pt x="569" y="607" on="1"/>
        <pt x="500" y="607" on="0"/>
        <pt x="375" y="580" on="0"/>
        <pt x="292" y="545" on="0"/>
        <pt x="207" y="487" on="0"/>
        <pt x="168" y="451" on="0"/>
        <pt x="141" y="424" on="1"/>
        <pt x="112" y="424" on="1"/>
        <pt x="112" y="650" on="1"/>
        <pt x="1119" y="650" on="1"/>
      </contour>
      <contour>
        <pt x="795" y="607" on="1"/>
        <pt x="714" y="607" on="1"/>
        <pt x="165" y="43" on="1"/>
        <pt x="250" y="43" on="1"/>
      </contour>
    </TTGlyph>
    <TTGlyph name="Zcaron" xMin="54" yMin="0" xMax="1119" yMax="862">
      <contour>
        <pt x="1119" y="607" on="1"/>
        <pt x="1098" y="607" on="1"/>
        <pt x="548" y="43" on="1"/>
        <pt x="666" y="43" on="1"/>
        <pt x="842" y="43" on="0"/>
        <pt x="943" y="109" on="1"/>
        <pt x="992" y="141" on="0"/>
        <pt x="1045" y="190" on="0"/>
        <pt x="1075" y="226" on="1"/>
        <pt x="1104" y="226" on="1"/>
        <pt x="1104" y="0" on="1"/>
        <pt x="54" y="0" on="1"/>
        <pt x="54" y="43" on="1"/>
        <pt x="77" y="43" on="1"/>
        <pt x="626" y="607" on="1"/>
        <pt x="569" y="607" on="1"/>
        <pt x="500" y="607" on="0"/>
        <pt x="375" y="580" on="0"/>
        <pt x="292" y="545" on="0"/>
        <pt x="207" y="487" on="0"/>
        <pt x="168" y="451" on="0"/>
        <pt x="141" y="424" on="1"/>
        <pt x="112" y="424" on="1"/>
        <pt x="112" y="650" on="1"/>
        <pt x="1119" y="650" on="1"/>
      </contour>
      <contour>
        <pt x="714" y="607" on="1"/>
        <pt x="165" y="43" on="1"/>
        <pt x="250" y="43" on="1"/>
        <pt x="795" y="607" on="1"/>
      </contour>
      <contour>
        <pt x="804" y="716" on="1"/>
        <pt x="480" y="716" on="1"/>
        <pt x="346" y="862" on="1"/>
        <pt x="643" y="862" on="1"/>
        <pt x="747" y="750" on="1"/>
        <pt x="850" y="862" on="1"/>
        <pt x="937" y="862" on="1"/>
      </contour>
      <contour>
        <pt x="532" y="741" on="1"/>
        <pt x="594" y="741" on="1"/>
        <pt x="519" y="824" on="1"/>
        <pt x="457" y="824" on="1"/>
      </contour>
    </TTGlyph>
    <TTGlyph name="a" xMin="-14" yMin="0" xMax="1201" yMax="558">
      <contour>
        <pt x="1201" y="43" on="1"/>
        <pt x="1201" y="0" on="1"/>
        <pt x="557" y="0" on="1"/>
        <pt x="557" y="43" on="1"/>
        <pt x="623" y="43" on="1"/>
        <pt x="644" y="43" on="0"/>
        <pt x="670" y="60" on="0"/>
        <pt x="670" y="98" on="0"/>
        <pt x="647" y="127" on="1"/>
        <pt x="616" y="166" on="1"/>
        <pt x="242" y="166" on="1"/>
        <pt x="219" y="127" on="0"/>
        <pt x="219" y="72" on="0"/>
        <pt x="253" y="43" on="0"/>
        <pt x="280" y="43" on="1"/>
        <pt x="362" y="43" on="1"/>
        <pt x="362" y="0" on="1"/>
        <pt x="-14" y="0" on="1"/>
        <pt x="-14" y="43" on="1"/>
        <pt x="34" y="43" on="0"/>
        <pt x="113" y="77" on="0"/>
        <pt x="128" y="94" on="1"/>
        <pt x="144" y="111" on="1"/>
        <pt x="398" y="436" on="1"/>
        <pt x="370" y="471" on="1"/>
        <pt x="356" y="488" on="0"/>
        <pt x="348" y="496" on="1"/>
        <pt x="325" y="515" on="0"/>
        <pt x="267" y="515" on="1"/>
        <pt x="197" y="515" on="1"/>
        <pt x="197" y="558" on="1"/>
        <pt x="688" y="558" on="1"/>
        <pt x="1102" y="43" on="1"/>
      </contour>
      <contour>
        <pt x="423" y="515" on="1"/>
        <pt x="804" y="43" on="1"/>
        <pt x="864" y="43" on="1"/>
        <pt x="484" y="515" on="1"/>
      </contour>
      <contour>
        <pt x="426" y="403" on="1"/>
        <pt x="274" y="207" on="1"/>
        <pt x="583" y="207" on="1"/>
      </contour>
    </TTGlyph>
    <TTGlyph name="aacute" xMin="-14" yMin="0" xMax="1201" yMax="770">
      <contour>
        <pt x="1201" y="43" on="1"/>
        <pt x="1201" y="0" on="1"/>
        <pt x="557" y="0" on="1"/>
        <pt x="557" y="43" on="1"/>
        <pt x="623" y="43" on="1"/>
        <pt x="644" y="43" on="0"/>
        <pt x="670" y="60" on="0"/>
        <pt x="670" y="98" on="0"/>
        <pt x="647" y="127" on="1"/>
        <pt x="616" y="166" on="1"/>
        <pt x="242" y="166" on="1"/>
        <pt x="219" y="127" on="0"/>
        <pt x="219" y="72" on="0"/>
        <pt x="253" y="43" on="0"/>
        <pt x="280" y="43" on="1"/>
        <pt x="362" y="43" on="1"/>
        <pt x="362" y="0" on="1"/>
        <pt x="-14" y="0" on="1"/>
        <pt x="-14" y="43" on="1"/>
        <pt x="34" y="43" on="0"/>
        <pt x="113" y="77" on="0"/>
        <pt x="128" y="94" on="1"/>
        <pt x="144" y="111" on="1"/>
        <pt x="398" y="436" on="1"/>
        <pt x="370" y="471" on="1"/>
        <pt x="356" y="488" on="0"/>
        <pt x="348" y="496" on="1"/>
        <pt x="325" y="515" on="0"/>
        <pt x="267" y="515" on="1"/>
        <pt x="197" y="515" on="1"/>
        <pt x="197" y="558" on="1"/>
        <pt x="688" y="558" on="1"/>
        <pt x="1102" y="43" on="1"/>
      </contour>
      <contour>
        <pt x="423" y="515" on="1"/>
        <pt x="804" y="43" on="1"/>
        <pt x="864" y="43" on="1"/>
        <pt x="484" y="515" on="1"/>
      </contour>
      <contour>
        <pt x="426" y="403" on="1"/>
        <pt x="274" y="207" on="1"/>
        <pt x="583" y="207" on="1"/>
      </contour>
      <contour>
        <pt x="288" y="624" on="1"/>
        <pt x="234" y="624" on="1"/>
        <pt x="234" y="660" on="1"/>
        <pt x="343" y="660" on="0"/>
        <pt x="452" y="712" on="0"/>
        <pt x="493" y="770" on="1"/>
        <pt x="784" y="770" on="1"/>
        <pt x="781" y="757" on="0"/>
        <pt x="757" y="715" on="0"/>
        <pt x="727" y="683" on="0"/>
        <pt x="671" y="650" on="0"/>
        <pt x="636" y="642" on="1"/>
        <pt x="558" y="624" on="0"/>
      </contour>
      <contour>
        <pt x="432" y="667" on="1"/>
        <pt x="432" y="663" on="1"/>
        <pt x="547" y="669" on="0"/>
        <pt x="597" y="742" on="1"/>
        <pt x="533" y="742" on="1"/>
        <pt x="521" y="717" on="0"/>
        <pt x="460" y="676" on="0"/>
      </contour>
    </TTGlyph>
    <TTGlyph name="acircumflex" xMin="-14" yMin="0" xMax="1201" yMax="770">
      <contour>
        <pt x="1201" y="43" on="1"/>
        <pt x="1201" y="0" on="1"/>
        <pt x="557" y="0" on="1"/>
        <pt x="557" y="43" on="1"/>
        <pt x="623" y="43" on="1"/>
        <pt x="644" y="43" on="0"/>
        <pt x="670" y="60" on="0"/>
        <pt x="670" y="98" on="0"/>
        <pt x="647" y="127" on="1"/>
        <pt x="616" y="166" on="1"/>
        <pt x="242" y="166" on="1"/>
        <pt x="219" y="127" on="0"/>
        <pt x="219" y="72" on="0"/>
        <pt x="253" y="43" on="0"/>
        <pt x="280" y="43" on="1"/>
        <pt x="362" y="43" on="1"/>
        <pt x="362" y="0" on="1"/>
        <pt x="-14" y="0" on="1"/>
        <pt x="-14" y="43" on="1"/>
        <pt x="34" y="43" on="0"/>
        <pt x="113" y="77" on="0"/>
        <pt x="128" y="94" on="1"/>
        <pt x="144" y="111" on="1"/>
        <pt x="398" y="436" on="1"/>
        <pt x="370" y="471" on="1"/>
        <pt x="356" y="488" on="0"/>
        <pt x="348" y="496" on="1"/>
        <pt x="325" y="515" on="0"/>
        <pt x="267" y="515" on="1"/>
        <pt x="197" y="515" on="1"/>
        <pt x="197" y="558" on="1"/>
        <pt x="688" y="558" on="1"/>
        <pt x="1102" y="43" on="1"/>
      </contour>
      <contour>
        <pt x="423" y="515" on="1"/>
        <pt x="804" y="43" on="1"/>
        <pt x="864" y="43" on="1"/>
        <pt x="484" y="515" on="1"/>
      </contour>
      <contour>
        <pt x="426" y="403" on="1"/>
        <pt x="274" y="207" on="1"/>
        <pt x="583" y="207" on="1"/>
      </contour>
      <contour>
        <pt x="301" y="770" on="1"/>
        <pt x="625" y="770" on="1"/>
        <pt x="758" y="624" on="1"/>
        <pt x="671" y="624" on="1"/>
        <pt x="568" y="736" on="1"/>
        <pt x="464" y="624" on="1"/>
        <pt x="167" y="624" on="1"/>
      </contour>
      <contour>
        <pt x="415" y="745" on="1"/>
        <pt x="353" y="745" on="1"/>
        <pt x="278" y="662" on="1"/>
        <pt x="340" y="662" on="1"/>
      </contour>
    </TTGlyph>
    <TTGlyph name="acute" xMin="50" yMin="624" xMax="600" yMax="770">
      <contour>
        <pt x="104" y="624" on="1"/>
        <pt x="50" y="624" on="1"/>
        <pt x="50" y="660" on="1"/>
        <pt x="159" y="660" on="0"/>
        <pt x="268" y="712" on="0"/>
        <pt x="309" y="770" on="1"/>
        <pt x="600" y="770" on="1"/>
        <pt x="597" y="757" on="0"/>
        <pt x="573" y="715" on="0"/>
        <pt x="543" y="683" on="0"/>
        <pt x="487" y="650" on="0"/>
        <pt x="452" y="642" on="1"/>
        <pt x="374" y="624" on="0"/>
      </contour>
      <contour>
        <pt x="248" y="667" on="1"/>
        <pt x="248" y="663" on="1"/>
        <pt x="363" y="669" on="0"/>
        <pt x="413" y="742" on="1"/>
        <pt x="349" y="742" on="1"/>
        <pt x="337" y="717" on="0"/>
        <pt x="276" y="676" on="0"/>
      </contour>
    </TTGlyph>
    <TTGlyph name="adieresis" xMin="-14" yMin="0" xMax="1201" yMax="821">
      <contour>
        <pt x="1201" y="43" on="1"/>
        <pt x="1201" y="0" on="1"/>
        <pt x="557" y="0" on="1"/>
        <pt x="557" y="43" on="1"/>
        <pt x="623" y="43" on="1"/>
        <pt x="644" y="43" on="0"/>
        <pt x="670" y="60" on="0"/>
        <pt x="670" y="98" on="0"/>
        <pt x="647" y="127" on="1"/>
        <pt x="616" y="166" on="1"/>
        <pt x="242" y="166" on="1"/>
        <pt x="219" y="127" on="0"/>
        <pt x="219" y="72" on="0"/>
        <pt x="253" y="43" on="0"/>
        <pt x="280" y="43" on="1"/>
        <pt x="362" y="43" on="1"/>
        <pt x="362" y="0" on="1"/>
        <pt x="-14" y="0" on="1"/>
        <pt x="-14" y="43" on="1"/>
        <pt x="34" y="43" on="0"/>
        <pt x="113" y="77" on="0"/>
        <pt x="128" y="94" on="1"/>
        <pt x="144" y="111" on="1"/>
        <pt x="398" y="436" on="1"/>
        <pt x="370" y="471" on="1"/>
        <pt x="356" y="488" on="0"/>
        <pt x="348" y="496" on="1"/>
        <pt x="325" y="515" on="0"/>
        <pt x="267" y="515" on="1"/>
        <pt x="197" y="515" on="1"/>
        <pt x="197" y="558" on="1"/>
        <pt x="688" y="558" on="1"/>
        <pt x="1102" y="43" on="1"/>
      </contour>
      <contour>
        <pt x="423" y="515" on="1"/>
        <pt x="804" y="43" on="1"/>
        <pt x="864" y="43" on="1"/>
        <pt x="484" y="515" on="1"/>
      </contour>
      <contour>
        <pt x="426" y="403" on="1"/>
        <pt x="274" y="207" on="1"/>
        <pt x="583" y="207" on="1"/>
      </contour>
      <contour>
        <pt x="855" y="753" on="0"/>
        <pt x="855" y="659" on="0"/>
        <pt x="775" y="593" on="0"/>
        <pt x="661" y="593" on="0"/>
        <pt x="581" y="659" on="0"/>
        <pt x="581" y="753" on="0"/>
        <pt x="661" y="821" on="0"/>
        <pt x="775" y="821" on="0"/>
      </contour>
      <contour>
        <pt x="399" y="753" on="0"/>
        <pt x="399" y="659" on="0"/>
        <pt x="319" y="593" on="0"/>
        <pt x="205" y="593" on="0"/>
        <pt x="125" y="659" on="0"/>
        <pt x="125" y="753" on="0"/>
        <pt x="205" y="821" on="0"/>
        <pt x="319" y="821" on="0"/>
      </contour>
      <contour>
        <pt x="203" y="653" on="0"/>
        <pt x="203" y="759" on="0"/>
        <pt x="234" y="793" on="1"/>
        <pt x="231" y="796" on="1"/>
        <pt x="200" y="783" on="0"/>
        <pt x="162" y="734" on="0"/>
        <pt x="162" y="678" on="0"/>
        <pt x="200" y="629" on="0"/>
        <pt x="231" y="616" on="1"/>
        <pt x="234" y="619" on="1"/>
      </contour>
      <contour>
        <pt x="659" y="653" on="0"/>
        <pt x="659" y="759" on="0"/>
        <pt x="690" y="793" on="1"/>
        <pt x="687" y="796" on="1"/>
        <pt x="656" y="783" on="0"/>
        <pt x="618" y="734" on="0"/>
        <pt x="618" y="678" on="0"/>
        <pt x="656" y="629" on="0"/>
        <pt x="687" y="616" on="1"/>
        <pt x="690" y="619" on="1"/>
      </contour>
    </TTGlyph>
    <TTGlyph name="ae" xMin="-14" yMin="0" xMax="1479" yMax="558">
      <contour>
        <pt x="1072" y="515" on="1"/>
        <pt x="1029" y="515" on="0"/>
        <pt x="980" y="471" on="0"/>
        <pt x="980" y="435" on="1"/>
        <pt x="980" y="395" on="1"/>
        <pt x="980" y="322" on="0"/>
        <pt x="1051" y="322" on="1"/>
        <pt x="1108" y="322" on="0"/>
        <pt x="1235" y="387" on="0"/>
        <pt x="1255" y="430" on="1"/>
        <pt x="1292" y="430" on="1"/>
        <pt x="1292" y="166" on="1"/>
        <pt x="1255" y="166" on="1"/>
        <pt x="1235" y="211" on="0"/>
        <pt x="1111" y="266" on="0"/>
        <pt x="1051" y="266" on="1"/>
        <pt x="980" y="266" on="0"/>
        <pt x="980" y="193" on="1"/>
        <pt x="980" y="126" on="1"/>
        <pt x="980" y="43" on="0"/>
        <pt x="1048" y="43" on="1"/>
        <pt x="1125" y="43" on="1"/>
        <pt x="1345" y="43" on="0"/>
        <pt x="1450" y="186" on="1"/>
        <pt x="1479" y="186" on="1"/>
        <pt x="1479" y="0" on="1"/>
        <pt x="448" y="0" on="1"/>
        <pt x="448" y="43" on="1"/>
        <pt x="553" y="43" on="1"/>
        <pt x="642" y="43" on="0"/>
        <pt x="642" y="131" on="1"/>
        <pt x="642" y="271" on="1"/>
        <pt x="323" y="271" on="1"/>
        <pt x="242" y="166" on="1"/>
        <pt x="219" y="137" on="0"/>
        <pt x="219" y="72" on="0"/>
        <pt x="253" y="43" on="0"/>
        <pt x="280" y="43" on="1"/>
        <pt x="362" y="43" on="1"/>
        <pt x="362" y="0" on="1"/>
        <pt x="-14" y="0" on="1"/>
        <pt x="-14" y="43" on="1"/>
        <pt x="34" y="43" on="0"/>
        <pt x="113" y="77" on="0"/>
        <pt x="128" y="94" on="1"/>
        <pt x="144" y="111" on="1"/>
        <pt x="398" y="436" on="1"/>
        <pt x="370" y="471" on="1"/>
        <pt x="356" y="488" on="0"/>
        <pt x="348" y="496" on="1"/>
        <pt x="325" y="515" on="0"/>
        <pt x="267" y="515" on="1"/>
        <pt x="197" y="515" on="1"/>
        <pt x="197" y="558" on="1"/>
        <pt x="1479" y="558" on="1"/>
        <pt x="1479" y="358" on="1"/>
        <pt x="1450" y="358" on="1"/>
        <pt x="1402" y="424" on="0"/>
        <pt x="1215" y="515" on="0"/>
      </contour>
      <contour>
        <pt x="553" y="515" on="1"/>
        <pt x="512" y="515" on="1"/>
        <pt x="359" y="317" on="1"/>
        <pt x="642" y="317" on="1"/>
        <pt x="642" y="426" on="1"/>
        <pt x="642" y="462" on="0"/>
        <pt x="590" y="515" on="0"/>
      </contour>
      <contour>
        <pt x="704" y="43" on="1"/>
        <pt x="755" y="43" on="1"/>
        <pt x="755" y="515" on="1"/>
        <pt x="704" y="515" on="1"/>
      </contour>
    </TTGlyph>
    <TTGlyph name="agrave" xMin="-14" yMin="0" xMax="1201" yMax="770">
      <contour>
        <pt x="1201" y="43" on="1"/>
        <pt x="1201" y="0" on="1"/>
        <pt x="557" y="0" on="1"/>
        <pt x="557" y="43" on="1"/>
        <pt x="623" y="43" on="1"/>
        <pt x="644" y="43" on="0"/>
        <pt x="670" y="60" on="0"/>
        <pt x="670" y="98" on="0"/>
        <pt x="647" y="127" on="1"/>
        <pt x="616" y="166" on="1"/>
        <pt x="242" y="166" on="1"/>
        <pt x="219" y="127" on="0"/>
        <pt x="219" y="72" on="0"/>
        <pt x="253" y="43" on="0"/>
        <pt x="280" y="43" on="1"/>
        <pt x="362" y="43" on="1"/>
        <pt x="362" y="0" on="1"/>
        <pt x="-14" y="0" on="1"/>
        <pt x="-14" y="43" on="1"/>
        <pt x="34" y="43" on="0"/>
        <pt x="113" y="77" on="0"/>
        <pt x="128" y="94" on="1"/>
        <pt x="144" y="111" on="1"/>
        <pt x="398" y="436" on="1"/>
        <pt x="370" y="471" on="1"/>
        <pt x="356" y="488" on="0"/>
        <pt x="348" y="496" on="1"/>
        <pt x="325" y="515" on="0"/>
        <pt x="267" y="515" on="1"/>
        <pt x="197" y="515" on="1"/>
        <pt x="197" y="558" on="1"/>
        <pt x="688" y="558" on="1"/>
        <pt x="1102" y="43" on="1"/>
      </contour>
      <contour>
        <pt x="423" y="515" on="1"/>
        <pt x="804" y="43" on="1"/>
        <pt x="864" y="43" on="1"/>
        <pt x="484" y="515" on="1"/>
      </contour>
      <contour>
        <pt x="426" y="403" on="1"/>
        <pt x="274" y="207" on="1"/>
        <pt x="583" y="207" on="1"/>
      </contour>
      <contour>
        <pt x="740" y="660" on="1"/>
        <pt x="740" y="624" on="1"/>
        <pt x="686" y="624" on="1"/>
        <pt x="416" y="624" on="0"/>
        <pt x="338" y="642" on="1"/>
        <pt x="267" y="658" on="0"/>
        <pt x="232" y="700" on="1"/>
        <pt x="199" y="738" on="0"/>
        <pt x="193" y="760" on="1"/>
        <pt x="190" y="770" on="1"/>
        <pt x="481" y="770" on="1"/>
        <pt x="522" y="712" on="0"/>
        <pt x="631" y="660" on="0"/>
      </contour>
      <contour>
        <pt x="428" y="663" on="1"/>
        <pt x="428" y="667" on="1"/>
        <pt x="400" y="676" on="0"/>
        <pt x="339" y="717" on="0"/>
        <pt x="327" y="742" on="1"/>
        <pt x="263" y="742" on="1"/>
        <pt x="313" y="669" on="0"/>
      </contour>
    </TTGlyph>
    <TTGlyph name="ampersand" xMin="0" yMin="-23" xMax="1389" yMax="595">
      <contour>
        <pt x="960" y="356" on="1"/>
        <pt x="1389" y="356" on="1"/>
        <pt x="1389" y="313" on="1"/>
        <pt x="1232" y="313" on="1"/>
        <pt x="1126" y="220" on="0"/>
        <pt x="991" y="143" on="1"/>
        <pt x="1120" y="43" on="0"/>
        <pt x="1264" y="43" on="1"/>
        <pt x="1389" y="43" on="1"/>
        <pt x="1389" y="0" on="1"/>
        <pt x="830" y="0" on="1"/>
        <pt x="789" y="0" on="0"/>
        <pt x="739" y="31" on="1"/>
        <pt x="570" y="-23" on="0"/>
        <pt x="412" y="-23" on="1"/>
        <pt x="209" y="-23" on="0"/>
        <pt x="0" y="87" on="0"/>
        <pt x="0" y="175" on="1"/>
        <pt x="0" y="262" on="0"/>
        <pt x="102" y="318" on="1"/>
        <pt x="216" y="381" on="0"/>
        <pt x="474" y="383" on="1"/>
        <pt x="450" y="450" on="0"/>
        <pt x="450" y="501" on="1"/>
        <pt x="450" y="541" on="0"/>
        <pt x="695" y="595" on="0"/>
        <pt x="820" y="595" on="1"/>
        <pt x="905" y="595" on="0"/>
        <pt x="1009" y="538" on="0"/>
        <pt x="1009" y="459" on="0"/>
        <pt x="914" y="387" on="0"/>
        <pt x="804" y="365" on="1"/>
        <pt x="863" y="255" on="0"/>
        <pt x="955" y="173" on="1"/>
        <pt x="1057" y="239" on="0"/>
        <pt x="1057" y="290" on="1"/>
        <pt x="1057" y="313" on="0"/>
        <pt x="1012" y="313" on="1"/>
        <pt x="960" y="313" on="1"/>
      </contour>
      <contour>
        <pt x="510" y="33" on="1"/>
        <pt x="597" y="33" on="0"/>
        <pt x="697" y="61" on="1"/>
        <pt x="638" y="110" on="0"/>
        <pt x="526" y="263" on="0"/>
        <pt x="491" y="342" on="1"/>
        <pt x="424" y="336" on="0"/>
        <pt x="362" y="262" on="0"/>
        <pt x="362" y="178" on="1"/>
        <pt x="362" y="33" on="0"/>
      </contour>
      <contour>
        <pt x="757" y="505" on="1"/>
        <pt x="757" y="464" on="0"/>
        <pt x="785" y="404" on="1"/>
        <pt x="938" y="433" on="0"/>
        <pt x="938" y="498" on="1"/>
        <pt x="938" y="561" on="0"/>
        <pt x="757" y="561" on="0"/>
      </contour>
      <contour>
        <pt x="557" y="517" on="1"/>
        <pt x="543" y="516" on="0"/>
        <pt x="517" y="502" on="0"/>
        <pt x="513" y="496" on="1"/>
        <pt x="560" y="303" on="0"/>
        <pt x="787" y="36" on="0"/>
        <pt x="921" y="36" on="1"/>
        <pt x="843" y="71" on="0"/>
        <pt x="712" y="190" on="0"/>
        <pt x="669" y="260" on="1"/>
        <pt x="588" y="390" on="0"/>
      </contour>
      <contour>
        <pt x="130" y="56" on="1"/>
        <pt x="98" y="105" on="0"/>
        <pt x="98" y="246" on="0"/>
        <pt x="130" y="295" on="1"/>
        <pt x="126" y="299" on="1"/>
        <pt x="50" y="245" on="0"/>
        <pt x="50" y="107" on="0"/>
        <pt x="126" y="53" on="1"/>
      </contour>
    </TTGlyph>
    <TTGlyph name="apple" xMin="100" yMin="-114" xMax="823" yMax="608">
      <contour>
        <pt x="589" y="-89" on="1"/>
        <pt x="566" y="-88" on="1"/>
        <pt x="552" y="-88" on="0"/>
        <pt x="517" y="-112" on="0"/>
        <pt x="508" y="-112" on="1"/>
        <pt x="462" y="-102" on="1"/>
        <pt x="454" y="-102" on="0"/>
        <pt x="423" y="-114" on="0"/>
        <pt x="406" y="-114" on="0"/>
        <pt x="374" y="-89" on="0"/>
        <pt x="361" y="-89" on="1"/>
        <pt x="337" y="-91" on="1"/>
        <pt x="322" y="-91" on="0"/>
        <pt x="304" y="-74" on="1"/>
        <pt x="286" y="-55" on="1"/>
        <pt x="274" y="-49" on="0"/>
        <pt x="248" y="-47" on="0"/>
        <pt x="230" y="-36" on="0"/>
        <pt x="216" y="-1" on="0"/>
        <pt x="205" y="8" on="0"/>
        <pt x="177" y="19" on="0"/>
        <pt x="171" y="28" on="1"/>
        <pt x="166" y="37" on="0"/>
        <pt x="162" y="66" on="0"/>
        <pt x="154" y="79" on="0"/>
        <pt x="144" y="86" on="1"/>
        <pt x="122" y="104" on="0"/>
        <pt x="122" y="124" on="1"/>
        <pt x="125" y="149" on="1"/>
        <pt x="125" y="158" on="0"/>
        <pt x="100" y="193" on="0"/>
        <pt x="100" y="211" on="0"/>
        <pt x="112" y="240" on="0"/>
        <pt x="112" y="257" on="0"/>
        <pt x="100" y="283" on="0"/>
        <pt x="100" y="301" on="0"/>
        <pt x="125" y="342" on="0"/>
        <pt x="125" y="351" on="1"/>
        <pt x="124" y="376" on="1"/>
        <pt x="124" y="391" on="0"/>
        <pt x="157" y="420" on="0"/>
        <pt x="162" y="430" on="0"/>
        <pt x="166" y="462" on="0"/>
        <pt x="174" y="474" on="0"/>
        <pt x="205" y="486" on="0"/>
        <pt x="215" y="496" on="0"/>
        <pt x="229" y="527" on="0"/>
        <pt x="242" y="538" on="0"/>
        <pt x="280" y="546" on="0"/>
        <pt x="291" y="552" on="0"/>
        <pt x="321" y="586" on="0"/>
        <pt x="335" y="587" on="1"/>
        <pt x="361" y="585" on="1"/>
        <pt x="374" y="585" on="0"/>
        <pt x="405" y="608" on="0"/>
        <pt x="416" y="608" on="1"/>
        <pt x="460" y="596" on="1"/>
        <pt x="505" y="608" on="1"/>
        <pt x="518" y="608" on="0"/>
        <pt x="550" y="583" on="0"/>
        <pt x="562" y="583" on="1"/>
        <pt x="590" y="586" on="1"/>
        <pt x="606" y="586" on="0"/>
        <pt x="632" y="553" on="0"/>
        <pt x="645" y="546" on="0"/>
        <pt x="675" y="540" on="0"/>
        <pt x="690" y="530" on="0"/>
        <pt x="700" y="502" on="0"/>
        <pt x="711" y="492" on="0"/>
        <pt x="751" y="471" on="0"/>
        <pt x="760" y="455" on="0"/>
        <pt x="761" y="423" on="0"/>
        <pt x="766" y="414" on="0"/>
        <pt x="800" y="385" on="0"/>
        <pt x="800" y="369" on="1"/>
        <pt x="799" y="344" on="1"/>
        <pt x="799" y="331" on="0"/>
        <pt x="823" y="294" on="0"/>
        <pt x="823" y="276" on="0"/>
        <pt x="812" y="250" on="0"/>
        <pt x="812" y="236" on="0"/>
        <pt x="823" y="207" on="0"/>
        <pt x="822" y="191" on="0"/>
        <pt x="798" y="166" on="0"/>
        <pt x="798" y="152" on="1"/>
        <pt x="800" y="120" on="1"/>
        <pt x="800" y="104" on="0"/>
        <pt x="768" y="78" on="0"/>
        <pt x="763" y="68" on="0"/>
        <pt x="754" y="30" on="0"/>
        <pt x="743" y="17" on="0"/>
        <pt x="718" y="6" on="0"/>
        <pt x="708" y="-4" on="0"/>
        <pt x="690" y="-37" on="0"/>
        <pt x="676" y="-47" on="0"/>
        <pt x="641" y="-56" on="0"/>
        <pt x="631" y="-62" on="0"/>
        <pt x="604" y="-89" on="0"/>
      </contour>
      <contour>
        <pt x="462" y="-6" on="1"/>
        <pt x="495" y="-13" on="1"/>
        <pt x="501" y="-13" on="0"/>
        <pt x="512" y="-6" on="1"/>
        <pt x="527" y="4" on="0"/>
        <pt x="539" y="4" on="1"/>
        <pt x="554" y="3" on="1"/>
        <pt x="566" y="3" on="0"/>
        <pt x="584" y="23" on="0"/>
        <pt x="591" y="27" on="0"/>
        <pt x="617" y="34" on="0"/>
        <pt x="628" y="42" on="0"/>
        <pt x="641" y="65" on="0"/>
        <pt x="648" y="72" on="0"/>
        <pt x="666" y="80" on="0"/>
        <pt x="674" y="89" on="0"/>
        <pt x="680" y="117" on="0"/>
        <pt x="685" y="125" on="0"/>
        <pt x="707" y="143" on="0"/>
        <pt x="707" y="157" on="1"/>
        <pt x="706" y="177" on="1"/>
        <pt x="706" y="188" on="0"/>
        <pt x="723" y="207" on="0"/>
        <pt x="724" y="213" on="1"/>
        <pt x="716" y="245" on="1"/>
        <pt x="724" y="273" on="1"/>
        <pt x="724" y="281" on="0"/>
        <pt x="706" y="309" on="0"/>
        <pt x="706" y="318" on="1"/>
        <pt x="707" y="335" on="1"/>
        <pt x="707" y="347" on="0"/>
        <pt x="683" y="367" on="0"/>
        <pt x="679" y="375" on="0"/>
        <pt x="678" y="398" on="0"/>
        <pt x="672" y="409" on="0"/>
        <pt x="643" y="424" on="0"/>
        <pt x="635" y="432" on="0"/>
        <pt x="627" y="452" on="0"/>
        <pt x="617" y="460" on="0"/>
        <pt x="595" y="464" on="0"/>
        <pt x="585" y="469" on="0"/>
        <pt x="567" y="493" on="0"/>
        <pt x="555" y="493" on="1"/>
        <pt x="535" y="491" on="1"/>
        <pt x="526" y="491" on="0"/>
        <pt x="504" y="509" on="0"/>
        <pt x="494" y="509" on="1"/>
        <pt x="461" y="500" on="1"/>
        <pt x="429" y="509" on="1"/>
        <pt x="421" y="509" on="0"/>
        <pt x="397" y="492" on="0"/>
        <pt x="387" y="492" on="1"/>
        <pt x="370" y="493" on="1"/>
        <pt x="359" y="493" on="0"/>
        <pt x="338" y="468" on="0"/>
        <pt x="329" y="463" on="0"/>
        <pt x="303" y="458" on="0"/>
        <pt x="293" y="450" on="0"/>
        <pt x="283" y="428" on="0"/>
        <pt x="275" y="420" on="0"/>
        <pt x="254" y="412" on="0"/>
        <pt x="250" y="407" on="1"/>
        <pt x="248" y="403" on="0"/>
        <pt x="244" y="380" on="0"/>
        <pt x="240" y="372" on="0"/>
        <pt x="216" y="351" on="0"/>
        <pt x="216" y="340" on="1"/>
        <pt x="217" y="324" on="1"/>
        <pt x="217" y="316" on="0"/>
        <pt x="200" y="286" on="0"/>
        <pt x="200" y="278" on="1"/>
        <pt x="208" y="248" on="1"/>
        <pt x="200" y="215" on="1"/>
        <pt x="200" y="207" on="0"/>
        <pt x="217" y="182" on="0"/>
        <pt x="217" y="174" on="1"/>
        <pt x="215" y="158" on="1"/>
        <pt x="215" y="147" on="0"/>
        <pt x="240" y="124" on="0"/>
        <pt x="244" y="116" on="0"/>
        <pt x="247" y="95" on="0"/>
        <pt x="255" y="82" on="0"/>
        <pt x="275" y="74" on="0"/>
        <pt x="283" y="67" on="0"/>
        <pt x="294" y="41" on="0"/>
        <pt x="306" y="33" on="0"/>
        <pt x="325" y="33" on="0"/>
        <pt x="337" y="27" on="0"/>
        <pt x="360" y="2" on="0"/>
        <pt x="371" y="2" on="1"/>
        <pt x="386" y="3" on="1"/>
        <pt x="396" y="3" on="0"/>
        <pt x="420" y="-14" on="0"/>
        <pt x="426" y="-15" on="1"/>
      </contour>
      <contour>
        <pt x="392" y="417" on="0"/>
        <pt x="532" y="417" on="0"/>
        <pt x="632" y="318" on="0"/>
        <pt x="632" y="176" on="0"/>
        <pt x="532" y="77" on="0"/>
        <pt x="392" y="77" on="0"/>
        <pt x="292" y="176" on="0"/>
        <pt x="292" y="318" on="0"/>
      </contour>
      <contour>
        <pt x="505" y="292" on="1"/>
        <pt x="557" y="292" on="1"/>
        <pt x="557" y="360" on="1"/>
        <pt x="366" y="360" on="1"/>
        <pt x="366" y="292" on="1"/>
        <pt x="420" y="292" on="1"/>
        <pt x="420" y="117" on="1"/>
        <pt x="505" y="117" on="1"/>
      </contour>
    </TTGlyph>
    <TTGlyph name="approxequal" xMin="100" yMin="161" xMax="640" yMax="512">
      <contour>
        <pt x="640" y="188" on="1"/>
        <pt x="588" y="214" on="0"/>
        <pt x="474" y="214" on="0"/>
        <pt x="266" y="161" on="0"/>
        <pt x="151" y="161" on="0"/>
        <pt x="100" y="188" on="1"/>
        <pt x="100" y="268" on="1"/>
        <pt x="152" y="242" on="0"/>
        <pt x="266" y="242" on="0"/>
        <pt x="474" y="294" on="0"/>
        <pt x="588" y="294" on="0"/>
        <pt x="640" y="268" on="1"/>
      </contour>
      <contour>
        <pt x="640" y="408" on="1"/>
        <pt x="589" y="432" on="0"/>
        <pt x="474" y="432" on="0"/>
        <pt x="266" y="382" on="0"/>
        <pt x="152" y="382" on="0"/>
        <pt x="100" y="408" on="1"/>
        <pt x="100" y="488" on="1"/>
        <pt x="150" y="463" on="0"/>
        <pt x="267" y="463" on="0"/>
        <pt x="475" y="512" on="0"/>
        <pt x="586" y="512" on="0"/>
        <pt x="640" y="488" on="1"/>
      </contour>
    </TTGlyph>
    <TTGlyph name="aring" xMin="-14" yMin="0" xMax="1201" yMax="838">
      <contour>
        <pt x="1201" y="43" on="1"/>
        <pt x="1201" y="0" on="1"/>
        <pt x="557" y="0" on="1"/>
        <pt x="557" y="43" on="1"/>
        <pt x="623" y="43" on="1"/>
        <pt x="644" y="43" on="0"/>
        <pt x="670" y="60" on="0"/>
        <pt x="670" y="98" on="0"/>
        <pt x="647" y="127" on="1"/>
        <pt x="616" y="166" on="1"/>
        <pt x="242" y="166" on="1"/>
        <pt x="219" y="127" on="0"/>
        <pt x="219" y="72" on="0"/>
        <pt x="253" y="43" on="0"/>
        <pt x="280" y="43" on="1"/>
        <pt x="362" y="43" on="1"/>
        <pt x="362" y="0" on="1"/>
        <pt x="-14" y="0" on="1"/>
        <pt x="-14" y="43" on="1"/>
        <pt x="34" y="43" on="0"/>
        <pt x="113" y="77" on="0"/>
        <pt x="128" y="94" on="1"/>
        <pt x="144" y="111" on="1"/>
        <pt x="398" y="436" on="1"/>
        <pt x="370" y="471" on="1"/>
        <pt x="356" y="488" on="0"/>
        <pt x="348" y="496" on="1"/>
        <pt x="325" y="515" on="0"/>
        <pt x="267" y="515" on="1"/>
        <pt x="197" y="515" on="1"/>
        <pt x="197" y="558" on="1"/>
        <pt x="688" y="558" on="1"/>
        <pt x="1102" y="43" on="1"/>
      </contour>
      <contour>
        <pt x="423" y="515" on="1"/>
        <pt x="804" y="43" on="1"/>
        <pt x="864" y="43" on="1"/>
        <pt x="484" y="515" on="1"/>
      </contour>
      <contour>
        <pt x="426" y="403" on="1"/>
        <pt x="274" y="207" on="1"/>
        <pt x="583" y="207" on="1"/>
      </contour>
      <contour>
        <pt x="460" y="747" on="0"/>
        <pt x="460" y="665" on="0"/>
        <pt x="488" y="607" on="0"/>
        <pt x="528" y="607" on="0"/>
        <pt x="556" y="665" on="0"/>
        <pt x="556" y="747" on="0"/>
        <pt x="528" y="805" on="0"/>
        <pt x="488" y="805" on="0"/>
      </contour>
      <contour>
        <pt x="574" y="838" on="0"/>
        <pt x="667" y="760" on="0"/>
        <pt x="667" y="651" on="0"/>
        <pt x="574" y="576" on="0"/>
        <pt x="443" y="576" on="0"/>
        <pt x="351" y="652" on="0"/>
        <pt x="351" y="760" on="0"/>
        <pt x="444" y="838" on="0"/>
      </contour>
      <contour>
        <pt x="423" y="652" on="0"/>
        <pt x="423" y="760" on="0"/>
        <pt x="454" y="796" on="1"/>
        <pt x="451" y="799" on="1"/>
        <pt x="421" y="785" on="0"/>
        <pt x="383" y="734" on="0"/>
        <pt x="383" y="678" on="0"/>
        <pt x="421" y="627" on="0"/>
        <pt x="451" y="613" on="1"/>
        <pt x="454" y="616" on="1"/>
      </contour>
    </TTGlyph>
    <TTGlyph name="asciicircum" xMin="143" yMin="189" xMax="597" yMax="595">
      <contour>
        <pt x="209" y="189" on="1"/>
        <pt x="143" y="223" on="1"/>
        <pt x="345" y="595" on="1"/>
        <pt x="395" y="595" on="1"/>
        <pt x="597" y="223" on="1"/>
        <pt x="531" y="189" on="1"/>
        <pt x="370" y="491" on="1"/>
      </contour>
    </TTGlyph>
    <TTGlyph name="asciitilde" xMin="100" yMin="253" xMax="640" yMax="424">
      <contour>
        <pt x="640" y="299" on="1"/>
        <pt x="596" y="344" on="0"/>
        <pt x="469" y="344" on="0"/>
        <pt x="270" y="253" on="0"/>
        <pt x="139" y="253" on="0"/>
        <pt x="100" y="298" on="1"/>
        <pt x="100" y="378" on="1"/>
        <pt x="148" y="333" on="0"/>
        <pt x="262" y="333" on="0"/>
        <pt x="475" y="424" on="0"/>
        <pt x="590" y="424" on="0"/>
        <pt x="640" y="379" on="1"/>
      </contour>
    </TTGlyph>
    <TTGlyph name="asterisk" xMin="50" yMin="242" xMax="626" yMax="801">
      <contour>
        <pt x="442" y="740" on="1"/>
        <pt x="442" y="708" on="0"/>
        <pt x="357" y="539" on="0"/>
        <pt x="320" y="539" on="0"/>
        <pt x="235" y="708" on="0"/>
        <pt x="235" y="740" on="1"/>
        <pt x="235" y="801" on="0"/>
        <pt x="442" y="801" on="0"/>
      </contour>
      <contour>
        <pt x="310" y="522" on="1"/>
        <pt x="310" y="506" on="0"/>
        <pt x="176" y="480" on="0"/>
        <pt x="121" y="480" on="1"/>
        <pt x="50" y="480" on="0"/>
        <pt x="50" y="542" on="1"/>
        <pt x="50" y="601" on="0"/>
        <pt x="107" y="683" on="0"/>
        <pt x="165" y="683" on="0"/>
        <pt x="310" y="547" on="0"/>
      </contour>
      <contour>
        <pt x="366" y="522" on="1"/>
        <pt x="366" y="547" on="0"/>
        <pt x="511" y="683" on="0"/>
        <pt x="569" y="683" on="0"/>
        <pt x="626" y="601" on="0"/>
        <pt x="626" y="542" on="1"/>
        <pt x="626" y="480" on="0"/>
        <pt x="555" y="480" on="1"/>
        <pt x="500" y="480" on="0"/>
        <pt x="366" y="506" on="0"/>
      </contour>
      <contour>
        <pt x="315" y="487" on="1"/>
        <pt x="328" y="487" on="0"/>
        <pt x="328" y="402" on="0"/>
        <pt x="295" y="267" on="0"/>
        <pt x="275" y="251" on="1"/>
        <pt x="266" y="243" on="0"/>
        <pt x="216" y="243" on="0"/>
        <pt x="149" y="280" on="0"/>
        <pt x="124" y="315" on="1"/>
        <pt x="110" y="333" on="0"/>
        <pt x="110" y="352" on="1"/>
        <pt x="110" y="393" on="0"/>
        <pt x="280" y="487" on="0"/>
      </contour>
      <contour>
        <pt x="364" y="488" on="1"/>
        <pt x="396" y="488" on="0"/>
        <pt x="556" y="397" on="0"/>
        <pt x="565" y="370" on="1"/>
        <pt x="567" y="362" on="0"/>
        <pt x="567" y="358" on="1"/>
        <pt x="567" y="330" on="0"/>
        <pt x="507" y="262" on="0"/>
        <pt x="457" y="246" on="1"/>
        <pt x="446" y="242" on="0"/>
        <pt x="434" y="242" on="1"/>
        <pt x="393" y="242" on="0"/>
        <pt x="377" y="294" on="1"/>
        <pt x="349" y="380" on="0"/>
        <pt x="349" y="453" on="1"/>
        <pt x="349" y="488" on="0"/>
      </contour>
      <contour>
        <pt x="269" y="745" on="1"/>
        <pt x="269" y="724" on="0"/>
        <pt x="316" y="606" on="0"/>
        <pt x="338" y="567" on="1"/>
        <pt x="358" y="598" on="1"/>
        <pt x="301" y="715" on="0"/>
        <pt x="299" y="751" on="1"/>
        <pt x="299" y="765" on="0"/>
        <pt x="313" y="775" on="1"/>
        <pt x="310" y="784" on="1"/>
        <pt x="269" y="777" on="0"/>
      </contour>
      <contour>
        <pt x="70" y="568" on="1"/>
        <pt x="69" y="557" on="1"/>
        <pt x="69" y="512" on="0"/>
        <pt x="213" y="512" on="0"/>
        <pt x="284" y="528" on="1"/>
        <pt x="261" y="556" on="1"/>
        <pt x="181" y="544" on="0"/>
        <pt x="86" y="544" on="0"/>
        <pt x="81" y="569" on="1"/>
      </contour>
      <contour>
        <pt x="161" y="323" on="1"/>
        <pt x="161" y="343" on="0"/>
        <pt x="266" y="410" on="0"/>
        <pt x="303" y="427" on="1"/>
        <pt x="305" y="464" on="1"/>
        <pt x="221" y="421" on="0"/>
        <pt x="138" y="362" on="0"/>
        <pt x="138" y="323" on="0"/>
        <pt x="154" y="307" on="1"/>
        <pt x="164" y="310" on="1"/>
        <pt x="161" y="316" on="0"/>
      </contour>
      <contour>
        <pt x="476" y="282" on="1"/>
        <pt x="450" y="282" on="0"/>
        <pt x="415" y="380" on="0"/>
        <pt x="406" y="451" on="1"/>
        <pt x="372" y="464" on="1"/>
        <pt x="385" y="334" on="0"/>
        <pt x="420" y="286" on="1"/>
        <pt x="434" y="266" on="0"/>
        <pt x="466" y="266" on="0"/>
        <pt x="476" y="272" on="1"/>
      </contour>
      <contour>
        <pt x="596" y="570" on="1"/>
        <pt x="591" y="544" on="0"/>
        <pt x="495" y="544" on="0"/>
        <pt x="415" y="556" on="1"/>
        <pt x="392" y="528" on="1"/>
        <pt x="463" y="512" on="0"/>
        <pt x="575" y="512" on="0"/>
        <pt x="607" y="531" on="0"/>
        <pt x="607" y="555" on="1"/>
        <pt x="607" y="562" on="0"/>
        <pt x="606" y="568" on="1"/>
      </contour>
    </TTGlyph>
    <TTGlyph name="at" xMin="50" yMin="-222" xMax="1248" yMax="694">
      <contour>
        <pt x="249" y="618" on="0"/>
        <pt x="458" y="694" on="0"/>
        <pt x="684" y="694" on="0"/>
        <pt x="825" y="679" on="0"/>
        <pt x="890" y="659" on="1"/>
        <pt x="1021" y="618" on="0"/>
        <pt x="1021" y="497" on="1"/>
        <pt x="1021" y="18" on="1"/>
        <pt x="775" y="18" on="1"/>
        <pt x="751" y="70" on="1"/>
        <pt x="669" y="-1" on="0"/>
        <pt x="477" y="-1" on="0"/>
        <pt x="362" y="122" on="0"/>
        <pt x="362" y="289" on="0"/>
        <pt x="485" y="409" on="0"/>
        <pt x="600" y="409" on="1"/>
        <pt x="688" y="409" on="0"/>
        <pt x="735" y="406" on="1"/>
        <pt x="735" y="496" on="1"/>
        <pt x="735" y="644" on="0"/>
        <pt x="587" y="644" on="1"/>
        <pt x="515" y="644" on="0"/>
        <pt x="395" y="573" on="0"/>
        <pt x="318" y="456" on="0"/>
        <pt x="276" y="310" on="0"/>
        <pt x="276" y="156" on="0"/>
        <pt x="318" y="18" on="0"/>
        <pt x="398" y="-95" on="0"/>
        <pt x="533" y="-162" on="0"/>
        <pt x="618" y="-162" on="1"/>
        <pt x="772" y="-162" on="0"/>
        <pt x="1035" y="-34" on="0"/>
        <pt x="1188" y="187" on="0"/>
        <pt x="1188" y="317" on="1"/>
        <pt x="1248" y="317" on="1"/>
        <pt x="1248" y="171" on="0"/>
        <pt x="1079" y="-77" on="0"/>
        <pt x="789" y="-222" on="0"/>
        <pt x="618" y="-222" on="1"/>
        <pt x="481" y="-222" on="0"/>
        <pt x="259" y="-142" on="0"/>
        <pt x="123" y="-9" on="0"/>
        <pt x="50" y="155" on="0"/>
        <pt x="50" y="331" on="0"/>
        <pt x="119" y="490" on="0"/>
      </contour>
      <contour>
        <pt x="174" y="133" on="0"/>
        <pt x="174" y="355" on="0"/>
        <pt x="254" y="548" on="0"/>
        <pt x="317" y="596" on="1"/>
        <pt x="314" y="604" on="1"/>
        <pt x="223" y="564" on="0"/>
        <pt x="110" y="356" on="0"/>
        <pt x="110" y="132" on="0"/>
        <pt x="224" y="-79" on="0"/>
        <pt x="315" y="-118" on="1"/>
        <pt x="318" y="-110" on="1"/>
        <pt x="255" y="-61" on="0"/>
      </contour>
      <contour>
        <pt x="787" y="525" on="1"/>
        <pt x="787" y="74" on="1"/>
        <pt x="851" y="74" on="1"/>
        <pt x="851" y="525" on="1"/>
        <pt x="851" y="558" on="0"/>
        <pt x="788" y="638" on="0"/>
        <pt x="726" y="651" on="1"/>
        <pt x="723" y="641" on="1"/>
        <pt x="787" y="616" on="0"/>
      </contour>
      <contour>
        <pt x="694" y="116" on="1"/>
        <pt x="712" y="116" on="0"/>
        <pt x="735" y="121" on="1"/>
        <pt x="735" y="355" on="1"/>
        <pt x="722" y="356" on="0"/>
        <pt x="695" y="356" on="1"/>
        <pt x="650" y="356" on="0"/>
        <pt x="600" y="279" on="0"/>
        <pt x="600" y="182" on="0"/>
        <pt x="648" y="116" on="0"/>
      </contour>
      <contour>
        <pt x="462" y="161" on="0"/>
        <pt x="462" y="249" on="0"/>
        <pt x="506" y="340" on="0"/>
        <pt x="550" y="369" on="1"/>
        <pt x="548" y="376" on="1"/>
        <pt x="484" y="350" on="0"/>
        <pt x="412" y="258" on="0"/>
        <pt x="412" y="152" on="0"/>
        <pt x="485" y="59" on="0"/>
        <pt x="548" y="34" on="1"/>
        <pt x="550" y="41" on="1"/>
        <pt x="506" y="70" on="0"/>
      </contour>
    </TTGlyph>
    <TTGlyph name="atilde" xMin="-14" yMin="0" xMax="1201" yMax="787">
      <contour>
        <pt x="1201" y="43" on="1"/>
        <pt x="1201" y="0" on="1"/>
        <pt x="557" y="0" on="1"/>
        <pt x="557" y="43" on="1"/>
        <pt x="623" y="43" on="1"/>
        <pt x="644" y="43" on="0"/>
        <pt x="670" y="60" on="0"/>
        <pt x="670" y="98" on="0"/>
        <pt x="647" y="127" on="1"/>
        <pt x="616" y="166" on="1"/>
        <pt x="242" y="166" on="1"/>
        <pt x="219" y="127" on="0"/>
        <pt x="219" y="72" on="0"/>
        <pt x="253" y="43" on="0"/>
        <pt x="280" y="43" on="1"/>
        <pt x="362" y="43" on="1"/>
        <pt x="362" y="0" on="1"/>
        <pt x="-14" y="0" on="1"/>
        <pt x="-14" y="43" on="1"/>
        <pt x="34" y="43" on="0"/>
        <pt x="113" y="77" on="0"/>
        <pt x="128" y="94" on="1"/>
        <pt x="144" y="111" on="1"/>
        <pt x="398" y="436" on="1"/>
        <pt x="370" y="471" on="1"/>
        <pt x="356" y="488" on="0"/>
        <pt x="348" y="496" on="1"/>
        <pt x="325" y="515" on="0"/>
        <pt x="267" y="515" on="1"/>
        <pt x="197" y="515" on="1"/>
        <pt x="197" y="558" on="1"/>
        <pt x="688" y="558" on="1"/>
        <pt x="1102" y="43" on="1"/>
      </contour>
      <contour>
        <pt x="423" y="515" on="1"/>
        <pt x="804" y="43" on="1"/>
        <pt x="864" y="43" on="1"/>
        <pt x="484" y="515" on="1"/>
      </contour>
      <contour>
        <pt x="426" y="403" on="1"/>
        <pt x="274" y="207" on="1"/>
        <pt x="583" y="207" on="1"/>
      </contour>
      <contour>
        <pt x="756" y="697" on="1"/>
        <pt x="709" y="682" on="0"/>
        <pt x="569" y="682" on="0"/>
        <pt x="392" y="726" on="0"/>
        <pt x="297" y="726" on="0"/>
        <pt x="263" y="696" on="1"/>
        <pt x="266" y="692" on="1"/>
        <pt x="289" y="697" on="0"/>
        <pt x="343" y="697" on="0"/>
        <pt x="548" y="647" on="0"/>
        <pt x="704" y="647" on="0"/>
        <pt x="758" y="693" on="1"/>
      </contour>
      <contour>
        <pt x="728" y="639" on="0"/>
        <pt x="658" y="613" on="0"/>
        <pt x="536" y="613" on="0"/>
        <pt x="343" y="662" on="0"/>
        <pt x="281" y="662" on="1"/>
        <pt x="234" y="662" on="0"/>
        <pt x="219" y="625" on="1"/>
        <pt x="191" y="625" on="1"/>
        <pt x="195" y="674" on="0"/>
        <pt x="318" y="787" on="0"/>
        <pt x="498" y="787" on="0"/>
        <pt x="670" y="751" on="0"/>
        <pt x="775" y="751" on="0"/>
        <pt x="796" y="786" on="1"/>
        <pt x="829" y="786" on="1"/>
        <pt x="824" y="746" on="0"/>
        <pt x="775" y="678" on="0"/>
      </contour>
    </TTGlyph>
    <TTGlyph name="b" xMin="73" yMin="0" xMax="1225" yMax="558">
      <contour>
        <pt x="1189" y="243" on="0"/>
        <pt x="1225" y="187" on="0"/>
        <pt x="1225" y="109" on="0"/>
        <pt x="1172" y="45" on="0"/>
        <pt x="1130" y="30" on="1"/>
        <pt x="1049" y="0" on="0"/>
        <pt x="961" y="0" on="1"/>
        <pt x="73" y="0" on="1"/>
        <pt x="73" y="43" on="1"/>
        <pt x="178" y="43" on="1"/>
        <pt x="267" y="43" on="0"/>
        <pt x="267" y="131" on="1"/>
        <pt x="267" y="425" on="1"/>
        <pt x="267" y="461" on="0"/>
        <pt x="214" y="515" on="0"/>
        <pt x="178" y="515" on="1"/>
        <pt x="73" y="515" on="1"/>
        <pt x="73" y="558" on="1"/>
        <pt x="876" y="558" on="1"/>
        <pt x="1035" y="558" on="0"/>
        <pt x="1088" y="538" on="1"/>
        <pt x="1148" y="516" on="0"/>
        <pt x="1164" y="480" on="1"/>
        <pt x="1174" y="458" on="0"/>
        <pt x="1174" y="391" on="0"/>
        <pt x="1131" y="332" on="0"/>
        <pt x="1088" y="307" on="0"/>
        <pt x="1065" y="300" on="1"/>
        <pt x="1065" y="296" on="1"/>
        <pt x="1111" y="288" on="0"/>
        <pt x="1161" y="259" on="1"/>
      </contour>
      <contour>
        <pt x="605" y="434" on="1"/>
        <pt x="605" y="313" on="1"/>
        <pt x="735" y="313" on="1"/>
        <pt x="778" y="313" on="0"/>
        <pt x="844" y="365" on="0"/>
        <pt x="844" y="463" on="0"/>
        <pt x="770" y="515" on="0"/>
        <pt x="657" y="515" on="0"/>
        <pt x="605" y="471" on="0"/>
      </contour>
      <contour>
        <pt x="380" y="43" on="1"/>
        <pt x="380" y="515" on="1"/>
        <pt x="330" y="515" on="1"/>
        <pt x="330" y="43" on="1"/>
      </contour>
      <contour>
        <pt x="673" y="43" on="1"/>
        <pt x="751" y="43" on="1"/>
        <pt x="802" y="43" on="0"/>
        <pt x="877" y="98" on="0"/>
        <pt x="877" y="217" on="0"/>
        <pt x="802" y="275" on="0"/>
        <pt x="742" y="275" on="1"/>
        <pt x="605" y="275" on="1"/>
        <pt x="605" y="127" on="1"/>
        <pt x="605" y="43" on="0"/>
      </contour>
      <contour>
        <pt x="974" y="380" on="0"/>
        <pt x="974" y="438" on="0"/>
        <pt x="926" y="493" on="0"/>
        <pt x="890" y="507" on="1"/>
        <pt x="886" y="504" on="1"/>
        <pt x="919" y="457" on="0"/>
        <pt x="919" y="361" on="0"/>
        <pt x="886" y="314" on="1"/>
        <pt x="890" y="310" on="1"/>
        <pt x="926" y="324" on="0"/>
      </contour>
      <contour>
        <pt x="1007" y="122" on="0"/>
        <pt x="1007" y="196" on="0"/>
        <pt x="955" y="262" on="0"/>
        <pt x="912" y="278" on="1"/>
        <pt x="909" y="274" on="1"/>
        <pt x="953" y="225" on="0"/>
        <pt x="953" y="93" on="0"/>
        <pt x="909" y="44" on="1"/>
        <pt x="912" y="40" on="1"/>
        <pt x="955" y="56" on="0"/>
      </contour>
    </TTGlyph>
    <TTGlyph name="backslash" xMin="50" yMin="-52" xMax="532" yMax="670">
      <contour>
        <pt x="532" y="-52" on="1"/>
        <pt x="450" y="-52" on="1"/>
        <pt x="50" y="670" on="1"/>
        <pt x="132" y="670" on="1"/>
      </contour>
    </TTGlyph>
    <TTGlyph name="bar" xMin="150" yMin="-95" xMax="215" yMax="715">
      <contour>
        <pt x="215" y="715" on="1"/>
        <pt x="215" y="-95" on="1"/>
        <pt x="150" y="-95" on="1"/>
        <pt x="150" y="715" on="1"/>
      </contour>
    </TTGlyph>
    <TTGlyph name="braceleft" xMin="43" yMin="-117" xMax="684" yMax="737">
      <contour>
        <pt x="43" y="281" on="1"/>
        <pt x="43" y="339" on="1"/>
        <pt x="99" y="339" on="0"/>
        <pt x="144" y="374" on="0"/>
        <pt x="144" y="428" on="1"/>
        <pt x="144" y="501" on="0"/>
        <pt x="203" y="575" on="1"/>
        <pt x="239" y="620" on="0"/>
        <pt x="352" y="689" on="0"/>
        <pt x="554" y="737" on="0"/>
        <pt x="684" y="737" on="1"/>
        <pt x="684" y="683" on="1"/>
        <pt x="676" y="683" on="0"/>
        <pt x="628" y="672" on="0"/>
        <pt x="593" y="657" on="0"/>
        <pt x="550" y="626" on="0"/>
        <pt x="534" y="606" on="1"/>
        <pt x="498" y="557" on="0"/>
        <pt x="498" y="426" on="0"/>
        <pt x="479" y="358" on="0"/>
        <pt x="437" y="327" on="0"/>
        <pt x="394" y="318" on="0"/>
        <pt x="357" y="318" on="1"/>
        <pt x="357" y="302" on="1"/>
        <pt x="394" y="302" on="0"/>
        <pt x="437" y="293" on="0"/>
        <pt x="458" y="278" on="1"/>
        <pt x="498" y="248" on="0"/>
        <pt x="498" y="139" on="1"/>
        <pt x="498" y="85" on="0"/>
        <pt x="536" y="4" on="0"/>
        <pt x="564" y="-16" on="1"/>
        <pt x="621" y="-56" on="0"/>
        <pt x="665" y="-61" on="1"/>
        <pt x="684" y="-63" on="1"/>
        <pt x="684" y="-117" on="1"/>
        <pt x="554" y="-117" on="0"/>
        <pt x="352" y="-69" on="0"/>
        <pt x="239" y="0" on="0"/>
        <pt x="203" y="45" on="1"/>
        <pt x="144" y="119" on="0"/>
        <pt x="144" y="192" on="1"/>
        <pt x="144" y="246" on="0"/>
        <pt x="99" y="281" on="0"/>
      </contour>
      <contour>
        <pt x="209" y="216" on="1"/>
        <pt x="209" y="108" on="0"/>
        <pt x="334" y="-27" on="0"/>
        <pt x="481" y="-62" on="1"/>
        <pt x="483" y="-55" on="1"/>
        <pt x="357" y="-7" on="0"/>
        <pt x="282" y="96" on="0"/>
        <pt x="282" y="216" on="1"/>
        <pt x="282" y="298" on="0"/>
        <pt x="189" y="310" on="1"/>
        <pt x="282" y="322" on="0"/>
        <pt x="282" y="404" on="1"/>
        <pt x="282" y="524" on="0"/>
        <pt x="357" y="627" on="0"/>
        <pt x="483" y="675" on="1"/>
        <pt x="481" y="682" on="1"/>
        <pt x="334" y="647" on="0"/>
        <pt x="209" y="512" on="0"/>
        <pt x="209" y="404" on="1"/>
        <pt x="209" y="332" on="0"/>
        <pt x="163" y="314" on="1"/>
        <pt x="163" y="306" on="1"/>
        <pt x="209" y="288" on="0"/>
      </contour>
    </TTGlyph>
</ttFont>
